<svg version="1.1" id="Layer_1" xmlns="http://www.w3.org/2000/svg" xmlns:xlink="http://www.w3.org/1999/xlink" x="0px" y="0px"
	 width="100%" viewBox="0 0 500 500" enable-background="new 0 0 500 500" xml:space="preserve">
<path fill="#FFFFFF" opacity="1.000000" stroke="none" 
	d="
M1.000000,194.000000 
	C1.000000,129.349350 1.000000,65.198708 1.000000,1.024032 
	C167.609024,1.024032 334.218048,1.024032 500.913544,1.024032 
	C500.913544,167.567368 500.913544,334.134796 500.913544,500.851135 
	C334.333435,500.851135 167.666733,500.851135 1.000000,500.851135 
	C1.000000,398.781830 1.000000,296.640900 1.000000,194.000000 
M368.723999,106.278854 
	C368.600616,105.900833 368.477234,105.522820 368.983276,104.737480 
	C370.488831,102.266403 373.778107,99.041977 373.120361,97.484558 
	C371.839142,94.450996 368.718262,91.624077 365.667542,90.065849 
	C362.507935,88.452011 359.520264,89.892242 359.034637,94.997322 
	C358.782288,97.443901 353.816162,99.117592 357.809662,102.902542 
	C358.262146,104.028343 358.714630,105.154137 359.038452,107.054390 
	C358.968201,107.574753 358.897949,108.095116 358.084839,108.401100 
	C354.240387,106.933540 350.395935,105.465988 346.268311,103.256966 
	C343.633911,99.447250 339.817444,99.726929 335.764862,100.169754 
	C335.764862,100.169754 335.639618,100.029572 335.830780,99.107872 
	C335.830780,88.191933 335.830780,77.275993 335.830780,66.267830 
	C308.928223,66.267830 282.715515,66.267830 256.347382,66.267830 
	C256.347382,93.939384 256.347382,121.273132 256.347382,148.653732 
	C282.976471,148.653732 309.188507,148.653732 335.927277,148.653732 
	C335.927277,144.200073 335.793091,140.070816 335.966980,135.954559 
	C336.124359,132.229050 336.617920,128.517746 337.595123,125.135529 
	C341.483490,127.196495 345.371887,129.257462 350.891907,132.183258 
	C352.095337,151.425369 347.385590,172.191971 344.157501,193.126862 
	C342.685455,192.889679 341.215118,192.640945 339.741058,192.417023 
	C317.137085,188.983185 294.602386,184.941193 271.902252,182.348404 
	C258.081696,180.769852 244.005814,181.426834 229.789047,180.307343 
	C228.545959,174.685791 227.302856,169.064224 226.059769,163.442673 
	C226.530273,163.613770 227.000778,163.784882 227.471283,163.955994 
	C228.480927,162.237061 229.897232,160.628494 230.400970,158.772263 
	C231.085052,156.251526 231.070969,153.541306 231.740265,150.410538 
	C231.780365,149.563293 231.820480,148.716049 232.004120,147.087570 
	C231.337097,146.031143 230.670074,144.974701 230.324768,143.248917 
	C235.300873,142.310333 240.276993,141.371750 245.053604,140.470795 
	C242.335236,136.403610 237.179672,137.771240 232.305557,137.906601 
	C234.377075,134.220749 236.217926,130.945312 238.058777,127.669884 
	C237.775192,127.500198 237.491608,127.330521 237.208023,127.160835 
	C235.587570,128.380127 233.967102,129.599411 232.153748,130.963821 
	C231.946808,129.415085 231.801727,128.329391 231.587234,126.724129 
	C230.004135,128.672623 228.738388,130.230484 226.848129,132.557007 
	C226.155579,127.941887 225.623535,124.396385 225.091507,120.850883 
	C224.724182,120.878525 224.356873,120.906166 223.989563,120.933807 
	C223.407486,125.225769 222.825409,129.517731 222.111908,134.778748 
	C220.717743,132.289581 219.936691,130.662781 218.938812,129.182144 
	C218.034195,127.839844 216.893219,126.656837 215.856461,125.403595 
	C215.648849,125.561523 215.441238,125.719452 215.233627,125.877373 
	C216.254196,129.663681 217.274765,133.449982 218.211334,136.924652 
	C214.088913,134.348648 210.037399,131.816956 205.985886,129.285263 
	C205.678406,129.748138 205.370941,130.211014 205.063477,130.673904 
	C208.262589,133.545151 211.461700,136.416412 215.289902,139.852280 
	C206.125305,139.877289 203.585968,141.485275 201.382401,148.349075 
	C203.378082,147.030197 204.874573,145.578690 206.656952,144.983734 
	C208.748611,144.285599 211.088791,144.331955 212.993469,144.749069 
	C213.089600,145.758972 213.185730,146.768860 213.273544,148.454880 
	C213.486679,149.288208 213.699814,150.121552 213.884811,151.844009 
	C215.373428,155.925873 212.116791,162.078384 219.416214,163.688675 
	C217.942154,169.924728 216.502258,176.016159 214.205231,182.109467 
	C210.435074,182.436203 206.643051,182.607986 202.901276,183.135910 
	C199.566269,183.606461 196.286819,184.470917 192.233047,185.017303 
	C191.164490,184.646027 190.089798,184.291443 189.028381,183.900772 
	C182.086472,181.345566 175.147461,178.782547 167.281891,176.092514 
	C157.915054,177.030304 148.548218,177.968094 139.038834,177.997543 
	C138.114700,170.189194 137.365295,162.354950 136.212463,154.580505 
	C135.248535,148.080032 133.812698,141.649521 132.964706,134.530396 
	C133.938080,132.003540 134.911469,129.476685 136.213409,126.339638 
	C139.794968,124.177948 143.418060,122.080788 146.933945,119.817101 
	C148.057907,119.093437 148.897797,117.928581 149.980408,116.967873 
	C149.980408,116.967873 149.973526,116.855331 150.247955,116.774811 
	C150.382324,116.627350 150.442795,116.454109 150.931458,115.730850 
	C151.308655,114.843292 151.685852,113.955727 152.987640,112.965187 
	C182.215393,112.965187 211.443146,112.965187 240.601929,112.965187 
	C240.601929,85.832657 240.601929,59.612339 240.601929,33.317898 
	C206.977264,33.317898 173.749435,33.317898 139.965530,33.317898 
	C139.965530,58.728607 139.965530,83.827988 139.526718,109.453896 
	C138.694077,109.725067 137.861420,109.996246 136.561005,109.737564 
	C133.160553,105.114113 128.256393,102.727440 122.959808,99.875595 
	C123.302460,95.689339 124.418327,91.348061 120.525642,87.208778 
	C118.907272,86.190910 117.003845,84.040565 115.722839,84.363007 
	C111.524002,85.419891 107.972603,88.100311 107.132591,92.600235 
	C106.865898,94.028923 108.918854,95.890617 110.294861,98.044373 
	C111.223869,99.334793 112.152885,100.625206 112.500397,102.270576 
	C104.396080,107.413002 102.276840,116.225563 99.071030,124.333435 
	C96.681160,130.377716 99.321800,133.784134 105.882004,133.955994 
	C107.648445,134.002243 109.381989,135.304840 110.910660,136.673248 
	C107.893074,139.143723 104.875488,141.614197 101.857910,144.084671 
	C102.047279,144.868454 102.236641,145.652237 102.426010,146.436035 
	C105.250763,147.979874 108.075516,149.523712 110.975136,151.991089 
	C110.980995,153.314728 110.831734,154.660553 111.017342,155.958481 
	C112.452301,165.992661 108.702171,173.636398 101.140793,180.228989 
	C96.577538,184.207565 93.093887,189.424393 88.784264,194.684830 
	C85.160912,196.969894 81.500793,199.198990 77.921120,201.550537 
	C67.212555,208.585144 57.137119,216.276505 51.014034,228.971481 
	C51.008953,269.122986 51.030262,309.274506 50.983200,349.425934 
	C50.968510,361.957336 53.591206,373.842163 59.226566,385.039337 
	C68.278671,403.025391 83.640663,414.688019 100.058357,425.083984 
	C137.862320,449.021973 179.927689,460.542542 223.901611,464.570099 
	C250.831909,467.036652 278.049408,467.066162 305.132904,466.956116 
	C329.992950,466.855103 354.542999,462.998291 378.443420,455.886810 
	C400.060913,449.454620 420.098541,440.122345 436.220612,423.674652 
	C445.602356,414.103394 452.585907,403.498383 452.822418,389.594452 
	C453.210297,366.788361 453.486969,343.980408 453.972137,320.229553 
	C454.684692,309.418762 453.742920,298.896606 445.688782,290.751373 
	C441.583954,286.600128 436.448029,283.468445 431.832428,278.956207 
	C431.837341,261.030884 431.883270,243.105286 431.774231,225.180618 
	C431.764893,223.645126 430.725769,222.115906 429.679382,220.096619 
	C417.267151,215.731033 404.854919,211.365448 392.054565,206.348724 
	C388.700989,199.135773 384.931000,192.083344 382.075928,184.678177 
	C374.970520,166.248978 370.365356,147.352585 374.225494,127.209381 
	C379.400757,128.909302 384.576019,130.609222 390.236908,132.806793 
	C391.772919,133.065979 393.308929,133.325150 395.172974,134.274216 
	C397.137177,134.550568 400.472290,135.598572 400.826721,134.968842 
	C402.310211,132.333267 403.227783,129.228241 403.537994,126.211441 
	C403.599487,125.613174 400.073517,124.646034 397.850555,123.230118 
	C396.271118,122.724831 394.691681,122.219536 392.650269,121.186005 
	C386.498199,118.787621 380.346130,116.389236 374.130310,113.264221 
	C372.370850,111.129875 370.611389,108.995529 368.723999,106.278854 
z"/>
<path fill="#683BB7" opacity="1.000000" stroke="none" 
	d="
M430.165039,220.583786 
	C430.725769,222.115906 431.764893,223.645126 431.774231,225.180618 
	C431.883270,243.105286 431.837341,261.030884 431.405273,279.482544 
	C418.912354,280.898865 406.846619,281.788910 394.594025,282.446198 
	C393.205597,280.508728 392.177460,279.874115 390.100281,281.533447 
	C387.221527,283.833130 383.144958,281.885681 382.067200,277.763092 
	C382.461304,277.484772 382.649902,277.422272 383.143097,277.575043 
	C388.576691,280.656067 387.256958,274.217010 389.002075,273.677856 
	C392.411255,273.677856 394.984070,273.677856 397.551910,273.677856 
	C400.455170,279.166534 400.455170,279.166534 403.732300,276.842621 
	C403.185150,275.142731 402.634552,273.432220 402.048859,271.612610 
	C405.637207,269.245728 407.822784,263.609924 414.208252,267.593689 
	C414.040985,265.598267 413.740753,263.798523 412.685150,263.010010 
	C408.886688,260.172638 408.836639,254.396164 412.667999,251.672897 
	C413.605774,251.006378 413.972900,249.537079 414.602386,248.436859 
	C413.492645,248.212372 412.307220,247.618027 411.286163,247.826965 
	C406.702759,248.764801 402.268555,244.273331 403.089478,239.718399 
	C403.328186,238.393661 402.203308,236.823166 401.991394,236.204987 
	C398.887238,238.249695 396.976562,240.145065 394.693237,240.875458 
	C390.372253,242.257599 388.073364,239.540192 386.596191,234.049805 
	C385.246033,236.436676 384.006714,237.606293 384.033630,238.745972 
	C384.207428,246.097672 380.509979,249.016968 373.306274,246.503647 
	C372.872986,247.774185 372.443359,249.033966 372.013733,250.293747 
	C372.438843,250.165558 372.863983,250.037369 373.289124,249.909180 
	C374.520935,251.548920 375.752777,253.188675 376.525269,254.896744 
	C372.612274,255.071442 369.158630,255.177811 365.879517,254.965881 
	C367.137085,253.813553 368.220032,252.979538 369.946136,251.650192 
	C364.898193,251.026871 363.481537,248.603561 366.408569,243.232010 
	C361.793701,246.498810 358.979736,245.954544 356.829590,241.598557 
	C355.329956,246.025253 352.439636,247.107544 347.251556,245.065048 
	C351.602844,249.860870 349.263031,252.186417 345.524445,254.506927 
	C351.339783,255.273529 350.785339,258.919647 350.050232,261.972046 
	C352.654877,261.972046 354.912201,261.972046 357.070374,262.310242 
	C352.120026,273.423889 341.268585,275.018555 331.876465,278.650421 
	C327.848053,273.541443 323.912872,268.770782 319.996155,263.649841 
	C323.281616,259.485809 325.684296,255.540268 321.943939,250.274384 
	C321.058594,245.811081 316.691101,244.506027 312.065399,246.938538 
	C307.168701,249.513535 306.426544,251.629562 309.096375,255.758789 
	C309.395721,258.084961 309.700226,260.041229 309.711731,262.161621 
	C304.894775,266.764374 300.281158,271.118195 295.928619,275.718964 
	C295.133148,276.559784 295.401093,278.406738 294.849091,279.954620 
	C290.965332,282.674255 291.290405,286.223022 291.563110,289.919983 
	C280.204529,290.693542 269.302094,291.422424 258.129578,292.169403 
	C263.243561,324.930756 268.271942,357.143860 273.363922,389.764313 
	C273.848633,389.806946 274.978241,390.024933 276.099274,389.987213 
	C294.867310,389.356049 313.681030,389.307831 332.389740,387.883759 
	C356.682220,386.034637 380.332031,380.591644 402.736237,370.818817 
	C425.886444,360.720642 446.150818,347.349854 453.810547,321.173218 
	C453.486969,343.980408 453.210297,366.788361 452.822418,389.594452 
	C452.585907,403.498383 445.602356,414.103394 436.220612,423.674652 
	C420.098541,440.122345 400.060913,449.454620 378.443420,455.886810 
	C354.542999,462.998291 329.992950,466.855103 305.132904,466.956116 
	C278.049408,467.066162 250.831909,467.036652 223.901611,464.570099 
	C179.927689,460.542542 137.862320,449.021973 100.058357,425.083984 
	C83.640663,414.688019 68.278671,403.025391 59.226566,385.039337 
	C53.591206,373.842163 50.968510,361.957336 50.983200,349.425934 
	C51.030262,309.274506 51.008953,269.122986 51.468987,228.448914 
	C88.935982,225.596649 125.948029,223.266922 162.973083,221.411346 
	C162.991882,233.593430 162.997635,245.301376 162.914169,257.254852 
	C162.579208,257.954010 162.333450,258.407654 161.737518,258.863220 
	C158.912140,255.337112 156.436935,251.809113 153.982590,247.890747 
	C155.063690,245.543716 155.922577,243.439285 157.227219,241.662064 
	C159.725937,238.258209 158.326843,236.714264 154.920044,235.500885 
	C153.788208,229.687851 149.625641,228.552399 144.637894,232.234207 
	C143.252991,233.256500 141.623825,233.954269 140.268646,235.008957 
	C138.436157,236.435104 135.733963,237.784561 135.226761,239.659714 
	C134.114365,243.772202 134.147675,248.194595 133.713165,252.490448 
	C134.455704,252.776840 135.198257,253.063217 135.940796,253.349594 
	C138.372040,249.595352 140.803268,245.841110 143.317596,241.958572 
	C143.418503,242.018372 144.237595,242.503815 145.029587,242.996124 
	C145.002502,243.002975 144.999298,242.946991 145.070099,243.199554 
	C145.426544,243.633224 145.712189,243.814331 145.904205,244.275665 
	C145.544556,245.082550 145.278519,245.609192 144.991577,246.485855 
	C142.990631,251.990021 139.914932,257.022919 139.327560,262.331207 
	C138.694336,268.053772 140.390762,274.034149 140.886719,280.258575 
	C141.028641,287.034027 141.354691,293.452911 141.258804,299.917694 
	C114.598618,301.820221 88.360382,303.676880 61.504562,305.577240 
	C62.475609,307.216064 62.981621,308.218353 63.620716,309.127014 
	C80.809616,333.566528 104.175804,350.214691 131.271469,361.803345 
	C164.258774,375.911896 199.003754,381.696381 234.727020,382.132843 
	C246.340897,382.274780 257.957977,382.155121 269.856140,382.155121 
	C269.856140,379.649261 270.073883,377.990021 269.823700,376.404633 
	C265.558899,349.377899 261.272736,322.354218 256.801971,295.361267 
	C256.608643,294.194000 254.560287,292.422852 253.441376,292.470398 
	C246.984680,292.744720 240.547684,293.481964 234.058426,293.592255 
	C234.010132,285.634186 234.089890,278.144806 233.963104,270.658966 
	C233.914062,267.763702 233.396973,264.876373 232.932556,261.709534 
	C231.809402,261.037140 230.846817,260.640686 230.313232,260.157837 
	C233.967606,260.417206 234.052567,258.380219 234.042877,255.982590 
	C233.989059,242.662781 234.021194,229.342606 234.478943,216.011414 
	C241.017746,215.592300 247.101547,215.184357 253.185333,214.776413 
	C237.257339,206.886490 221.279419,199.991379 205.362457,192.958267 
	C192.938187,187.468430 180.589661,181.807175 168.207489,176.222107 
	C175.147461,178.782547 182.086472,181.345566 189.028381,183.900772 
	C190.089798,184.291443 191.164490,184.646027 192.809021,185.363739 
	C213.483658,194.477219 233.530441,203.366898 253.723953,211.909775 
	C257.852631,213.656433 259.660431,215.677689 259.236786,220.305161 
	C258.757965,225.534821 259.126404,230.842056 259.126404,236.315582 
	C260.470490,236.315582 261.101715,236.363266 261.723969,236.308548 
	C274.284332,235.203995 286.843079,234.081070 299.403381,232.975677 
	C311.633392,231.899323 323.870026,230.895126 336.094299,229.757156 
	C352.605621,228.220108 369.109253,226.599594 385.613617,224.988556 
	C400.465881,223.538773 415.314667,222.053452 430.165039,220.583786 
z"/>
<path fill="#BD9AF9" opacity="1.000000" stroke="none" 
	d="
M453.891357,320.701385 
	C446.150818,347.349854 425.886444,360.720642 402.736237,370.818817 
	C380.332031,380.591644 356.682220,386.034637 332.389740,387.883759 
	C313.681030,389.307831 294.867310,389.356049 276.099274,389.987213 
	C274.978241,390.024933 273.848633,389.806946 273.363922,389.764313 
	C268.271942,357.143860 263.243561,324.930756 258.129578,292.169403 
	C269.302094,291.422424 280.204529,290.693542 291.890747,290.003571 
	C294.120178,292.002014 295.565796,293.961517 296.650085,295.978760 
	C293.900574,297.118958 291.478180,298.132812 289.133209,299.301941 
	C286.432007,300.648621 284.706390,303.159668 286.567902,305.627197 
	C287.738800,307.179352 290.909027,308.027039 293.058899,307.831787 
	C295.699738,307.591949 298.211884,305.935364 300.878571,304.910706 
	C300.977478,304.930176 301.145294,305.041962 301.084747,305.445801 
	C297.315063,323.750641 293.605896,341.651611 289.608887,359.801666 
	C289.049225,361.687469 288.218597,364.605896 288.589813,364.767731 
	C293.778137,367.029724 298.154816,372.359802 306.216644,368.883881 
	C303.066986,366.336456 300.395111,364.175476 298.056976,361.852509 
	C303.523834,348.156403 308.657013,334.622314 314.112183,320.239166 
	C318.726105,327.191406 323.504822,332.770996 324.045898,340.790131 
	C324.612579,349.188477 325.950653,357.534698 326.733368,366.219452 
	C326.414825,369.650604 323.791718,375.149384 331.062042,371.335327 
	C331.323578,371.198120 331.903961,371.828918 332.359009,371.875671 
	C336.811310,372.333069 341.268555,372.742401 345.724365,373.165405 
	C346.000885,372.493164 346.277374,371.820923 346.553864,371.148712 
	C343.603638,369.133575 340.653442,367.118439 337.717834,364.684692 
	C337.160950,356.483246 336.922821,348.656616 335.907196,340.932190 
	C335.161072,335.257416 333.956055,329.506866 331.954254,324.165314 
	C328.984283,316.240387 325.128479,308.647430 321.721680,300.499756 
	C321.815582,298.427185 321.837585,296.768036 322.129150,294.868561 
	C325.440094,293.352478 328.481506,292.076691 331.878387,290.965759 
	C335.953918,294.997070 339.536682,294.758789 343.451111,291.192749 
	C345.727386,289.119080 348.533661,287.627136 351.523804,285.895813 
	C357.296051,285.577789 362.645874,285.237366 368.265747,285.128815 
	C368.034058,288.632721 368.348572,292.428070 363.372223,292.625763 
	C362.749329,292.650482 362.025726,293.736420 361.647736,294.482178 
	C361.505096,294.763611 362.277771,295.953491 362.519226,295.919525 
	C367.732452,295.185974 367.216400,299.871826 368.941772,302.307404 
	C368.326721,304.477600 363.577332,306.143494 368.407349,308.501862 
	C373.190948,304.738983 376.321014,305.681885 378.302490,311.195251 
	C378.641815,312.139526 380.334656,312.597412 381.772217,313.516510 
	C382.511932,306.657440 385.729584,305.040558 391.037354,307.741730 
	C391.633850,308.045288 392.493011,307.781860 393.194214,307.940918 
	C394.736511,308.290741 396.255676,308.742523 397.784302,309.152679 
	C397.174774,311.139191 396.691498,313.177612 395.904480,315.091125 
	C395.488037,316.103638 394.543213,316.898804 393.326477,318.437744 
	C399.844604,317.973267 401.348541,319.589813 400.858063,324.695465 
	C400.795837,325.343201 402.155579,326.127563 402.856537,326.848633 
	C406.824799,321.355255 409.713440,324.560883 412.636261,328.007172 
	C412.789886,328.188354 413.546478,327.858124 414.006439,327.769073 
	C414.114990,322.126007 415.240173,321.127838 420.872955,321.454163 
	C421.393188,321.484314 422.400330,321.035583 422.394287,320.832672 
	C422.369751,320.013000 422.269623,319.007477 421.778625,318.421417 
	C419.277679,315.436096 418.566681,312.888763 422.819824,310.786011 
	C423.489990,310.454681 423.693390,309.179260 423.783417,308.999084 
	C420.777466,307.502106 418.363403,306.299927 416.596008,305.419769 
	C416.596008,302.772644 416.596008,301.206238 416.596008,299.639832 
	C415.551117,300.305634 414.573517,301.362671 413.447418,301.556488 
	C411.044922,301.969971 408.230652,303.227631 406.815857,299.634644 
	C406.553009,298.967072 405.449646,298.630432 404.734192,298.141052 
	C404.409912,298.922974 404.186096,299.768188 403.741608,300.474426 
	C402.614105,302.265900 401.666504,305.097443 400.134094,305.485046 
	C397.958130,306.035339 395.042511,305.239166 393.026581,304.038422 
	C392.260040,303.581818 392.482452,300.011536 393.391022,298.584015 
	C394.400330,296.998352 396.707458,296.238708 399.059845,294.727264 
	C398.718353,294.269470 398.256927,292.952881 397.421936,292.643097 
	C391.338440,290.386108 390.406250,287.083649 394.780884,282.678955 
	C406.846619,281.788910 418.912354,280.898865 431.378143,279.942383 
	C436.448029,283.468445 441.583954,286.600128 445.688782,290.751373 
	C453.742920,298.896606 454.684692,309.418762 453.891357,320.701385 
M371.902740,318.776123 
	C370.561523,316.772430 368.561096,314.883392 370.859894,312.236603 
	C370.925201,312.161407 369.720612,310.983307 369.108154,310.319458 
	C364.420837,314.982300 362.619537,310.779877 360.008545,305.634949 
	C359.393250,313.494751 354.997894,313.665955 349.691986,312.587769 
	C355.046631,318.092285 350.674561,320.311584 347.358490,322.535370 
	C349.301544,324.006256 351.584503,324.922577 352.378357,326.560577 
	C353.195160,328.245972 352.559692,330.635193 352.559692,333.079681 
	C357.710388,329.871033 358.708649,330.179108 363.016479,336.151947 
	C364.066010,330.337555 367.484528,328.673523 373.066559,331.041992 
	C370.050537,324.870209 370.438232,323.640045 376.595581,320.060883 
	C374.799408,319.550934 373.729492,319.247162 371.902740,318.776123 
z"/>
<path fill="#BD9BFA" opacity="1.000000" stroke="none" 
	d="
M429.922180,220.340210 
	C415.314667,222.053452 400.465881,223.538773 385.613617,224.988556 
	C369.109253,226.599594 352.605621,228.220108 336.094299,229.757156 
	C323.870026,230.895126 311.633392,231.899323 299.403381,232.975677 
	C286.843079,234.081070 274.284332,235.203995 261.723969,236.308548 
	C261.101715,236.363266 260.470490,236.315582 259.126404,236.315582 
	C259.126404,230.842056 258.757965,225.534821 259.236786,220.305161 
	C259.660431,215.677689 257.852631,213.656433 253.723953,211.909775 
	C233.530441,203.366898 213.483658,194.477219 193.183929,185.435852 
	C196.286819,184.470917 199.566269,183.606461 202.901276,183.135910 
	C206.643051,182.607986 210.435074,182.436203 214.672379,182.470428 
	C215.139526,183.981934 215.139526,185.132477 215.139526,186.283020 
	C215.458282,186.311691 215.777023,186.340378 216.095779,186.369049 
	C216.613251,184.901276 217.130722,183.433487 218.119080,181.987366 
	C221.639755,181.954666 224.689529,181.900299 227.875336,182.182678 
	C228.485153,183.867340 228.958939,185.215240 229.432724,186.563141 
	C229.802689,186.441437 230.172668,186.319717 230.542648,186.197998 
	C230.376648,184.491882 230.210632,182.785751 230.044632,181.079651 
	C244.005814,181.426834 258.081696,180.769852 271.902252,182.348404 
	C294.602386,184.941193 317.137085,188.983185 339.741058,192.417023 
	C341.215118,192.640945 342.685455,192.889679 344.637878,193.551208 
	C344.772003,196.780716 344.102753,199.591858 344.154724,202.389633 
	C344.234192,206.667694 343.056641,209.700516 338.605347,211.074127 
	C337.477478,211.422180 336.717194,212.961380 335.589966,214.164581 
	C341.777100,214.164581 347.092285,214.164581 352.734375,214.164581 
	C353.831879,208.676193 355.016388,202.752747 356.599365,196.856171 
	C364.137268,198.577911 371.276733,200.272797 378.660492,202.192505 
	C379.641022,204.038345 380.377228,205.659363 380.994293,207.018082 
	C379.110199,209.024704 377.469482,210.772095 375.354584,213.024521 
	C383.605164,215.527191 387.744415,210.549210 392.442688,206.999863 
	C404.854919,211.365448 417.267151,215.731033 429.922180,220.340210 
z"/>
<path fill="#BD9BFA" opacity="1.000000" stroke="none" 
	d="
M336.963257,124.800179 
	C336.617920,128.517746 336.124359,132.229050 335.966980,135.954559 
	C335.793091,140.070816 335.927277,144.200073 335.927277,148.653732 
	C309.188507,148.653732 282.976471,148.653732 256.347382,148.653732 
	C256.347382,121.273132 256.347382,93.939384 256.347382,66.267830 
	C282.715515,66.267830 308.928223,66.267830 335.830780,66.267830 
	C335.830780,77.275993 335.830780,88.191933 335.376923,99.577499 
	C329.779541,98.238731 324.668365,96.328537 319.474426,94.678879 
	C317.730835,94.125092 315.776489,94.234711 313.536957,94.013733 
	C311.725342,93.661194 310.295227,93.336029 308.684387,92.643204 
	C306.104553,91.991516 303.705444,91.707481 301.257996,91.417717 
	C301.074860,88.087608 300.915253,85.185379 300.777557,82.681236 
	C293.676971,80.257378 286.851929,83.806374 279.924438,79.427017 
	C275.702911,76.758278 268.418518,78.934494 262.463684,78.934494 
	C262.463684,82.011726 262.463684,84.263397 262.463684,87.496475 
	C269.673431,85.352043 276.644012,89.583260 283.878754,84.533493 
	C287.297546,82.147202 293.761841,84.124123 299.197083,84.124123 
	C299.052734,87.075333 298.944000,89.297951 298.845612,91.309952 
	C291.271912,92.523903 284.305450,93.640526 276.821014,94.840172 
	C276.821014,99.789986 276.821014,104.702286 276.821014,109.761093 
	C273.384308,109.943642 270.475830,110.098137 267.467041,110.257957 
	C267.467041,113.313667 267.467041,115.886848 267.467041,119.002525 
	C272.056793,119.002525 276.344788,119.111481 280.624634,118.970711 
	C284.597839,118.840034 289.256042,120.594330 291.666626,115.411346 
	C291.785004,115.156822 292.597473,115.155807 293.087128,115.153976 
	C297.867981,115.136108 302.648956,115.143219 307.705688,115.143219 
	C307.705688,119.279640 307.705688,122.836777 307.705688,126.689629 
	C304.392273,126.884537 301.335541,127.064346 298.273010,127.244499 
	C298.273010,130.333389 298.273010,132.915024 298.273010,135.589813 
	C305.961182,135.589813 313.326263,135.589813 320.666687,135.589813 
	C320.666687,132.587784 320.666687,130.002991 320.666687,127.181419 
	C316.970215,127.007256 313.591370,126.848061 309.752625,126.667198 
	C309.752625,122.133514 309.752625,118.214577 309.752625,113.873596 
	C304.286591,113.873596 299.317719,113.970299 294.357239,113.809212 
	C293.028992,113.766083 291.682556,113.030197 290.423004,112.443718 
	C288.869781,111.720505 287.479279,110.425041 285.871674,110.097580 
	C283.841919,109.684120 281.664032,109.997787 279.395294,109.997787 
	C279.395294,105.053520 279.395294,100.688087 279.395294,95.320320 
	C282.741302,97.936348 288.660339,91.988213 289.165466,100.211082 
	C289.420197,100.734444 289.690765,100.844299 290.501221,100.790276 
	C295.942108,100.790543 300.919891,100.765694 306.259552,100.823174 
	C308.312439,101.655128 310.003448,102.404770 311.917542,103.441963 
	C315.413544,105.030922 318.686401,106.332321 322.065552,107.959610 
	C321.846741,113.189346 324.988068,115.620354 328.964569,117.839622 
	C331.741760,120.336685 334.352509,122.568436 336.963257,124.800179 
z"/>
<path fill="#BD9BFA" opacity="1.000000" stroke="none" 
	d="
M139.965530,108.927368 
	C139.965530,83.827988 139.965530,58.728607 139.965530,33.317898 
	C173.749435,33.317898 206.977264,33.317898 240.601929,33.317898 
	C240.601929,59.612339 240.601929,85.832657 240.601929,112.965187 
	C211.443146,112.965187 182.215393,112.965187 152.505798,112.690918 
	C152.306793,111.607803 152.589630,110.798965 153.027496,109.694107 
	C154.435318,108.575989 155.688095,107.753899 157.108398,107.265923 
	C162.522263,109.057350 167.859879,112.014641 172.998459,111.701881 
	C191.320984,110.586655 200.760910,95.990341 200.217072,83.822914 
	C199.607620,70.187775 191.928772,59.747330 178.521103,56.594688 
	C166.168121,53.690037 153.139771,60.149307 147.567825,71.984039 
	C142.967194,81.755707 144.776840,91.021095 149.587799,100.138367 
	C146.181885,103.159035 143.073700,106.043198 139.965530,108.927368 
M215.128494,93.095520 
	C215.447083,97.591171 218.388153,95.415848 220.846542,95.617363 
	C220.846542,84.672058 220.846542,74.117577 220.846542,63.374882 
	C218.883011,63.374882 217.201660,63.374882 215.122192,63.374882 
	C215.122192,73.247078 215.122192,82.710663 215.128494,93.095520 
M207.257828,67.218666 
	C205.678680,67.147606 204.099533,67.076546 202.366882,66.998581 
	C202.366882,76.841377 202.366882,86.166725 202.366882,95.847374 
	C204.371185,95.739738 205.947067,95.655121 207.808289,95.555176 
	C207.808289,86.101959 207.808289,77.025574 207.257828,67.218666 
M224.294464,52.412796 
	C223.901505,49.516193 224.238937,46.172276 222.841675,43.890728 
	C222.003342,42.521858 218.133255,41.919270 216.219391,42.612114 
	C214.376038,43.279430 212.285202,45.984478 212.147903,47.924797 
	C211.991394,50.136253 213.277527,53.249374 215.007050,54.616299 
	C217.953491,56.944962 221.272675,55.758999 224.294464,52.412796 
z"/>
<path fill="#BD9AF9" opacity="1.000000" stroke="none" 
	d="
M167.744690,176.157318 
	C180.589661,181.807175 192.938187,187.468430 205.362457,192.958267 
	C221.279419,199.991379 237.257339,206.886490 253.185333,214.776413 
	C247.101547,215.184357 241.017746,215.592300 234.162994,215.732544 
	C232.599747,215.273041 231.814011,214.948257 231.014236,214.908936 
	C212.248138,213.986313 193.481644,213.070221 174.712204,212.219284 
	C171.282578,212.063797 167.839859,212.197098 163.833511,212.197098 
	C163.833511,215.018570 163.833511,217.474045 163.651581,220.063141 
	C163.242676,220.404266 163.072830,220.651093 162.960068,220.937210 
	C125.948029,223.266922 88.935982,225.596649 51.509193,227.984497 
	C57.137119,216.276505 67.212555,208.585144 77.921120,201.550537 
	C81.500793,199.198990 85.160912,196.969894 89.228188,194.550476 
	C93.104446,198.333755 96.536789,202.251389 100.591507,206.879410 
	C101.936470,202.155457 102.360970,198.095383 104.211006,194.847244 
	C106.303764,191.172974 109.676056,188.227524 112.921356,184.978119 
	C116.692070,184.114899 120.046814,183.286316 123.370750,182.348572 
	C126.430679,181.485321 127.709122,182.575272 127.579132,185.725128 
	C127.402580,190.002914 127.367004,194.286530 127.610085,198.761627 
	C128.325089,201.559372 128.700958,204.163132 129.010559,206.307739 
	C135.024292,206.307739 140.382126,206.307739 145.739960,206.307739 
	C146.014145,205.980728 146.288315,205.653717 146.562485,205.326706 
	C145.019104,203.991516 143.327301,202.789215 141.976913,201.281204 
	C140.788208,199.953781 139.215164,198.320450 139.141861,196.759735 
	C138.862946,190.822174 139.122864,184.859283 139.181396,178.905869 
	C148.548218,177.968094 157.915054,177.030304 167.744690,176.157318 
z"/>
<path fill="#290F55" opacity="1.000000" stroke="none" 
	d="
M337.279175,124.967850 
	C334.352509,122.568436 331.741760,120.336685 329.220154,117.587204 
	C330.588715,115.755280 331.868134,114.441101 333.506531,113.135757 
	C337.858917,114.258461 341.886261,115.265060 345.835510,116.517944 
	C349.412567,117.652763 352.935791,118.976967 356.426727,120.359131 
	C362.159882,122.629005 367.847748,125.013275 373.554688,127.349319 
	C370.365356,147.352585 374.970520,166.248978 382.075928,184.678177 
	C384.931000,192.083344 388.700989,199.135773 392.248627,206.674286 
	C387.744415,210.549210 383.605164,215.527191 375.354584,213.024521 
	C377.469482,210.772095 379.110199,209.024704 380.994293,207.018082 
	C380.377228,205.659363 379.641022,204.038345 378.542786,201.838562 
	C372.682678,188.867477 367.184570,176.475174 361.574860,163.831268 
	C360.471313,169.246033 359.193787,174.652008 358.304047,180.121063 
	C357.403290,185.657990 356.886108,191.257294 356.200928,196.829285 
	C355.016388,202.752747 353.831879,208.676193 352.734375,214.164581 
	C347.092285,214.164581 341.777100,214.164581 335.589966,214.164581 
	C336.717194,212.961380 337.477478,211.422180 338.605347,211.074127 
	C343.056641,209.700516 344.234192,206.667694 344.154724,202.389633 
	C344.102753,199.591858 344.772003,196.780716 345.059692,193.558334 
	C347.385590,172.191971 352.095337,151.425369 350.891907,132.183258 
	C345.371887,129.257462 341.483490,127.196495 337.279175,124.967850 
z"/>
<path fill="#270D55" opacity="1.000000" stroke="none" 
	d="
M112.491959,184.965149 
	C109.676056,188.227524 106.303764,191.172974 104.211006,194.847244 
	C102.360970,198.095383 101.936470,202.155457 100.591507,206.879410 
	C96.536789,202.251389 93.104446,198.333755 89.398621,194.250488 
	C93.093887,189.424393 96.577538,184.207565 101.140793,180.228989 
	C108.702171,173.636398 112.452301,165.992661 111.017342,155.958481 
	C110.831734,154.660553 110.980995,153.314728 111.097954,151.229950 
	C116.461845,145.223282 121.702919,139.977737 127.350929,134.753708 
	C129.367188,134.912827 130.976517,135.050430 132.585831,135.188034 
	C133.812698,141.649521 135.248535,148.080032 136.212463,154.580505 
	C137.365295,162.354950 138.114700,170.189194 139.110107,178.451706 
	C139.122864,184.859283 138.862946,190.822174 139.141861,196.759735 
	C139.215164,198.320450 140.788208,199.953781 141.976913,201.281204 
	C143.327301,202.789215 145.019104,203.991516 146.562485,205.326706 
	C146.288315,205.653717 146.014145,205.980728 145.739960,206.307739 
	C140.382126,206.307739 135.024292,206.307739 129.010559,206.307739 
	C128.700958,204.163132 128.325089,201.559372 127.659164,198.349792 
	C127.428047,189.253281 127.925125,180.735382 127.400177,172.280930 
	C127.015480,166.085281 125.289268,159.972916 124.160965,153.823441 
	C123.707031,153.854202 123.253098,153.884964 122.799156,153.915741 
	C123.335770,165.637772 121.741669,176.623749 112.491959,184.965149 
z"/>
<path fill="#693DB6" opacity="1.000000" stroke="none" 
	d="
M373.890076,127.279350 
	C367.847748,125.013275 362.159882,122.629005 356.426727,120.359131 
	C352.935791,118.976967 349.412567,117.652763 345.835510,116.517944 
	C341.886261,115.265060 337.858917,114.258461 333.357513,112.801109 
	C331.467804,110.977295 329.710144,109.699532 328.781250,107.975288 
	C326.719086,104.147278 324.665161,103.929840 321.959259,107.633720 
	C318.686401,106.332321 315.413544,105.030922 311.886536,103.117401 
	C312.394440,99.683899 313.156464,96.862495 313.918488,94.041100 
	C315.776489,94.234711 317.730835,94.125092 319.474426,94.678879 
	C324.668365,96.328537 329.779541,98.238731 335.281342,100.038345 
	C335.639618,100.029572 335.764862,100.169754 335.703003,100.498688 
	C335.122620,101.623886 334.604034,102.420151 334.245667,102.970375 
	C338.177246,108.549034 342.485809,103.828941 346.551483,103.998436 
	C350.395935,105.465988 354.240387,106.933540 358.685181,108.667969 
	C359.820282,109.094368 360.355042,109.253899 361.179626,109.602615 
	C365.710938,111.191490 369.952515,112.591171 374.194061,113.990860 
	C380.346130,116.389236 386.498199,118.787621 392.850586,121.846375 
	C391.951019,125.774216 390.851135,129.041687 389.751282,132.309143 
	C384.576019,130.609222 379.400757,128.909302 373.890076,127.279350 
z"/>
<path fill="#270D55" opacity="1.000000" stroke="none" 
	d="
M111.130630,136.030746 
	C109.381989,135.304840 107.648445,134.002243 105.882004,133.955994 
	C99.321800,133.784134 96.681160,130.377716 99.071030,124.333435 
	C102.276840,116.225563 104.396080,107.413002 113.140572,102.175385 
	C116.271507,103.373604 118.762268,104.667023 121.097069,106.250595 
	C122.305344,112.000366 123.669579,117.459969 124.875755,123.215332 
	C123.986572,124.789978 121.389610,126.320068 125.153625,127.416176 
	C124.928047,129.543304 124.734825,131.243668 124.119629,132.955292 
	C119.292427,133.101151 114.658653,132.298477 111.130630,136.030746 
z"/>
<path fill="#7248BC" opacity="1.000000" stroke="none" 
	d="
M213.321182,144.055405 
	C211.088791,144.331955 208.748611,144.285599 206.656952,144.983734 
	C204.874573,145.578690 203.378082,147.030197 201.382401,148.349075 
	C203.585968,141.485275 206.125305,139.877289 215.289902,139.852280 
	C211.461700,136.416412 208.262589,133.545151 205.063477,130.673904 
	C205.370941,130.211014 205.678406,129.748138 205.985886,129.285263 
	C210.037399,131.816956 214.088913,134.348648 218.211334,136.924652 
	C217.274765,133.449982 216.254196,129.663681 215.233627,125.877373 
	C215.441238,125.719452 215.648849,125.561523 215.856461,125.403595 
	C216.893219,126.656837 218.034195,127.839844 218.938812,129.182144 
	C219.936691,130.662781 220.717743,132.289581 222.111908,134.778748 
	C222.825409,129.517731 223.407486,125.225769 223.989563,120.933807 
	C224.356873,120.906166 224.724182,120.878525 225.091507,120.850883 
	C225.623535,124.396385 226.155579,127.941887 226.848129,132.557007 
	C228.738388,130.230484 230.004135,128.672623 231.587234,126.724129 
	C231.801727,128.329391 231.946808,129.415085 232.153748,130.963821 
	C233.967102,129.599411 235.587570,128.380127 237.208023,127.160835 
	C237.491608,127.330521 237.775192,127.500198 238.058777,127.669884 
	C236.217926,130.945312 234.377075,134.220749 232.305557,137.906601 
	C237.179672,137.771240 242.335236,136.403610 245.053604,140.470795 
	C240.276993,141.371750 235.300873,142.310333 229.702362,143.635590 
	C223.827026,144.033310 218.574112,144.044357 213.321182,144.055405 
M226.157944,133.608246 
	C226.311798,133.978027 226.465637,134.347794 226.619492,134.717560 
	C226.618622,134.185242 226.617737,133.652924 226.157944,133.608246 
z"/>
<path fill="#683BB7" opacity="1.000000" stroke="none" 
	d="
M125.185982,126.989426 
	C121.389610,126.320068 123.986572,124.789978 125.174103,123.096329 
	C126.807953,121.417259 127.985390,120.152946 129.454102,118.755600 
	C132.173172,115.837509 134.600967,113.052460 137.028778,110.267418 
	C137.861420,109.996246 138.694077,109.725067 139.746124,109.190628 
	C143.073700,106.043198 146.181885,103.159035 149.894928,100.280273 
	C152.646820,102.501053 154.793839,104.716431 156.940857,106.931808 
	C155.688095,107.753899 154.435318,108.575989 152.680389,109.650192 
	C150.311951,109.606575 147.014282,108.673767 146.815567,109.120232 
	C145.668304,111.697891 145.253052,114.601341 144.294952,118.636566 
	C147.228394,117.756981 148.548035,117.361290 149.867676,116.965591 
	C148.897797,117.928581 148.057907,119.093437 146.933945,119.817101 
	C143.418060,122.080788 139.794968,124.177948 135.724182,126.804504 
	C131.885300,127.176056 128.535645,127.082741 125.185982,126.989426 
z"/>
<path fill="#31185C" opacity="1.000000" stroke="none" 
	d="
M229.916840,180.693481 
	C230.210632,182.785751 230.376648,184.491882 230.542648,186.197998 
	C230.172668,186.319717 229.802689,186.441437 229.432724,186.563141 
	C228.958939,185.215240 228.485153,183.867340 227.897858,181.804291 
	C226.428070,174.952072 225.071793,168.815002 223.715500,162.677917 
	C222.998566,162.651047 222.281631,162.624176 221.564697,162.597290 
	C220.259201,169.053436 218.953705,175.509567 217.648193,181.965698 
	C217.130722,183.433487 216.613251,184.901276 216.095779,186.369049 
	C215.777023,186.340378 215.458282,186.311691 215.139526,186.283020 
	C215.139526,185.132477 215.139526,183.981934 215.100952,182.469482 
	C216.502258,176.016159 217.942154,169.924728 219.416214,163.688675 
	C212.116791,162.078384 215.373428,155.925873 214.365860,151.315872 
	C220.350037,150.829285 225.853180,150.870819 231.356323,150.912354 
	C231.070969,153.541306 231.085052,156.251526 230.400970,158.772263 
	C229.897232,160.628494 228.480927,162.237061 227.471283,163.955994 
	C227.000778,163.784882 226.530273,163.613770 226.059769,163.442673 
	C227.302856,169.064224 228.545959,174.685791 229.916840,180.693481 
z"/>
<path fill="#683CB7" opacity="1.000000" stroke="none" 
	d="
M111.020645,136.351990 
	C114.658653,132.298477 119.292427,133.101151 124.426224,133.032806 
	C125.751190,133.643448 126.347588,134.187820 126.943985,134.732193 
	C121.702919,139.977737 116.461845,145.223282 111.060516,150.768188 
	C108.075516,149.523712 105.250763,147.979874 102.426010,146.436035 
	C102.236641,145.652237 102.047279,144.868454 101.857910,144.084671 
	C104.875488,141.614197 107.893074,139.143723 111.020645,136.351990 
z"/>
<path fill="#321A55" opacity="1.000000" stroke="none" 
	d="
M359.167114,106.279938 
	C358.714630,105.154137 358.262146,104.028343 358.160339,102.528221 
	C359.161377,102.270538 359.880157,102.624283 360.449402,102.459976 
	C362.256256,101.938423 364.007294,101.223625 365.779907,100.583527 
	C364.911743,99.253540 364.222412,97.744774 363.123383,96.645630 
	C362.097961,95.620094 360.637238,95.029869 359.368103,94.248032 
	C359.520264,89.892242 362.507935,88.452011 365.667542,90.065849 
	C368.718262,91.624077 371.839142,94.450996 373.120361,97.484558 
	C373.778107,99.041977 370.488831,102.266403 368.319183,104.943314 
	C364.825775,105.526085 361.996429,105.903015 359.167114,106.279938 
z"/>
<path fill="#8C51F3" opacity="1.000000" stroke="none" 
	d="
M121.253029,105.960442 
	C118.762268,104.667023 116.271507,103.373604 113.431320,101.997910 
	C112.152885,100.625206 111.223869,99.334793 110.216583,97.449280 
	C111.412964,96.180237 112.687622,95.506279 114.159508,94.728043 
	C112.105629,88.692047 116.792839,88.776558 120.578949,88.000252 
	C124.418327,91.348061 123.302460,95.689339 122.861900,100.622032 
	C122.589958,102.815094 122.415924,104.261719 122.003342,105.805389 
	C121.594208,105.921768 121.423615,105.941101 121.253029,105.960442 
z"/>
<path fill="#260C55" opacity="1.000000" stroke="none" 
	d="
M122.241882,105.708344 
	C122.415924,104.261719 122.589958,102.815094 122.938431,101.032639 
	C128.256393,102.727440 133.160553,105.114113 136.794891,110.002487 
	C134.600967,113.052460 132.173172,115.837509 129.344757,118.415375 
	C126.710075,114.041573 124.475983,109.874962 122.241882,105.708344 
z"/>
<path fill="#2D135B" opacity="1.000000" stroke="none" 
	d="
M120.552292,87.604515 
	C116.792839,88.776558 112.105629,88.692047 114.159508,94.728043 
	C112.687622,95.506279 111.412964,96.180237 110.024307,97.204178 
	C108.918854,95.890617 106.865898,94.028923 107.132591,92.600235 
	C107.972603,88.100311 111.524002,85.419891 115.722839,84.363007 
	C117.003845,84.040565 118.907272,86.190910 120.552292,87.604515 
z"/>
<path fill="#BD9BFA" opacity="1.000000" stroke="none" 
	d="
M398.201874,123.848999 
	C400.073517,124.646034 403.599487,125.613174 403.537994,126.211441 
	C403.227783,129.228241 402.310211,132.333267 400.826721,134.968842 
	C400.472290,135.598572 397.137177,134.550568 394.991150,133.565216 
	C395.940186,129.853821 397.071014,126.851410 398.201874,123.848999 
z"/>
<path fill="#250B53" opacity="1.000000" stroke="none" 
	d="
M213.157318,144.402237 
	C218.574112,144.044357 223.827026,144.033310 229.541504,143.970245 
	C230.670074,144.974701 231.337097,146.031143 231.474487,147.502853 
	C225.057190,147.871689 219.169510,147.825226 213.281860,147.778763 
	C213.185730,146.768860 213.089600,145.758972 213.157318,144.402237 
z"/>
<path fill="#8E51F5" opacity="1.000000" stroke="none" 
	d="
M127.350929,134.753708 
	C126.347588,134.187820 125.751190,133.643448 124.848198,133.021561 
	C124.734825,131.243668 124.928047,129.543304 125.153625,127.416176 
	C128.535645,127.082741 131.885300,127.176056 135.559906,127.109604 
	C134.911469,129.476685 133.938080,132.003540 132.775269,134.859222 
	C130.976517,135.050430 129.367188,134.912827 127.350929,134.753708 
z"/>
<path fill="#321A55" opacity="1.000000" stroke="none" 
	d="
M398.026215,123.539558 
	C397.071014,126.851410 395.940186,129.853821 394.827148,133.220276 
	C393.308929,133.325150 391.772919,133.065979 389.994080,132.557968 
	C390.851135,129.041687 391.951019,125.774216 393.081543,122.110504 
	C394.691681,122.219536 396.271118,122.724831 398.026215,123.539558 
z"/>
<path fill="#F2E52B" opacity="1.000000" stroke="none" 
	d="
M359.201355,94.622681 
	C360.637238,95.029869 362.097961,95.620094 363.123383,96.645630 
	C364.222412,97.744774 364.911743,99.253540 365.779907,100.583527 
	C364.007294,101.223625 362.256256,101.938423 360.449402,102.459976 
	C359.880157,102.624283 359.161377,102.270538 358.176941,102.209846 
	C353.816162,99.117592 358.782288,97.443901 359.201355,94.622681 
z"/>
<path fill="#8C51F3" opacity="1.000000" stroke="none" 
	d="
M149.924042,116.966736 
	C148.548035,117.361290 147.228394,117.756981 144.294952,118.636566 
	C145.253052,114.601341 145.668304,111.697891 146.815567,109.120232 
	C147.014282,108.673767 150.311951,109.606575 152.525345,109.946213 
	C152.589630,110.798965 152.306793,111.607803 152.043488,112.742401 
	C151.685852,113.955727 151.308655,114.843292 150.626709,116.104279 
	C150.229126,116.625069 150.112976,116.750938 149.973526,116.855331 
	C149.973526,116.855331 149.980408,116.967873 149.924042,116.966736 
z"/>
<path fill="#AB8EDF" opacity="1.000000" stroke="none" 
	d="
M213.277695,148.116821 
	C219.169510,147.825226 225.057190,147.871689 231.402725,147.893463 
	C231.820480,148.716049 231.780365,149.563293 231.548279,150.661438 
	C225.853180,150.870819 220.350037,150.829285 214.379929,150.871307 
	C213.699814,150.121552 213.486679,149.288208 213.277695,148.116821 
z"/>
<path fill="#FAEF24" opacity="1.000000" stroke="none" 
	d="
M346.409912,103.627701 
	C342.485809,103.828941 338.177246,108.549034 334.245667,102.970375 
	C334.604034,102.420151 335.122620,101.623886 335.783386,100.547455 
	C339.817444,99.726929 343.633911,99.447250 346.409912,103.627701 
z"/>
<path fill="#321A55" opacity="1.000000" stroke="none" 
	d="
M374.162170,113.627533 
	C369.952515,112.591171 365.710938,111.191490 361.550476,109.454750 
	C364.038361,108.365524 366.445160,107.613350 368.851929,106.861183 
	C370.611389,108.995529 372.370850,111.129875 374.162170,113.627533 
z"/>
<path fill="#F2E52B" opacity="1.000000" stroke="none" 
	d="
M368.787964,106.570023 
	C366.445160,107.613350 364.038361,108.365524 361.260712,109.265556 
	C360.355042,109.253899 359.820282,109.094368 359.056580,108.775162 
	C358.897949,108.095116 358.968201,107.574753 359.102783,106.667160 
	C361.996429,105.903015 364.825775,105.526085 368.004456,105.146980 
	C368.477234,105.522820 368.600616,105.900833 368.787964,106.570023 
z"/>
<path fill="#683BB7" opacity="1.000000" stroke="none" 
	d="
M150.110748,116.815071 
	C150.112976,116.750938 150.229126,116.625069 150.375671,116.366402 
	C150.442795,116.454109 150.382324,116.627350 150.110748,116.815071 
z"/>
<path fill="#BD9BF9" opacity="1.000000" stroke="none" 
	d="
M234.104004,294.062378 
	C240.547684,293.481964 246.984680,292.744720 253.441376,292.470398 
	C254.560287,292.422852 256.608643,294.194000 256.801971,295.361267 
	C261.272736,322.354218 265.558899,349.377899 269.823700,376.404633 
	C270.073883,377.990021 269.856140,379.649261 269.856140,382.155121 
	C257.957977,382.155121 246.340897,382.274780 234.727020,382.132843 
	C199.003754,381.696381 164.258774,375.911896 131.271469,361.803345 
	C104.175804,350.214691 80.809616,333.566528 63.620716,309.127014 
	C62.981621,308.218353 62.475609,307.216064 61.504562,305.577240 
	C88.360382,303.676880 114.598618,301.820221 141.302216,300.358795 
	C140.620697,311.591583 139.401901,322.422333 138.370758,333.270874 
	C138.060867,336.531036 138.273514,339.840881 138.196838,343.513611 
	C138.089493,345.188477 138.032120,346.477692 137.720444,348.048553 
	C136.975647,350.652863 136.485168,352.975464 136.035995,355.102509 
	C142.012558,355.102509 147.329819,355.102509 152.758835,355.102509 
	C153.852707,351.936279 151.638382,351.382599 148.936600,350.750885 
	C147.869370,348.469116 146.989166,346.514526 146.469788,344.514465 
	C147.564789,342.277191 148.633484,340.135681 148.971893,337.884369 
	C150.094162,330.418640 150.953491,322.913330 151.913681,315.423218 
	C153.648422,324.130096 154.212997,332.752228 155.031219,341.350220 
	C155.175125,342.862396 156.381241,344.273499 157.083038,346.158875 
	C157.063675,347.723297 157.058090,348.860107 156.973633,350.356079 
	C156.820068,352.036346 156.494049,353.406708 156.740738,354.664734 
	C156.992004,355.946075 157.806824,357.116852 158.374878,358.336060 
	C159.537369,357.547729 160.699860,356.759399 160.697159,356.761230 
	C164.664032,357.406342 167.881485,358.058380 171.131668,358.375793 
	C172.046982,358.465149 173.058136,357.572968 174.025330,357.131042 
	C173.344696,356.171265 172.664047,355.211548 171.735504,354.076172 
	C169.020966,352.067902 166.554352,350.235260 164.534988,348.485962 
	C179.857162,350.119019 194.893417,350.799347 209.551163,353.519379 
	C219.582886,355.380981 225.001053,352.827911 229.309418,343.770905 
	C232.078827,337.949005 234.370026,332.619659 234.117828,326.005493 
	C233.712402,315.373077 234.069244,304.711578 234.104004,294.062378 
z"/>
<path fill="#250B53" opacity="1.000000" stroke="none" 
	d="
M234.058426,293.592255 
	C234.069244,304.711578 233.712402,315.373077 234.117828,326.005493 
	C234.370026,332.619659 232.078827,337.949005 229.309418,343.770905 
	C225.001053,352.827911 219.582886,355.380981 209.551163,353.519379 
	C194.893417,350.799347 179.857162,350.119019 164.512543,348.134491 
	C164.052338,346.989655 164.061859,346.279572 164.416351,345.415833 
	C165.030899,343.514038 165.644104,341.740601 165.517548,340.021667 
	C164.044861,320.018890 162.460632,300.024353 161.347290,279.831360 
	C175.845474,280.435333 190.025574,280.362091 203.918640,282.322723 
	C214.319031,283.790436 221.366470,281.374878 226.133636,271.877747 
	C226.906586,270.825470 227.453369,269.864227 228.190979,268.585449 
	C229.952240,266.173767 231.522675,264.079590 233.093109,261.985413 
	C233.396973,264.876373 233.914062,267.763702 233.963104,270.658966 
	C234.089890,278.144806 234.010132,285.634186 234.058426,293.592255 
z"/>
<path fill="#FBF01F" opacity="1.000000" stroke="none" 
	d="
M160.905945,280.027618 
	C162.460632,300.024353 164.044861,320.018890 165.517548,340.021667 
	C165.644104,341.740601 165.030899,343.514038 163.973816,345.404114 
	C161.156479,345.607788 159.126633,345.669525 157.096802,345.731262 
	C156.381241,344.273499 155.175125,342.862396 155.031219,341.350220 
	C154.212997,332.752228 153.648422,324.130096 151.913681,315.423218 
	C150.953491,322.913330 150.094162,330.418640 148.971893,337.884369 
	C148.633484,340.135681 147.564789,342.277191 146.145828,344.364288 
	C143.056305,343.882385 140.651550,343.505157 138.246796,343.127930 
	C138.273514,339.840881 138.060867,336.531036 138.370758,333.270874 
	C139.401901,322.422333 140.620697,311.591583 141.724152,300.312927 
	C141.354691,293.452911 141.028641,287.034027 141.347809,280.301727 
	C148.325531,280.016937 154.657990,280.045532 160.982758,280.038147 
	C160.975037,280.002167 160.905930,280.027618 160.905945,280.027618 
z"/>
<path fill="#280D57" opacity="1.000000" stroke="none" 
	d="
M163.833511,219.929504 
	C163.833511,217.474045 163.833511,215.018570 163.833511,212.197098 
	C167.839859,212.197098 171.282578,212.063797 174.712204,212.219284 
	C193.481644,213.070221 212.248138,213.986313 231.014236,214.908936 
	C231.814011,214.948257 232.599747,215.273041 233.707977,215.743698 
	C234.021194,229.342606 233.989059,242.662781 234.042877,255.982590 
	C234.052567,258.380219 233.967606,260.417206 229.853165,260.134888 
	C207.373840,259.041046 185.783615,257.883728 164.139404,256.279572 
	C164.001450,243.865005 163.917480,231.897247 163.833511,219.929504 
M172.911636,251.706268 
	C190.300461,252.717026 207.689285,253.727783 225.448273,254.760056 
	C225.448273,242.989517 225.448273,231.627075 225.448273,219.949631 
	C207.578186,219.150818 190.046234,218.367111 172.376511,217.577255 
	C172.195709,218.835419 172.022324,219.468704 172.026138,220.100922 
	C172.088470,230.416260 172.173218,240.731476 172.911636,251.706268 
z"/>
<path fill="#F9EE22" opacity="1.000000" stroke="none" 
	d="
M331.522919,290.800903 
	C328.481506,292.076691 325.440094,293.352478 321.776855,294.886993 
	C317.659332,296.821625 314.163666,298.497528 310.299866,300.228455 
	C305.397858,299.746002 304.809143,296.014130 304.082336,292.433655 
	C312.769073,288.167084 321.130310,284.124512 329.868225,280.121643 
	C330.833099,279.767212 331.421295,279.373108 332.000458,278.983765 
	C331.991425,278.988495 331.969727,278.988770 331.969727,278.988770 
	C341.268585,275.018555 352.120026,273.423889 357.314453,262.168152 
	C358.083527,260.848358 358.509338,260.008911 359.230957,258.955688 
	C361.474609,257.593506 363.422455,256.445099 365.455872,255.343903 
	C365.541412,255.391144 365.704956,255.284164 365.704956,255.284180 
	C369.158630,255.177811 372.612274,255.071442 376.900269,254.970978 
	C378.428955,255.598587 379.803223,256.617828 379.709198,256.778656 
	C379.004944,257.983215 378.010773,259.018250 376.726379,260.070984 
	C373.593964,261.243164 370.842560,262.450653 368.679657,263.399902 
	C369.194763,274.219116 376.011444,273.409912 383.105591,272.136566 
	C383.105591,274.224609 383.105591,275.658264 383.012634,277.132812 
	C382.919708,277.173676 382.838501,277.359802 382.838501,277.359802 
	C382.649902,277.422272 382.461304,277.484772 381.713867,277.771301 
	C376.820740,279.953003 372.486420,281.910645 367.833313,283.606140 
	C365.538483,282.604034 363.589142,281.779327 361.579865,281.144501 
	C358.768250,280.256287 355.969574,278.119324 352.677673,280.632996 
	C350.243469,279.378113 348.029419,277.203857 346.018860,277.378082 
	C342.774811,277.659180 344.161346,280.699341 344.212036,282.917511 
	C344.232544,283.815216 343.035522,285.081024 342.078430,285.599640 
	C338.632324,287.467041 335.052307,289.087280 331.522919,290.800903 
z"/>
<path fill="#B894F6" opacity="1.000000" stroke="none" 
	d="
M164.193375,256.726379 
	C185.783615,257.883728 207.373840,259.041046 229.424149,260.221283 
	C230.846817,260.640686 231.809402,261.037140 232.932556,261.709534 
	C231.522675,264.079590 229.952240,266.173767 228.090347,268.217773 
	C226.884491,266.824951 225.970078,265.482269 224.650696,264.049408 
	C215.962784,263.469421 215.962784,263.469421 213.833099,267.074799 
	C216.612335,267.074799 219.232452,267.074799 221.923889,267.439331 
	C223.299301,269.192169 224.603378,270.580505 225.907455,271.968811 
	C221.366470,281.374878 214.319031,283.790436 203.918640,282.322723 
	C190.025574,280.362091 175.845474,280.435333 161.347290,279.831360 
	C160.905930,280.027618 160.975037,280.002167 161.046967,279.631653 
	C161.053650,277.819824 160.988403,276.378510 160.943909,275.395233 
	C166.173599,274.506195 170.984802,273.688324 176.174835,272.869507 
	C178.795532,273.010864 181.037369,273.153137 183.793747,273.328033 
	C185.208206,272.343109 187.595215,270.680969 190.024826,269.358307 
	C190.644882,270.465240 191.137787,271.795227 191.815277,271.897064 
	C194.048065,272.232697 196.347641,272.123810 198.721588,272.523071 
	C199.301224,274.148468 199.780838,275.436371 200.306000,276.846619 
	C203.984985,274.207306 204.800018,271.706085 200.740662,268.695679 
	C197.455597,268.426636 194.462173,268.426636 191.693375,268.426636 
	C191.060242,267.108704 190.540833,266.027527 190.016632,264.976135 
	C190.011826,265.005981 190.066162,264.979584 190.106903,264.615021 
	C189.604233,263.209137 189.288727,261.584290 188.464386,261.262360 
	C187.205536,260.770691 185.595169,261.179108 183.801880,261.043762 
	C179.986694,260.577332 176.503662,260.272583 172.666901,259.759766 
	C168.904678,259.321594 165.496201,259.091431 162.087708,258.861298 
	C162.333450,258.407654 162.579208,257.954010 163.214401,257.195679 
	C163.800354,256.836121 163.996857,256.781281 164.193375,256.726379 
M207.249725,265.892700 
	C207.408585,264.810089 207.567429,263.727509 207.771698,262.335327 
	C203.568420,262.436737 199.100830,260.265015 196.818695,265.089264 
	C200.337601,266.011444 203.664520,266.885681 207.004929,267.704773 
	C207.025375,267.709808 207.233994,266.947479 207.249725,265.892700 
M218.575424,274.019287 
	C218.703308,273.007263 219.276733,271.354462 218.888596,271.084564 
	C215.773239,268.918335 210.266983,270.237000 207.659164,273.738800 
	C211.179153,273.984863 214.555862,274.220917 218.575424,274.019287 
z"/>
<path fill="#2C1359" opacity="1.000000" stroke="none" 
	d="
M368.152069,283.868317 
	C372.486420,281.910645 376.820740,279.953003 381.508392,277.987152 
	C383.144958,281.885681 387.221527,283.833130 390.100281,281.533447 
	C392.177460,279.874115 393.205597,280.508728 394.594025,282.446198 
	C390.406250,287.083649 391.338440,290.386108 397.421936,292.643097 
	C398.256927,292.952881 398.718353,294.269470 399.059845,294.727264 
	C396.707458,296.238708 394.400330,296.998352 393.391022,298.584015 
	C392.482452,300.011536 392.260040,303.581818 393.026581,304.038422 
	C395.042511,305.239166 397.958130,306.035339 400.134094,305.485046 
	C401.666504,305.097443 402.614105,302.265900 403.741608,300.474426 
	C404.186096,299.768188 404.409912,298.922974 404.734192,298.141052 
	C405.449646,298.630432 406.553009,298.967072 406.815857,299.634644 
	C408.230652,303.227631 411.044922,301.969971 413.447418,301.556488 
	C414.573517,301.362671 415.551117,300.305634 416.596008,299.639832 
	C416.596008,301.206238 416.596008,302.772644 416.596008,305.419769 
	C418.363403,306.299927 420.777466,307.502106 423.783417,308.999084 
	C423.693390,309.179260 423.489990,310.454681 422.819824,310.786011 
	C418.566681,312.888763 419.277679,315.436096 421.778625,318.421417 
	C422.269623,319.007477 422.369751,320.013000 422.394287,320.832672 
	C422.400330,321.035583 421.393188,321.484314 420.872955,321.454163 
	C415.240173,321.127838 414.114990,322.126007 414.006439,327.769073 
	C413.546478,327.858124 412.789886,328.188354 412.636261,328.007172 
	C409.713440,324.560883 406.824799,321.355255 402.856537,326.848633 
	C402.155579,326.127563 400.795837,325.343201 400.858063,324.695465 
	C401.348541,319.589813 399.844604,317.973267 393.326477,318.437744 
	C394.543213,316.898804 395.488037,316.103638 395.904480,315.091125 
	C396.691498,313.177612 397.174774,311.139191 397.784302,309.152679 
	C396.255676,308.742523 394.736511,308.290741 393.194214,307.940918 
	C392.493011,307.781860 391.633850,308.045288 391.037354,307.741730 
	C385.729584,305.040558 382.511932,306.657440 381.772217,313.516510 
	C380.334656,312.597412 378.641815,312.139526 378.302490,311.195251 
	C376.321014,305.681885 373.190948,304.738983 368.407349,308.501862 
	C363.577332,306.143494 368.326721,304.477600 368.941772,302.307404 
	C367.216400,299.871826 367.732452,295.185974 362.519226,295.919525 
	C362.277771,295.953491 361.505096,294.763611 361.647736,294.482178 
	C362.025726,293.736420 362.749329,292.650482 363.372223,292.625763 
	C368.348572,292.428070 368.034058,288.632721 368.289001,284.957458 
	C368.075256,284.325012 368.111847,284.096375 368.152069,283.868317 
M388.927582,296.066101 
	C388.935425,295.068481 389.355743,293.758453 388.878479,293.128235 
	C386.990631,290.635376 385.245239,287.505951 382.649628,286.211517 
	C379.398499,284.590179 375.225037,285.643494 373.559235,289.138062 
	C372.289124,291.802521 371.645844,295.798248 372.771332,298.268982 
	C373.805878,300.540070 377.420441,302.451599 380.176147,302.933533 
	C384.417633,303.675385 387.240601,300.781036 388.927582,296.066101 
M416.168060,312.590240 
	C414.445465,310.423615 413.147095,307.415894 410.902710,306.283875 
	C407.378937,304.506592 403.015167,307.293427 402.019867,311.028717 
	C400.914825,315.175781 403.267334,319.181000 407.374756,320.145691 
	C411.931091,321.215820 414.979553,318.877319 416.168060,312.590240 
z"/>
<path fill="#260C55" opacity="1.000000" stroke="none" 
	d="
M175.795990,272.870453 
	C170.984802,273.688324 166.173599,274.506195 160.943909,275.395233 
	C160.988403,276.378510 161.053650,277.819824 161.054672,279.667633 
	C154.657990,280.045532 148.325531,280.016937 141.531952,279.945190 
	C140.390762,274.034149 138.694336,268.053772 139.327560,262.331207 
	C139.914932,257.022919 142.990631,251.990021 145.372696,246.481857 
	C148.503723,246.845612 151.232727,247.563370 153.961731,248.281113 
	C156.436935,251.809113 158.912140,255.337112 161.737534,258.863220 
	C165.496201,259.091431 168.904678,259.321594 172.660156,260.183594 
	C173.136139,261.928711 173.265137,263.041962 173.137482,264.455872 
	C171.230515,265.104523 169.580231,265.452515 167.929947,265.800507 
	C167.925446,265.996368 167.920959,266.192200 167.916458,266.388062 
	C170.553574,266.624084 173.190704,266.860077 175.840942,267.508881 
	C175.834702,269.571259 175.815353,271.220856 175.795990,272.870453 
z"/>
<path fill="#260D54" opacity="1.000000" stroke="none" 
	d="
M377.107361,260.106384 
	C378.010773,259.018250 379.004944,257.983215 379.709198,256.778656 
	C379.803223,256.617828 378.428955,255.598587 377.359619,254.902649 
	C375.752777,253.188675 374.520935,251.548920 373.289124,249.909180 
	C372.863983,250.037369 372.438843,250.165558 372.013733,250.293747 
	C372.443359,249.033966 372.872986,247.774185 373.306274,246.503647 
	C380.509979,249.016968 384.207428,246.097672 384.033630,238.745972 
	C384.006714,237.606293 385.246033,236.436676 386.596191,234.049805 
	C388.073364,239.540192 390.372253,242.257599 394.693237,240.875458 
	C396.976562,240.145065 398.887238,238.249695 401.991394,236.204987 
	C402.203308,236.823166 403.328186,238.393661 403.089478,239.718399 
	C402.268555,244.273331 406.702759,248.764801 411.286163,247.826965 
	C412.307220,247.618027 413.492645,248.212372 414.602386,248.436859 
	C413.972900,249.537079 413.605774,251.006378 412.667999,251.672897 
	C408.836639,254.396164 408.886688,260.172638 412.685150,263.010010 
	C413.740753,263.798523 414.040985,265.598267 414.208252,267.593689 
	C407.822784,263.609924 405.637207,269.245728 402.048859,271.612610 
	C402.634552,273.432220 403.185150,275.142731 403.732300,276.842621 
	C400.455170,279.166534 400.455170,279.166534 397.551910,273.677856 
	C394.984070,273.677856 392.411255,273.677856 389.002075,273.677856 
	C387.256958,274.217010 388.576691,280.656067 383.143097,277.575043 
	C382.838501,277.359802 382.919708,277.173676 383.280487,276.888824 
	C385.297180,268.853973 381.060089,264.962280 373.487762,267.343842 
	C371.911865,265.412994 371.015228,263.751465 374.377319,262.569489 
	C375.444122,262.194427 376.205994,260.951935 377.107361,260.106384 
M392.696594,268.000580 
	C397.857086,268.197357 401.712219,266.110321 403.757660,261.298492 
	C405.730743,256.656891 404.578033,252.613800 400.907501,249.223801 
	C397.399719,245.984100 393.412292,245.059692 389.064240,247.142090 
	C384.827637,249.171082 382.540497,252.826202 382.455231,257.429779 
	C382.363129,262.401276 385.915222,266.072998 392.696594,268.000580 
z"/>
<path fill="#260C54" opacity="1.000000" stroke="none" 
	d="
M329.491547,280.081909 
	C321.130310,284.124512 312.769073,288.167084 303.805481,292.136841 
	C302.418274,286.736664 299.977722,282.491821 295.178192,279.789246 
	C295.401093,278.406738 295.133148,276.559784 295.928619,275.718964 
	C300.281158,271.118195 304.894775,266.764374 310.008453,262.320801 
	C312.507263,263.988220 314.416321,265.660583 316.384857,267.385071 
	C317.731750,266.116119 318.854706,265.058136 319.977692,264.000153 
	C323.912872,268.770782 327.848053,273.541443 331.876465,278.650421 
	C331.969727,278.988770 331.991425,278.988495 331.636780,278.906586 
	C330.685272,279.243774 330.088409,279.662842 329.491547,280.081909 
z"/>
<path fill="#8E51F5" opacity="1.000000" stroke="none" 
	d="
M294.849091,279.954620 
	C299.977722,282.491821 302.418274,286.736664 303.479980,292.360779 
	C304.809143,296.014130 305.397858,299.746002 310.444153,300.485352 
	C311.264832,300.926422 311.572968,301.165588 311.898438,301.794556 
	C312.958862,306.258057 310.271912,308.323883 307.174896,308.527954 
	C305.249969,308.654785 303.160767,306.289001 301.145294,305.041962 
	C301.145294,305.041962 300.977478,304.930176 301.079865,304.635406 
	C299.791992,301.534088 298.401703,298.727570 297.011444,295.921021 
	C295.565796,293.961517 294.120178,292.002014 292.346924,289.958923 
	C291.290405,286.223022 290.965332,282.674255 294.849091,279.954620 
z"/>
<path fill="#260C55" opacity="1.000000" stroke="none" 
	d="
M145.056671,242.989258 
	C144.237595,242.503815 143.418503,242.018372 143.317596,241.958572 
	C140.803268,245.841110 138.372040,249.595352 135.940796,253.349594 
	C135.198257,253.063217 134.455704,252.776840 133.713165,252.490448 
	C134.147675,248.194595 134.114365,243.772202 135.226761,239.659714 
	C135.733963,237.784561 138.436157,236.435104 140.268646,235.008957 
	C141.623825,233.954269 143.252991,233.256500 144.637894,232.234207 
	C149.625641,228.552399 153.788208,229.687851 154.645782,235.699005 
	C151.582489,237.631454 148.847397,238.984543 146.112305,240.337631 
	C145.818863,239.978622 145.525436,239.619629 145.232010,239.260635 
	C145.173569,240.503510 145.115112,241.746384 145.056671,242.989258 
z"/>
<path fill="#8C51F3" opacity="1.000000" stroke="none" 
	d="
M319.996155,263.649841 
	C318.854706,265.058136 317.731750,266.116119 316.384857,267.385071 
	C314.416321,265.660583 312.507263,263.988220 310.301453,262.156677 
	C309.700226,260.041229 309.395721,258.084961 309.466400,255.575562 
	C311.359314,255.228668 312.877014,255.434891 314.410980,255.643311 
	C314.589233,254.249374 314.767395,252.856277 314.984192,251.160873 
	C317.434174,250.983765 319.688080,250.820816 321.942017,250.657867 
	C325.684296,255.540268 323.281616,259.485809 319.996155,263.649841 
z"/>
<path fill="#290F55" opacity="1.000000" stroke="none" 
	d="
M365.879517,254.965881 
	C365.704956,255.284164 365.541412,255.391144 365.107269,255.156189 
	C364.024109,253.433929 363.774963,251.324951 362.639221,250.594406 
	C360.554169,249.253311 357.793457,247.739746 355.591797,248.082047 
	C352.063416,248.630569 350.891937,252.290695 352.416595,255.040649 
	C353.511108,257.014801 356.687500,257.834625 358.935150,259.169434 
	C358.509338,260.008911 358.083527,260.848358 357.413605,261.829926 
	C354.912201,261.972046 352.654877,261.972046 350.050232,261.972046 
	C350.785339,258.919647 351.339783,255.273529 345.524445,254.506927 
	C349.263031,252.186417 351.602844,249.860870 347.251556,245.065048 
	C352.439636,247.107544 355.329956,246.025253 356.829590,241.598557 
	C358.979736,245.954544 361.793701,246.498810 366.408569,243.232010 
	C363.481537,248.603561 364.898193,251.026871 369.946136,251.650192 
	C368.220032,252.979538 367.137085,253.813553 365.879517,254.965881 
z"/>
<path fill="#8C51F3" opacity="1.000000" stroke="none" 
	d="
M145.029587,242.996124 
	C145.115112,241.746384 145.173569,240.503510 145.232010,239.260635 
	C145.525436,239.619629 145.818863,239.978622 146.112305,240.337631 
	C148.847397,238.984543 151.582489,237.631454 154.591858,236.080231 
	C158.326843,236.714264 159.725937,238.258209 157.227219,241.662064 
	C155.922577,243.439285 155.063690,245.543716 153.982590,247.890747 
	C151.232727,247.563370 148.503723,246.845612 145.393600,246.131851 
	C145.278519,245.609192 145.544556,245.082550 145.897034,243.974884 
	C145.655411,243.244919 145.327362,243.095947 144.999298,242.946991 
	C144.999298,242.946991 145.002502,243.002975 145.029587,242.996124 
z"/>
<path fill="#290E57" opacity="1.000000" stroke="none" 
	d="
M321.943939,250.274399 
	C319.688080,250.820816 317.434174,250.983765 314.984192,251.160873 
	C314.767395,252.856277 314.589233,254.249374 314.410980,255.643311 
	C312.877014,255.434891 311.359314,255.228668 309.471558,255.205658 
	C306.426544,251.629562 307.168701,249.513535 312.065399,246.938538 
	C316.691101,244.506027 321.058594,245.811081 321.943939,250.274399 
z"/>
<path fill="#724CAF" opacity="1.000000" stroke="none" 
	d="
M164.139404,256.279572 
	C163.996857,256.781281 163.800354,256.836121 163.303619,256.950134 
	C162.997635,245.301376 162.991882,233.593430 162.973083,221.411346 
	C163.072830,220.651093 163.242676,220.404266 163.651581,220.063141 
	C163.917480,231.897247 164.001450,243.865005 164.139404,256.279572 
z"/>
<path fill="#260C55" opacity="1.000000" stroke="none" 
	d="
M145.070099,243.199554 
	C145.327362,243.095947 145.655411,243.244919 145.990646,243.694672 
	C145.712189,243.814331 145.426544,243.633224 145.070099,243.199554 
z"/>
<path fill="#683BB7" opacity="1.000000" stroke="none" 
	d="
M301.084747,305.445801 
	C303.160767,306.289001 305.249969,308.654785 307.174896,308.527954 
	C310.271912,308.323883 312.958862,306.258057 312.340973,301.677979 
	C315.727386,301.085419 318.688568,300.999268 321.649750,300.913147 
	C325.128479,308.647430 328.984283,316.240387 331.954254,324.165314 
	C333.956055,329.506866 335.161072,335.257416 335.907196,340.932190 
	C336.922821,348.656616 337.160950,356.483246 337.329407,364.708984 
	C333.601410,365.402496 330.276489,365.653107 326.951538,365.903717 
	C325.950653,357.534698 324.612579,349.188477 324.045898,340.790131 
	C323.504822,332.770996 318.726105,327.191406 314.112183,320.239166 
	C308.657013,334.622314 303.523834,348.156403 297.692352,361.876465 
	C294.628265,361.225830 292.262482,360.389191 289.896729,359.552582 
	C293.605896,341.651611 297.315063,323.750641 301.084747,305.445801 
z"/>
<path fill="#2B1258" opacity="1.000000" stroke="none" 
	d="
M372.281128,318.859741 
	C373.729492,319.247162 374.799408,319.550934 376.595581,320.060883 
	C370.438232,323.640045 370.050537,324.870209 373.066559,331.041992 
	C367.484528,328.673523 364.066010,330.337555 363.016479,336.151947 
	C358.708649,330.179108 357.710388,329.871033 352.559692,333.079681 
	C352.559692,330.635193 353.195160,328.245972 352.378357,326.560577 
	C351.584503,324.922577 349.301544,324.006256 347.358490,322.535370 
	C350.674561,320.311584 355.046631,318.092285 349.691986,312.587769 
	C354.997894,313.665955 359.393250,313.494751 360.008545,305.634949 
	C362.619537,310.779877 364.420837,314.982300 369.108154,310.319458 
	C369.720612,310.983307 370.925201,312.161407 370.859894,312.236603 
	C368.561096,314.883392 370.561523,316.772430 372.281128,318.859741 
M355.284912,319.136780 
	C354.399414,323.237274 355.401245,326.549622 359.703552,327.830292 
	C363.145172,328.854675 366.119568,327.528748 367.553131,324.236176 
	C368.950867,321.025879 368.267273,317.833649 365.057495,316.004425 
	C361.340088,313.885925 358.040009,314.692200 355.284912,319.136780 
z"/>
<path fill="#9256F3" opacity="1.000000" stroke="none" 
	d="
M331.878387,290.965759 
	C335.052307,289.087280 338.632324,287.467041 342.078430,285.599640 
	C343.035522,285.081024 344.232544,283.815216 344.212036,282.917511 
	C344.161346,280.699341 342.774811,277.659180 346.018860,277.378082 
	C348.029419,277.203857 350.243469,279.378113 352.652405,280.984558 
	C352.326263,282.938477 351.713837,284.405945 351.101440,285.873444 
	C348.533661,287.627136 345.727386,289.119080 343.451111,291.192749 
	C339.536682,294.758789 335.953918,294.997070 331.878387,290.965759 
z"/>
<path fill="#FAEF24" opacity="1.000000" stroke="none" 
	d="
M296.650085,295.978760 
	C298.401703,298.727570 299.791992,301.534088 300.980957,304.615906 
	C298.211884,305.935364 295.699738,307.591949 293.058899,307.831787 
	C290.909027,308.027039 287.738800,307.179352 286.567902,305.627197 
	C284.706390,303.159668 286.432007,300.648621 289.133209,299.301941 
	C291.478180,298.132812 293.900574,297.118958 296.650085,295.978760 
z"/>
<path fill="#2D135B" opacity="1.000000" stroke="none" 
	d="
M326.733368,366.219452 
	C330.276489,365.653107 333.601410,365.402496 337.314789,365.127594 
	C340.653442,367.118439 343.603638,369.133575 346.553864,371.148712 
	C346.277374,371.820923 346.000885,372.493164 345.724365,373.165405 
	C341.268555,372.742401 336.811310,372.333069 332.359009,371.875671 
	C331.903961,371.828918 331.323578,371.198120 331.062042,371.335327 
	C323.791718,375.149384 326.414825,369.650604 326.733368,366.219452 
z"/>
<path fill="#290F55" opacity="1.000000" stroke="none" 
	d="
M289.608887,359.801666 
	C292.262482,360.389191 294.628265,361.225830 297.358643,362.038452 
	C300.395111,364.175476 303.066986,366.336456 306.216644,368.883881 
	C298.154816,372.359802 293.778137,367.029724 288.589813,364.767731 
	C288.218597,364.605896 289.049225,361.687469 289.608887,359.801666 
z"/>
<path fill="#6F44BB" opacity="1.000000" stroke="none" 
	d="
M351.523804,285.895813 
	C351.713837,284.405945 352.326263,282.938477 352.963928,281.119385 
	C355.969574,278.119324 358.768250,280.256287 361.579865,281.144501 
	C363.589142,281.779327 365.538483,282.604034 367.833313,283.606140 
	C368.111847,284.096375 368.075256,284.325012 368.018982,284.725586 
	C362.645874,285.237366 357.296051,285.577789 351.523804,285.895813 
z"/>
<path fill="#2C1359" opacity="1.000000" stroke="none" 
	d="
M321.721680,300.499756 
	C318.688568,300.999268 315.727386,301.085419 312.323669,301.288147 
	C311.572968,301.165588 311.264832,300.926422 310.812347,300.430359 
	C314.163666,298.497528 317.659332,296.821625 321.507324,295.127289 
	C321.837585,296.768036 321.815582,298.427185 321.721680,300.499756 
z"/>
<path fill="#FAF9FB" opacity="1.000000" stroke="none" 
	d="
M356.599365,196.856171 
	C356.886108,191.257294 357.403290,185.657990 358.304047,180.121063 
	C359.193787,174.652008 360.471313,169.246033 361.574860,163.831268 
	C367.184570,176.475174 372.682678,188.867477 378.298462,201.613739 
	C371.276733,200.272797 364.137268,198.577911 356.599365,196.856171 
z"/>
<path fill="#F4F2F7" opacity="1.000000" stroke="none" 
	d="
M218.119095,181.987366 
	C218.953705,175.509567 220.259201,169.053436 221.564697,162.597290 
	C222.281631,162.624176 222.998566,162.651047 223.715500,162.677917 
	C225.071793,168.815002 226.428070,174.952072 227.761841,181.467529 
	C224.689529,181.900299 221.639755,181.954666 218.119095,181.987366 
z"/>
<path fill="#683CB7" opacity="1.000000" stroke="none" 
	d="
M289.104523,99.986565 
	C288.660339,91.988213 282.741302,97.936348 279.395294,95.320320 
	C279.395294,100.688087 279.395294,105.053520 279.395294,109.997787 
	C281.664032,109.997787 283.841919,109.684120 285.871674,110.097580 
	C287.479279,110.425041 288.869781,111.720505 290.423004,112.443718 
	C291.682556,113.030197 293.028992,113.766083 294.357239,113.809212 
	C299.317719,113.970299 304.286591,113.873596 309.752625,113.873596 
	C309.752625,118.214577 309.752625,122.133514 309.752625,126.667198 
	C313.591370,126.848061 316.970215,127.007256 320.666687,127.181419 
	C320.666687,130.002991 320.666687,132.587784 320.666687,135.589813 
	C313.326263,135.589813 305.961182,135.589813 298.273010,135.589813 
	C298.273010,132.915024 298.273010,130.333389 298.273010,127.244499 
	C301.335541,127.064346 304.392273,126.884537 307.705688,126.689629 
	C307.705688,122.836777 307.705688,119.279640 307.705688,115.143219 
	C302.648956,115.143219 297.867981,115.136108 293.087128,115.153976 
	C292.597473,115.155807 291.785004,115.156822 291.666626,115.411346 
	C289.256042,120.594330 284.597839,118.840034 280.624634,118.970711 
	C276.344788,119.111481 272.056793,119.002525 267.467041,119.002525 
	C267.467041,115.886848 267.467041,113.313667 267.467041,110.257957 
	C270.475830,110.098137 273.384308,109.943642 276.821014,109.761093 
	C276.821014,104.702286 276.821014,99.789986 276.821014,94.840172 
	C284.305450,93.640526 291.271912,92.523903 298.845612,91.309952 
	C298.944000,89.297951 299.052734,87.075333 299.197083,84.124123 
	C293.761841,84.124123 287.297546,82.147202 283.878754,84.533493 
	C276.644012,89.583260 269.673431,85.352043 262.463684,87.496475 
	C262.463684,84.263397 262.463684,82.011726 262.463684,78.934494 
	C268.418518,78.934494 275.702911,76.758278 279.924438,79.427017 
	C286.851929,83.806374 293.676971,80.257378 300.777557,82.681236 
	C300.915253,85.185379 301.074860,88.087608 301.257996,91.417717 
	C303.705444,91.707481 306.104553,91.991516 308.409729,92.856087 
	C307.509735,95.871361 306.703705,98.306114 305.897644,100.740860 
	C300.919891,100.765694 295.942108,100.790543 290.379700,100.625351 
	C289.593140,100.242249 289.362976,100.092667 289.104523,99.986565 
z"/>
<path fill="#F2E52B" opacity="1.000000" stroke="none" 
	d="
M322.065552,107.959610 
	C324.665161,103.929840 326.719086,104.147278 328.781250,107.975288 
	C329.710144,109.699532 331.467804,110.977295 332.998474,112.792274 
	C331.868134,114.441101 330.588715,115.755280 329.053711,117.321884 
	C324.988068,115.620354 321.846741,113.189346 322.065552,107.959610 
z"/>
<path fill="#8E59E8" opacity="1.000000" stroke="none" 
	d="
M306.259583,100.823181 
	C306.703705,98.306114 307.509735,95.871361 308.590454,93.223740 
	C310.295227,93.336029 311.725342,93.661194 313.536957,94.013733 
	C313.156464,96.862495 312.394440,99.683899 311.663422,102.829849 
	C310.003448,102.404770 308.312439,101.655128 306.259583,100.823181 
z"/>
<path fill="#8E59E8" opacity="1.000000" stroke="none" 
	d="
M289.165466,100.211082 
	C289.362976,100.092667 289.593140,100.242249 289.916565,100.600250 
	C289.690765,100.844299 289.420197,100.734444 289.165466,100.211082 
z"/>
<path fill="#290E57" opacity="1.000000" stroke="none" 
	d="
M157.108398,107.265915 
	C154.793839,104.716431 152.646820,102.501053 150.192657,100.143776 
	C144.776840,91.021095 142.967194,81.755707 147.567825,71.984039 
	C153.139771,60.149307 166.168121,53.690037 178.521103,56.594688 
	C191.928772,59.747330 199.607620,70.187775 200.217072,83.822914 
	C200.760910,95.990341 191.320984,110.586655 172.998459,111.701881 
	C167.859879,112.014641 162.522263,109.057350 157.108398,107.265915 
M160.988968,95.995758 
	C160.988968,95.995758 160.925735,96.047592 160.665558,96.754227 
	C166.365082,102.103752 172.879913,103.053696 179.959488,100.083809 
	C186.617065,97.290970 189.455765,92.251648 188.408615,85.015007 
	C188.149506,83.224373 188.180679,81.340401 188.406830,79.540596 
	C189.062454,74.322502 186.362320,71.063644 182.294006,68.528114 
	C173.886505,63.288246 162.663254,65.900261 157.385773,74.258400 
	C152.710480,81.662804 154.855789,93.995461 160.988968,95.995758 
z"/>
<path fill="#6D42BA" opacity="1.000000" stroke="none" 
	d="
M215.125336,92.634888 
	C215.122192,82.710663 215.122192,73.247078 215.122192,63.374882 
	C217.201660,63.374882 218.883011,63.374882 220.846542,63.374882 
	C220.846542,74.117577 220.846542,84.672058 220.846542,95.617363 
	C218.388153,95.415848 215.447083,97.591171 215.125336,92.634888 
z"/>
<path fill="#683BB7" opacity="1.000000" stroke="none" 
	d="
M207.533051,67.583931 
	C207.808289,77.025574 207.808289,86.101959 207.808289,95.555176 
	C205.947067,95.655121 204.371185,95.739738 202.366882,95.847374 
	C202.366882,86.166725 202.366882,76.841377 202.366882,66.998581 
	C204.099533,67.076546 205.678680,67.147606 207.533051,67.583931 
z"/>
<path fill="#6B3FB9" opacity="1.000000" stroke="none" 
	d="
M224.085449,52.749962 
	C221.272675,55.758999 217.953491,56.944962 215.007050,54.616299 
	C213.277527,53.249374 211.991394,50.136253 212.147903,47.924797 
	C212.285202,45.984478 214.376038,43.279430 216.219391,42.612114 
	C218.133255,41.919270 222.003342,42.521858 222.841675,43.890728 
	C224.238937,46.172276 223.901505,49.516193 224.085449,52.749962 
M220.429535,50.872955 
	C220.091858,48.960655 219.754166,47.048351 219.416489,45.136051 
	C218.854660,45.037640 218.292816,44.939224 217.730988,44.840813 
	C217.320160,46.941235 216.909332,49.041656 216.498505,51.142078 
	C217.679031,51.223118 218.859543,51.304153 220.429535,50.872955 
z"/>
<path fill="#F4F2F7" opacity="1.000000" stroke="none" 
	d="
M112.921356,184.978119 
	C121.741669,176.623749 123.335770,165.637772 122.799156,153.915741 
	C123.253098,153.884964 123.707031,153.854202 124.160965,153.823441 
	C125.289268,159.972916 127.015480,166.085281 127.400177,172.280930 
	C127.925125,180.735382 127.428047,189.253281 127.320038,198.155823 
	C127.367004,194.286530 127.402580,190.002914 127.579132,185.725128 
	C127.709122,182.575272 126.430679,181.485321 123.370750,182.348572 
	C120.046814,183.286316 116.692070,184.114899 112.921356,184.978119 
z"/>
<path fill="#B38FF1" opacity="1.000000" stroke="none" 
	d="
M122.003342,105.805389 
	C124.475983,109.874962 126.710075,114.041573 129.053497,118.548416 
	C127.985390,120.152946 126.807953,121.417259 125.332169,122.800568 
	C123.669579,117.459969 122.305344,112.000366 121.097069,106.250595 
	C121.423615,105.941101 121.594208,105.921768 122.003342,105.805389 
z"/>
<path fill="#FFFFFF" opacity="1.000000" stroke="none" 
	d="
M226.387405,133.364426 
	C226.617737,133.652924 226.618622,134.185242 226.619476,134.717560 
	C226.465637,134.347794 226.311798,133.978027 226.387405,133.364426 
z"/>
<path fill="#321761" opacity="1.000000" stroke="none" 
	d="
M149.123627,351.078064 
	C151.638382,351.382599 153.852707,351.936279 152.758835,355.102509 
	C147.329819,355.102509 142.012558,355.102509 136.035995,355.102509 
	C136.485168,352.975464 136.975647,350.652863 138.082977,348.120911 
	C142.174423,348.967102 145.649017,350.022583 149.123627,351.078064 
z"/>
<path fill="#280D57" opacity="1.000000" stroke="none" 
	d="
M171.983414,354.251801 
	C172.664047,355.211548 173.344696,356.171265 174.025330,357.131042 
	C173.058136,357.572968 172.046982,358.465149 171.131668,358.375793 
	C167.881485,358.058380 164.664032,357.406342 160.697159,356.761230 
	C160.699860,356.759399 159.537369,357.547729 158.374878,358.336060 
	C157.806824,357.116852 156.992004,355.946075 156.740738,354.664734 
	C156.494049,353.406708 156.820068,352.036346 157.326172,350.399689 
	C162.499527,351.473328 167.241470,352.862549 171.983414,354.251801 
z"/>
<path fill="#874DEC" opacity="1.000000" stroke="none" 
	d="
M171.735504,354.076172 
	C167.241470,352.862549 162.499527,351.473328 157.405045,350.040466 
	C157.058090,348.860107 157.063675,347.723297 157.083038,346.158875 
	C159.126633,345.669525 161.156479,345.607788 163.628845,345.557800 
	C164.061859,346.279572 164.052338,346.989655 164.065277,348.051178 
	C166.554352,350.235260 169.020966,352.067902 171.735504,354.076172 
z"/>
<path fill="#8C51F3" opacity="1.000000" stroke="none" 
	d="
M148.936600,350.750916 
	C145.649017,350.022583 142.174423,348.967102 138.337296,347.839233 
	C138.032120,346.477692 138.089493,345.188477 138.196838,343.513611 
	C140.651550,343.505157 143.056305,343.882385 145.785004,344.409760 
	C146.989166,346.514526 147.869370,348.469116 148.936600,350.750916 
z"/>
<path fill="#47277E" opacity="1.000000" stroke="none" 
	d="
M226.133636,271.877747 
	C224.603378,270.580505 223.299301,269.192169 222.212463,267.309021 
	C223.305023,265.922668 224.180359,265.031128 225.055679,264.139587 
	C225.970078,265.482269 226.884491,266.824951 227.899506,268.535278 
	C227.453369,269.864227 226.906586,270.825470 226.133636,271.877747 
z"/>
<path fill="#BB97F8" opacity="1.000000" stroke="none" 
	d="
M172.582275,251.376495 
	C172.173218,240.731476 172.088470,230.416260 172.026138,220.100922 
	C172.022324,219.468704 172.195709,218.835419 172.376511,217.577255 
	C190.046234,218.367111 207.578186,219.150818 225.448273,219.949631 
	C225.448273,231.627075 225.448273,242.989517 225.448273,254.760056 
	C207.689285,253.727783 190.300461,252.717026 172.582275,251.376495 
M209.871750,222.786453 
	C209.803024,222.738647 209.734283,222.690826 209.665543,222.643021 
	C209.786896,222.755096 209.908249,222.867157 210.034821,223.915695 
	C210.054276,226.725464 210.217392,229.544220 210.042328,232.341812 
	C209.926941,234.185547 209.859589,236.406784 208.837357,237.747101 
	C206.078644,241.364227 206.251083,244.659592 211.298584,248.914810 
	C211.852829,245.426315 212.722198,242.759933 212.590073,240.144150 
	C212.379425,235.974411 211.524536,231.834946 210.895340,227.689758 
	C210.657959,226.125824 210.290527,224.581619 209.871750,222.786453 
M178.871750,222.786469 
	C178.803009,222.738647 178.734283,222.690826 178.665543,222.643021 
	C178.786896,222.755096 178.908249,222.867157 179.034546,223.910965 
	C178.655762,227.889114 179.439758,232.568085 177.580048,235.653656 
	C175.613632,238.916290 175.993546,241.336243 176.882156,244.211990 
	C177.312515,245.604736 178.308273,246.822784 179.131409,248.266098 
	C184.866226,239.869232 178.760498,231.434967 178.871750,222.786469 
M218.500107,227.980042 
	C218.657684,234.689102 218.815262,241.398163 218.972855,248.107224 
	C219.446609,248.076797 219.920380,248.046387 220.394135,248.015961 
	C221.390976,239.651169 225.383087,231.290039 219.754486,222.698135 
	C219.452988,224.286194 219.169464,225.779602 218.500107,227.980042 
M191.884445,234.915482 
	C190.934982,230.954376 189.985519,226.993256 189.083466,223.229935 
	C185.324036,232.441315 185.467056,242.278778 189.660614,248.134460 
	C190.431946,243.927582 191.178970,239.853317 191.884445,234.915482 
M200.255386,235.274139 
	C200.702774,231.776398 201.255508,228.285706 201.490646,224.773758 
	C201.528458,224.209045 200.115906,223.029617 199.434082,223.073395 
	C198.684814,223.121506 197.397903,224.253601 197.396011,224.916428 
	C197.385422,228.619263 195.234894,232.844666 200.255386,235.274139 
z"/>
<path fill="#673CB4" opacity="1.000000" stroke="none" 
	d="
M359.230957,258.955688 
	C356.687500,257.834625 353.511108,257.014801 352.416595,255.040649 
	C350.891937,252.290695 352.063416,248.630569 355.591797,248.082047 
	C357.793457,247.739746 360.554169,249.253311 362.639221,250.594406 
	C363.774963,251.324951 364.024109,253.433929 365.021729,255.108932 
	C363.422455,256.445099 361.474609,257.593506 359.230957,258.955688 
z"/>
<path fill="#724CAF" opacity="1.000000" stroke="none" 
	d="
M376.726379,260.071014 
	C376.205994,260.951935 375.444122,262.194427 374.377319,262.569489 
	C371.015228,263.751465 371.911865,265.412994 373.487762,267.343842 
	C381.060089,264.962280 385.297180,268.853973 383.373413,276.847961 
	C383.105591,275.658264 383.105591,274.224609 383.105591,272.136566 
	C376.011444,273.409912 369.194763,274.219116 368.679657,263.399902 
	C370.842560,262.450653 373.593964,261.243164 376.726379,260.071014 
z"/>
<path fill="#683BB7" opacity="1.000000" stroke="none" 
	d="
M329.868225,280.121613 
	C330.088409,279.662842 330.685272,279.243774 331.645813,278.901855 
	C331.421295,279.373108 330.833099,279.767212 329.868225,280.121613 
z"/>
<path fill="#8E51F5" opacity="1.000000" stroke="none" 
	d="
M176.174850,272.869507 
	C175.815353,271.220856 175.834702,269.571259 176.245453,267.482422 
	C178.731293,266.376038 180.825729,265.708954 183.365860,265.021545 
	C185.896408,264.994019 187.981293,264.986816 190.066162,264.979584 
	C190.066162,264.979584 190.011826,265.005981 190.007568,265.383301 
	C189.996262,266.846710 189.989243,267.932800 189.982208,269.018860 
	C187.595215,270.680969 185.208206,272.343109 183.793747,273.328033 
	C181.037369,273.153137 178.795532,273.010864 176.174850,272.869507 
z"/>
<path fill="#6D42BA" opacity="1.000000" stroke="none" 
	d="
M207.302246,266.218079 
	C207.233994,266.947479 207.025375,267.709808 207.004929,267.704773 
	C203.664520,266.885681 200.337601,266.011444 196.818695,265.089264 
	C199.100830,260.265015 203.568420,262.436737 207.771698,262.335327 
	C207.567429,263.727509 207.408585,264.810089 207.302246,266.218079 
z"/>
<path fill="#6F44BB" opacity="1.000000" stroke="none" 
	d="
M190.024826,269.358307 
	C189.989243,267.932800 189.996262,266.846710 190.012360,265.353485 
	C190.540833,266.027527 191.060242,267.108704 191.693375,268.426636 
	C194.462173,268.426636 197.455597,268.426636 200.599426,269.000000 
	C200.040405,270.444092 199.330994,271.314880 198.621582,272.185608 
	C196.347641,272.123810 194.048065,272.232697 191.815277,271.897064 
	C191.137787,271.795227 190.644882,270.465240 190.024826,269.358307 
z"/>
<path fill="#6B3FB9" opacity="1.000000" stroke="none" 
	d="
M218.253998,274.238098 
	C214.555862,274.220917 211.179153,273.984863 207.659164,273.738800 
	C210.266983,270.237000 215.773239,268.918335 218.888596,271.084564 
	C219.276733,271.354462 218.703308,273.007263 218.253998,274.238098 
z"/>
<path fill="#8E51F5" opacity="1.000000" stroke="none" 
	d="
M173.394135,264.155212 
	C173.265137,263.041962 173.136139,261.928711 173.013885,260.391663 
	C176.503662,260.272583 179.986694,260.577332 183.690964,261.364716 
	C182.260254,262.577057 180.608307,263.306763 178.557922,264.024994 
	C176.571045,264.060760 174.982590,264.107971 173.394135,264.155212 
z"/>
<path fill="#6D42BA" opacity="1.000000" stroke="none" 
	d="
M178.956345,264.036469 
	C180.608307,263.306763 182.260254,262.577057 184.023117,261.526367 
	C185.595169,261.179108 187.205536,260.770691 188.464386,261.262360 
	C189.288727,261.584290 189.604233,263.209137 190.106903,264.615021 
	C187.981293,264.986816 185.896408,264.994019 183.009216,264.991577 
	C181.123383,264.666748 180.039871,264.351624 178.956345,264.036469 
z"/>
<path fill="#6B3FB9" opacity="1.000000" stroke="none" 
	d="
M224.650696,264.049408 
	C224.180359,265.031128 223.305023,265.922668 222.141144,266.944489 
	C219.232452,267.074799 216.612335,267.074799 213.833099,267.074799 
	C215.962784,263.469421 215.962784,263.469421 224.650696,264.049408 
z"/>
<path fill="#321761" opacity="1.000000" stroke="none" 
	d="
M198.721588,272.523071 
	C199.330994,271.314880 200.040405,270.444092 200.891068,269.269043 
	C204.800018,271.706085 203.984985,274.207306 200.306000,276.846619 
	C199.780838,275.436371 199.301224,274.148468 198.721588,272.523071 
z"/>
<path fill="#BA98F6" opacity="1.000000" stroke="none" 
	d="
M388.859924,296.458923 
	C387.240601,300.781036 384.417633,303.675385 380.176147,302.933533 
	C377.420441,302.451599 373.805878,300.540070 372.771332,298.268982 
	C371.645844,295.798248 372.289124,291.802521 373.559235,289.138062 
	C375.225037,285.643494 379.398499,284.590179 382.649628,286.211517 
	C385.245239,287.505951 386.990631,290.635376 388.878479,293.128235 
	C389.355743,293.758453 388.935425,295.068481 388.859924,296.458923 
z"/>
<path fill="#BA98F6" opacity="1.000000" stroke="none" 
	d="
M416.171143,312.992920 
	C414.979553,318.877319 411.931091,321.215820 407.374756,320.145691 
	C403.267334,319.181000 400.914825,315.175781 402.019867,311.028717 
	C403.015167,307.293427 407.378937,304.506592 410.902710,306.283875 
	C413.147095,307.415894 414.445465,310.423615 416.171143,312.992920 
z"/>
<path fill="#B38FF1" opacity="1.000000" stroke="none" 
	d="
M178.557922,264.024994 
	C180.039871,264.351624 181.123383,264.666748 182.563538,265.011871 
	C180.825729,265.708954 178.731293,266.376038 176.232330,267.069641 
	C173.190704,266.860077 170.553574,266.624084 167.916458,266.388062 
	C167.920959,266.192200 167.925446,265.996368 167.929947,265.800507 
	C169.580231,265.452515 171.230515,265.104523 173.137466,264.455872 
	C174.982590,264.107971 176.571045,264.060760 178.557922,264.024994 
z"/>
<path fill="#673CB4" opacity="1.000000" stroke="none" 
	d="
M392.289673,267.993134 
	C385.915222,266.072998 382.363129,262.401276 382.455231,257.429779 
	C382.540497,252.826202 384.827637,249.171082 389.064240,247.142090 
	C393.412292,245.059692 397.399719,245.984100 400.907501,249.223801 
	C404.578033,252.613800 405.730743,256.656891 403.757660,261.298492 
	C401.712219,266.110321 397.857086,268.197357 392.289673,267.993134 
z"/>
<path fill="#BA98F6" opacity="1.000000" stroke="none" 
	d="
M355.477234,318.786194 
	C358.040009,314.692200 361.340088,313.885925 365.057495,316.004425 
	C368.267273,317.833649 368.950867,321.025879 367.553131,324.236176 
	C366.119568,327.528748 363.145172,328.854675 359.703552,327.830292 
	C355.401245,326.549622 354.399414,323.237274 355.477234,318.786194 
z"/>
<path fill="#BB98F7" opacity="1.000000" stroke="none" 
	d="
M160.947495,96.063843 
	C154.855789,93.995461 152.710480,81.662804 157.385773,74.258400 
	C162.663254,65.900261 173.886505,63.288246 182.294006,68.528114 
	C186.362320,71.063644 189.062454,74.322502 188.406830,79.540596 
	C188.180679,81.340401 188.149506,83.224373 188.408615,85.015007 
	C189.455765,92.251648 186.617065,97.290970 179.959488,100.083809 
	C172.879913,103.053696 166.365082,102.103752 161.218781,96.340660 
	C167.516602,95.526390 168.012527,94.293762 166.285461,84.348190 
	C164.643265,84.348190 162.964828,84.348190 160.947495,84.348190 
	C160.947495,88.505859 160.947495,92.284851 160.947495,96.063843 
M174.511124,78.287453 
	C174.384796,83.061546 174.046646,87.846329 174.286835,92.601913 
	C174.344116,93.736328 176.332062,94.773232 177.432022,95.854980 
	C178.332870,94.645325 179.883270,93.499969 180.010574,92.213753 
	C180.366882,88.614021 179.973358,84.946938 180.178085,81.323509 
	C180.410645,77.206863 178.620743,76.332214 174.511124,78.287453 
z"/>
<path fill="#B38FF1" opacity="1.000000" stroke="none" 
	d="
M220.234802,51.129074 
	C218.859543,51.304153 217.679031,51.223118 216.498505,51.142078 
	C216.909332,49.041656 217.320160,46.941235 217.730988,44.840813 
	C218.292816,44.939224 218.854660,45.037640 219.416489,45.136051 
	C219.754166,47.048351 220.091858,48.960655 220.234802,51.129074 
z"/>
<path fill="#794EC5" opacity="1.000000" stroke="none" 
	d="
M218.693024,227.626526 
	C219.169464,225.779602 219.452988,224.286194 219.754486,222.698135 
	C225.383087,231.290039 221.390976,239.651169 220.394135,248.015961 
	C219.920380,248.046387 219.446609,248.076797 218.972855,248.107224 
	C218.815262,241.398163 218.657684,234.689102 218.693024,227.626526 
z"/>
<path fill="#794EC5" opacity="1.000000" stroke="none" 
	d="
M191.905212,235.347275 
	C191.178970,239.853317 190.431946,243.927582 189.660614,248.134460 
	C185.467056,242.278778 185.324036,232.441315 189.083466,223.229935 
	C189.985519,226.993256 190.934982,230.954376 191.905212,235.347275 
z"/>
<path fill="#794EC5" opacity="1.000000" stroke="none" 
	d="
M178.982376,223.028427 
	C178.760498,231.434967 184.866226,239.869232 179.131409,248.266098 
	C178.308273,246.822784 177.312515,245.604736 176.882156,244.211990 
	C175.993546,241.336243 175.613632,238.916290 177.580048,235.653656 
	C179.439758,232.568085 178.655762,227.889114 179.018448,223.455688 
	C179.002350,223.000412 178.982376,223.028427 178.982376,223.028427 
z"/>
<path fill="#794EC5" opacity="1.000000" stroke="none" 
	d="
M209.982376,223.028427 
	C210.290527,224.581619 210.657959,226.125824 210.895340,227.689758 
	C211.524536,231.834946 212.379425,235.974411 212.590073,240.144150 
	C212.722198,242.759933 211.852829,245.426315 211.298584,248.914810 
	C206.251083,244.659592 206.078644,241.364227 208.837357,237.747101 
	C209.859589,236.406784 209.926941,234.185547 210.042328,232.341812 
	C210.217392,229.544220 210.054276,226.725464 210.018585,223.458054 
	C210.002350,223.000412 209.982376,223.028427 209.982376,223.028427 
z"/>
<path fill="#6B3FB9" opacity="1.000000" stroke="none" 
	d="
M199.916336,235.471436 
	C195.234894,232.844666 197.385422,228.619263 197.396011,224.916428 
	C197.397903,224.253601 198.684814,223.121506 199.434082,223.073395 
	C200.115906,223.029617 201.528458,224.209045 201.490646,224.773758 
	C201.255508,228.285706 200.702774,231.776398 199.916336,235.471436 
z"/>
<path fill="#794EC5" opacity="1.000000" stroke="none" 
	d="
M210.015976,222.989822 
	C209.908249,222.867157 209.786896,222.755096 209.665543,222.643005 
	C209.734283,222.690826 209.803024,222.738647 209.927063,222.907440 
	C209.982376,223.028427 210.002350,223.000412 210.015976,222.989822 
z"/>
<path fill="#794EC5" opacity="1.000000" stroke="none" 
	d="
M179.015976,222.989822 
	C178.908249,222.867157 178.786896,222.755096 178.665543,222.643021 
	C178.734283,222.690826 178.803009,222.738647 178.927063,222.907440 
	C178.982376,223.028427 179.002350,223.000412 179.015976,222.989822 
z"/>
<path fill="#6F44BB" opacity="1.000000" stroke="none" 
	d="
M174.800369,77.965141 
	C178.620743,76.332214 180.410645,77.206863 180.178085,81.323509 
	C179.973358,84.946938 180.366882,88.614021 180.010574,92.213753 
	C179.883270,93.499969 178.332870,94.645325 177.432022,95.854980 
	C176.332062,94.773232 174.344116,93.736328 174.286835,92.601913 
	C174.046646,87.846329 174.384796,83.061546 174.800369,77.965141 
z"/>
<path fill="#6F44BB" opacity="1.000000" stroke="none" 
	d="
M160.968231,96.029800 
	C160.947495,92.284851 160.947495,88.505859 160.947495,84.348190 
	C162.964828,84.348190 164.643265,84.348190 166.285461,84.348190 
	C168.012527,94.293762 167.516602,95.526390 161.348877,95.987343 
	C160.925735,96.047592 160.988968,95.995758 160.968231,96.029800 
z"/>
</svg>