<svg version="1.1" id="Layer_1" xmlns="http://www.w3.org/2000/svg" xmlns:xlink="http://www.w3.org/1999/xlink" x="0px" y="0px"
	 width="100%" viewBox="0 0 500 500" enable-background="new 0 0 500 500" xml:space="preserve">
<path opacity="0" stroke="none"
	d="
M276.000000,501.000000
	C184.000015,501.000000 92.500046,501.000000 1.000049,501.000000
	C1.000033,334.333405 1.000033,167.666794 1.000016,1.000139
	C167.666565,1.000092 334.333130,1.000092 500.999756,1.000046
	C500.999847,167.666519 500.999847,334.333038 500.999939,500.999786
	C426.166656,501.000000 351.333344,501.000000 276.000000,501.000000
M61.693932,448.268311
	C62.786400,448.443329 63.920162,448.903351 64.965324,448.751923
	C95.009979,444.398743 125.054558,440.043060 155.077927,435.546082
	C164.876755,434.078430 164.739029,433.896484 164.896729,423.777496
	C164.974960,418.757507 165.546631,413.745178 166.475067,409.132599
	C176.661469,416.109497 186.847870,423.086426 197.517288,430.570740
	C295.186951,416.347351 392.856628,402.123932 490.692078,387.876404
	C490.816650,386.544891 490.985168,385.580139 490.985748,384.615265
	C491.000793,359.632385 491.011810,334.649506 490.958038,309.666748
	C490.955414,308.451904 490.356812,307.238403 489.787567,305.387207
	C454.840820,280.920380 419.894043,256.453522 385.440979,231.351761
	C388.062683,230.936279 390.687592,230.540100 393.305389,230.101318
	C398.856934,229.170807 400.823120,227.078461 400.827087,221.510864
	C400.863831,170.138428 400.891876,118.765785 400.700439,67.394028
	C400.692261,65.193222 398.516449,63.000477 397.142212,60.277946
	C395.345734,58.542885 393.726349,56.549187 391.694366,55.158169
	C390.186859,54.126198 388.038177,53.144192 386.354431,53.386429
	C347.489075,58.977848 308.647644,64.735405 269.803253,70.472282
	C230.301819,76.306198 190.806793,82.183617 151.297241,87.961914
	C143.911453,89.042099 142.133331,90.793381 142.132385,98.202522
	C142.126022,147.367035 142.289291,196.532623 141.958252,245.694901
	C141.908997,253.008789 143.928177,258.188843 150.387466,262.356812
	C150.479294,263.057678 150.571106,263.758514 149.822571,264.598450
	C129.618317,267.538086 109.414047,270.477722 88.972778,273.451813
	C88.972778,284.928223 88.972778,296.048706 88.294662,307.547668
	C64.985710,311.022980 41.689510,314.588226 18.357437,317.900726
	C13.468832,318.594757 11.275013,320.903015 11.277703,325.698547
	C11.293570,353.977203 11.250864,382.255981 11.372389,410.534088
	C11.379057,412.085846 12.248751,414.254913 13.446086,415.086548
	C29.262520,426.072083 45.209923,436.869080 61.693932,448.268311
z"/>
<path fill="#250B53" opacity="1.000000" stroke="none"
	d="
M88.972778,307.169189
	C88.972778,296.048706 88.972778,284.928223 88.972778,273.451813
	C109.414047,270.477722 129.618317,267.538086 150.685318,264.704041
	C163.384186,263.355255 175.237228,262.025146 187.052399,260.416870
	C204.146149,258.090057 221.212479,255.561813 238.265396,253.577789
	C238.240295,258.625854 238.240295,263.215668 238.240295,267.693878
	C221.068863,270.220612 204.702591,272.628876 188.233902,275.052216
	C188.233902,280.220428 188.707947,284.768524 188.124481,289.176666
	C187.215012,296.047913 190.605530,300.039978 196.242264,303.400574
	C206.679428,302.344086 216.869858,301.167847 227.016083,299.688354
	C253.254654,295.862244 279.475677,291.915649 305.699799,287.990753
	C320.778351,285.733978 335.856232,283.469818 350.911499,281.065582
	C352.267181,280.849121 354.547760,279.578766 354.548035,278.797211
	C354.550232,272.212128 354.120941,265.626923 353.763153,258.707886
	C350.425934,256.235992 349.049255,251.244522 343.766571,252.088120
	C330.832581,254.153503 317.877197,256.084961 304.894897,257.599701
	C304.859375,252.552017 304.859375,247.974976 304.859375,243.204193
	C319.412262,241.061722 333.275665,238.946533 347.162506,236.998291
	C359.744171,235.233170 372.351349,233.650040 384.947296,231.986679
	C419.894043,256.453522 454.840820,280.920380 489.540527,305.860229
	C462.986084,310.225433 436.681915,314.139984 410.370331,318.004059
	C379.610229,322.521423 348.843811,326.995880 318.079865,331.486938
	C289.454254,335.665894 260.827698,339.838440 232.202698,344.021393
	C220.578186,345.720032 208.956619,347.438751 197.034271,349.192383
	C197.034271,376.462769 197.034271,403.263031 197.034271,430.063324
	C186.847870,423.086426 176.661469,416.109497 166.041458,408.564941
	C165.376938,406.044922 164.950760,404.093140 164.945435,402.140198
	C164.894623,383.494629 164.864258,364.848633 164.959290,346.203369
	C164.977554,342.621643 164.001221,340.032318 160.177643,338.651398
	C153.096985,333.852905 146.184799,329.368988 139.228790,324.458588
	C138.740524,321.008972 138.296082,317.985870 137.851624,314.962769
	C137.389389,315.009644 136.927139,315.056488 136.464890,315.103333
	C135.756134,316.145203 135.047363,317.187042 134.827301,317.510529
	C132.801697,317.372314 131.411987,317.277527 129.699356,317.047607
	C125.155235,313.978638 120.726562,311.296417 116.773148,308.037628
	C113.071358,304.986237 109.232132,304.537231 104.734581,305.295746
	C99.523552,306.174591 94.230324,306.566101 88.972778,307.169189
z"/>
<path fill="#683CB6" opacity="1.000000" stroke="none"
	d="
M385.194153,231.669220
	C372.351349,233.650040 359.744171,235.233170 347.162506,236.998291
	C333.275665,238.946533 319.412262,241.061722 304.859375,243.204193
	C304.859375,247.974976 304.859375,252.552017 304.873901,258.045593
	C304.888458,261.226166 304.888458,263.490204 304.888458,266.419830
	C321.625031,263.896301 337.723206,261.469025 353.821411,259.041748
	C354.120941,265.626923 354.550232,272.212128 354.548035,278.797211
	C354.547760,279.578766 352.267181,280.849121 350.911499,281.065582
	C335.856232,283.469818 320.778351,285.733978 305.699799,287.990753
	C279.475677,291.915649 253.254654,295.862244 227.016083,299.688354
	C216.869858,301.167847 206.679428,302.344086 196.264221,302.920471
	C196.019302,295.581207 196.019302,288.979950 196.019302,282.401672
	C213.059464,279.894318 229.417068,277.487366 245.826630,275.072784
	C245.826630,267.158936 245.826630,259.711273 245.826630,252.030350
	C243.163345,252.415268 240.726913,252.767380 238.290497,253.119507
	C221.212479,255.561813 204.146149,258.090057 187.052399,260.416870
	C175.237228,262.025146 163.384186,263.355255 151.105499,264.634521
	C150.571106,263.758514 150.479294,263.057678 150.194672,261.684204
	C150.002106,209.026779 150.000793,157.041946 150.004349,105.057121
	C150.004822,98.259712 151.392242,96.455864 157.959686,95.345657
	C163.356201,94.433395 168.802322,93.818130 174.219330,93.022758
	C193.587143,90.179031 212.950348,87.303955 232.318283,84.460983
	C253.823914,81.304222 275.333344,78.173271 296.840149,75.024361
	C318.342987,71.876030 339.836395,68.662437 361.349884,65.588768
	C373.333313,63.876675 385.349152,62.391445 397.350403,60.803978
	C398.516449,63.000477 400.692261,65.193222 400.700439,67.394028
	C400.891876,118.765785 400.863831,170.138428 400.827087,221.510864
	C400.823120,227.078461 398.856934,229.170807 393.305389,230.101318
	C390.687592,230.540100 388.062683,230.936279 385.194153,231.669220
M392.523071,217.445740
	C392.681976,216.311050 392.979218,215.176422 392.979828,214.041641
	C393.003357,169.127014 393.007599,124.212372 392.964844,79.297775
	C392.963501,77.877777 392.441986,76.458275 391.734802,74.338387
	C378.638306,76.076408 365.527924,77.717072 352.448761,79.576843
	C335.728394,81.954369 319.035919,84.527061 302.326447,86.981888
	C282.660858,89.871010 262.989716,92.722168 243.321426,95.593071
	C224.149231,98.391556 204.975906,101.182350 185.806564,104.000237
	C176.873215,105.313416 167.948135,106.682602 159.371185,107.973450
	C159.371185,156.459656 159.371185,204.146103 159.371185,251.964233
	C170.971436,250.264542 182.107819,248.632278 193.244370,247.001236
	C210.287704,244.505051 227.331604,242.012955 244.374390,239.513092
	C261.416809,237.013306 278.458313,234.507599 295.499817,232.001709
	C312.537567,229.496384 329.572021,226.968140 346.613190,224.486160
	C361.694183,222.289673 376.782440,220.143021 392.523071,217.445740
z"/>
<path fill="#8E50F9" opacity="1.000000" stroke="none"
	d="
M197.275787,430.317017
	C197.034271,403.263031 197.034271,376.462769 197.034271,349.192383
	C208.956619,347.438751 220.578186,345.720032 232.202698,344.021393
	C260.827698,339.838440 289.454254,335.665894 318.079865,331.486938
	C348.843811,326.995880 379.610229,322.521423 410.370331,318.004059
	C436.681915,314.139984 462.986084,310.225433 489.664612,306.178772
	C490.356812,307.238403 490.955414,308.451904 490.958038,309.666748
	C491.011810,334.649506 491.000793,359.632385 490.985748,384.615265
	C490.985168,385.580139 490.816650,386.544891 490.692078,387.876404
	C392.856628,402.123932 295.186951,416.347351 197.275787,430.317017
M479.633301,380.448700
	C479.633301,363.470428 479.633301,346.492157 479.633301,329.066833
	C477.932037,329.066833 476.481049,329.066833 474.186798,329.027435
	C463.230865,330.675598 452.278839,332.350281 441.318054,333.965485
	C426.101562,336.207825 410.876160,338.389771 395.658813,340.626434
	C376.838593,343.392670 358.028503,346.227997 339.203339,348.959930
	C322.014496,351.454346 304.804840,353.805511 287.616302,356.301910
	C267.976471,359.154327 248.337372,362.016693 228.724396,365.046021
	C222.089066,366.070892 215.534378,367.617706 208.364883,369.542755
	C208.364883,386.806915 208.364883,404.071075 208.364883,421.437683
	C209.064270,421.437683 209.551086,421.499054 210.018112,421.428772
	C226.209869,418.992432 242.394958,416.511505 258.591248,414.105896
	C274.457794,411.749298 290.330292,409.431519 306.209717,407.163635
	C320.946594,405.058960 335.706146,403.111572 350.437225,400.968109
	C365.164398,398.825165 379.861633,396.477295 394.584869,394.306366
	C411.438904,391.821259 428.314728,389.483429 445.166351,386.982483
	C455.796906,385.404846 466.400482,383.645599 477.616913,381.954102
	C478.079987,381.638916 478.543091,381.323730 479.633301,380.448700
z"/>
<path fill="#8F52F9" opacity="1.000000" stroke="none"
	d="
M88.633720,307.358429
	C94.230324,306.566101 99.523552,306.174591 104.734581,305.295746
	C109.232132,304.537231 113.071358,304.986237 116.773148,308.037628
	C120.726562,311.296417 125.155235,313.978638 129.705627,317.358093
	C128.758698,317.988556 127.482567,318.173462 125.189575,318.505707
	C125.244225,318.435150 124.456604,319.451660 123.372429,320.850922
	C122.668938,319.610443 122.109962,318.624786 121.424973,317.416901
	C120.141708,319.011688 119.438919,319.885071 118.496010,321.056885
	C116.183144,317.372742 114.673004,319.728699 113.372894,321.957916
	C112.233719,320.881622 111.429222,320.121521 110.598061,319.336243
	C109.742577,320.516510 108.991570,321.552643 108.108391,322.771088
	C107.091278,321.812256 106.242554,321.012177 105.380188,320.199219
	C104.418427,321.359375 103.709793,322.214172 102.751801,323.369781
	C100.530792,319.447327 99.159981,322.079773 97.790337,323.950958
	C96.704681,323.204407 95.817497,322.594360 94.955727,322.001770
	C94.012070,323.060150 93.219643,323.948944 92.453079,324.808746
	C91.241325,323.825348 90.404327,323.146118 88.122200,321.294067
	C87.921318,332.209778 87.746307,341.719788 87.580414,351.059357
	C87.589531,350.888916 87.425316,350.589691 87.005844,350.400757
	C77.795860,351.052460 68.931076,351.537628 61.124561,355.346863
	C61.124561,386.301666 61.124561,417.007446 61.124561,447.713226
	C45.209923,436.869080 29.262520,426.072083 13.446086,415.086548
	C12.248751,414.254913 11.379057,412.085846 11.372389,410.534088
	C11.250864,382.255981 11.293570,353.977203 11.277703,325.698547
	C11.275013,320.903015 13.468832,318.594757 18.357437,317.900726
	C41.689510,314.588226 64.985710,311.022980 88.633720,307.358429
z"/>
<path fill="#683CB6" opacity="1.000000" stroke="none"
	d="
M61.409248,447.990784
	C61.124561,417.007446 61.124561,386.301666 61.124561,355.346863
	C68.931076,351.537628 77.795860,351.052460 87.113235,350.788086
	C87.216095,354.352539 87.767143,359.074280 86.168228,359.973633
	C82.675690,361.938049 83.193443,363.957458 83.627335,366.911713
	C103.594284,363.971497 123.269287,361.074249 143.163162,358.144806
	C143.044495,355.814789 142.954834,354.054626 142.855484,352.103851
	C141.342148,352.377838 140.215378,352.581848 139.057770,352.282837
	C139.076584,348.522308 139.126236,345.264771 139.593719,341.999603
	C146.789749,340.983307 153.567932,339.974640 160.346100,338.966003
	C164.001221,340.032318 164.977554,342.621643 164.959290,346.203369
	C164.864258,364.848633 164.894623,383.494629 164.945435,402.140198
	C164.950760,404.093140 165.376938,406.044922 165.751465,408.363342
	C165.546631,413.745178 164.974960,418.757507 164.896729,423.777496
	C164.739029,433.896484 164.876755,434.078430 155.077927,435.546082
	C125.054558,440.043060 95.009979,444.398743 64.965324,448.751923
	C63.920162,448.903351 62.786400,448.443329 61.409248,447.990784
M83.156822,409.497192
	C83.156822,414.122101 83.156822,418.747040 83.156822,423.821075
	C103.492119,420.822357 123.265511,417.906525 142.907166,415.010071
	C142.907166,404.674286 142.907166,395.073029 142.907166,385.044891
	C122.831444,388.006775 103.066437,390.922821 83.156891,393.860199
	C83.156891,399.202026 83.156891,403.852264 83.156822,409.497192
z"/>
<path fill="#FBF122" opacity="1.000000" stroke="none"
	d="
M397.246307,60.540962
	C385.349152,62.391445 373.333313,63.876675 361.349884,65.588768
	C339.836395,68.662437 318.342987,71.876030 296.840149,75.024361
	C275.333344,78.173271 253.823914,81.304222 232.318283,84.460983
	C212.950348,87.303955 193.587143,90.179031 174.219330,93.022758
	C168.802322,93.818130 163.356201,94.433395 157.959686,95.345657
	C151.392242,96.455864 150.004822,98.259712 150.004349,105.057121
	C150.000793,157.041946 150.002106,209.026779 149.994476,261.475555
	C143.928177,258.188843 141.908997,253.008789 141.958252,245.694901
	C142.289291,196.532623 142.126022,147.367035 142.132385,98.202522
	C142.133331,90.793381 143.911453,89.042099 151.297241,87.961914
	C190.806793,82.183617 230.301819,76.306198 269.803253,70.472282
	C308.647644,64.735405 347.489075,58.977848 386.354431,53.386429
	C388.038177,53.144192 390.186859,54.126198 391.694366,55.158169
	C393.726349,56.549187 395.345734,58.542885 397.246307,60.540962
z"/>
<path fill="#F3F0EB" opacity="1.000000" stroke="none"
	d="
M139.175873,342.007233
	C139.126236,345.264771 139.076584,348.522308 139.027435,352.626801
	C137.857162,354.311859 136.781769,355.661316 135.499329,355.900421
	C129.619492,356.996765 123.685005,357.804718 117.764023,358.674561
	C107.945610,360.116882 98.122498,361.527252 87.571297,363.056915
	C87.571297,358.763397 87.571297,354.996582 87.571297,351.229797
	C87.746307,341.719788 87.921318,332.209778 88.122200,321.294067
	C90.404327,323.146118 91.241325,323.825348 92.453079,324.808746
	C93.219643,323.948944 94.012070,323.060150 94.955727,322.001770
	C95.817497,322.594360 96.704681,323.204407 97.790337,323.950958
	C99.159981,322.079773 100.530792,319.447327 102.751801,323.369781
	C103.709793,322.214172 104.418427,321.359375 105.380188,320.199219
	C106.242554,321.012177 107.091278,321.812256 108.108391,322.771088
	C108.991570,321.552643 109.742577,320.516510 110.598061,319.336243
	C111.429222,320.121521 112.233719,320.881622 113.372894,321.957916
	C114.673004,319.728699 116.183144,317.372742 118.496010,321.056885
	C119.438919,319.885071 120.141708,319.011688 121.424973,317.416901
	C122.109962,318.624786 122.668938,319.610443 123.372429,320.850922
	C124.456604,319.451660 125.244225,318.435150 125.189575,318.505707
	C127.482567,318.173462 128.758698,317.988556 130.028534,317.493164
	C131.411987,317.277527 132.801697,317.372314 134.827301,317.510529
	C135.047363,317.187042 135.756134,316.145203 136.464890,315.103333
	C136.927139,315.056488 137.389389,315.009644 137.851624,314.962769
	C138.296082,317.985870 138.740524,321.008972 139.124786,324.921356
	C139.101700,331.209503 139.138779,336.608368 139.175873,342.007233
z"/>
<path fill="#F5EA1E" opacity="1.000000" stroke="none"
	d="
M238.265396,253.577789
	C240.726913,252.767380 243.163345,252.415268 245.826630,252.030350
	C245.826630,259.711273 245.826630,267.158936 245.826630,275.072784
	C229.417068,277.487366 213.059464,279.894318 196.019302,282.401672
	C196.019302,288.979950 196.019302,295.581207 195.997345,302.662598
	C190.605530,300.039978 187.215012,296.047913 188.124481,289.176666
	C188.707947,284.768524 188.233902,280.220428 188.233902,275.052216
	C204.702591,272.628876 221.068863,270.220612 238.240295,267.693878
	C238.240295,263.215668 238.240295,258.625854 238.265396,253.577789
z"/>
<path fill="#F6EC1E" opacity="1.000000" stroke="none"
	d="
M353.763153,258.707886
	C337.723206,261.469025 321.625031,263.896301 304.888458,266.419830
	C304.888458,263.490204 304.888458,261.226166 304.909424,258.516235
	C317.877197,256.084961 330.832581,254.153503 343.766571,252.088120
	C349.049255,251.244522 350.425934,256.235992 353.763153,258.707886
z"/>
<path fill="#8D4FF8" opacity="1.000000" stroke="none"
	d="
M139.593719,341.999603
	C139.138779,336.608368 139.101700,331.209503 139.168610,325.347870
	C146.184799,329.368988 153.096985,333.852905 160.177643,338.651398
	C153.567932,339.974640 146.789749,340.983307 139.593719,341.999603
z"/>
<path fill="#F1EEEA" opacity="1.000000" stroke="none"
	d="
M391.867493,217.974335
	C376.782440,220.143021 361.694183,222.289673 346.613190,224.486160
	C329.572021,226.968140 312.537567,229.496384 295.499817,232.001709
	C278.458313,234.507599 261.416809,237.013306 244.374390,239.513092
	C227.331604,242.012955 210.287704,244.505051 193.244370,247.001236
	C182.107819,248.632278 170.971436,250.264542 159.371185,251.964233
	C159.371185,204.146103 159.371185,156.459656 159.371185,107.973450
	C167.948135,106.682602 176.873215,105.313416 185.806564,104.000237
	C204.975906,101.182350 224.149231,98.391556 243.321426,95.593071
	C262.989716,92.722168 282.660858,89.871010 302.326447,86.981888
	C319.035919,84.527061 335.728394,81.954369 352.448761,79.576843
	C365.527924,77.717072 378.638306,76.076408 391.885193,75.150749
	C392.026611,83.769905 392.017853,91.576698 392.008575,99.383492
	C391.961639,138.913773 391.914520,178.444061 391.867493,217.974335
M377.702820,192.089401
	C364.556183,194.049988 351.399231,195.946716 338.277954,198.064468
	C336.880615,198.290009 334.622986,199.758545 334.577759,200.734482
	C334.256042,207.676834 334.406311,214.641068 334.406311,222.154953
	C351.960327,219.570648 368.955353,217.068634 385.817871,214.586121
	C385.817871,206.400345 385.817871,198.818756 385.817871,191.061432
	C383.173706,191.404556 380.876404,191.702667 377.702820,192.089401
M275.526794,126.895638
	C275.867126,124.231812 274.554230,123.870178 272.270050,124.308167
	C268.683624,124.995865 265.053833,125.460876 261.438690,125.994751
	C245.691391,128.320236 229.942749,130.636536 214.104980,132.969376
	C214.104980,137.067734 214.104980,140.822708 214.104980,144.785187
	C234.697357,141.753235 254.992569,138.765045 275.527710,135.741516
	C275.527710,132.734589 275.527710,130.251862 275.526794,126.895638
M362.459412,120.587296
	C362.459412,125.190735 362.459412,129.794174 362.459412,134.826859
	C370.704285,133.611710 378.332642,132.487411 385.896973,131.372559
	C385.896973,123.269928 385.896973,115.691223 385.896973,107.717216
	C377.947632,108.912193 370.330536,110.057220 362.459595,111.240417
	C362.459595,114.334267 362.459595,116.980484 362.459412,120.587296
M327.709930,199.502991
	C321.781799,200.337723 315.833191,201.056671 309.941406,202.097214
	C308.641083,202.326859 306.543945,203.655533 306.508148,204.546265
	C306.224243,211.608276 306.350098,218.686768 306.350098,226.321716
	C314.698517,225.057968 322.189697,223.923996 330.033905,222.736572
	C330.033905,215.244507 330.065704,208.111908 329.969910,200.981003
	C329.962708,200.444199 329.045715,199.919601 327.709930,199.502991
M291.188477,117.625359
	C294.737122,117.046684 298.285797,116.468010 301.759705,115.901520
	C301.759705,107.869446 301.759705,100.269020 301.759705,92.347557
	C293.833618,93.537956 286.204407,94.683769 278.728760,95.806519
	C278.728760,103.929115 278.728760,111.363655 278.728760,119.238480
	C282.803070,118.728836 286.561829,118.258667 291.188477,117.625359
M334.591217,116.233170
	C334.591217,123.674149 334.591217,131.115128 334.591217,138.935638
	C342.674652,137.732391 350.320618,136.594269 357.876770,135.469513
	C357.876770,127.323479 357.876770,119.728752 357.876770,111.727203
	C350.000214,113.005249 342.476868,114.225983 334.591217,116.233170
M343.794769,169.344925
	C340.738007,169.858536 337.681244,170.372147 334.670898,170.877945
	C334.670898,178.819504 334.670898,186.257782 334.670898,194.327011
	C342.587555,193.178436 350.211212,192.072372 357.824982,190.967743
	C357.824982,182.887253 357.824982,175.185516 357.824982,167.398987
	C353.196167,168.015625 348.923523,168.584824 343.794769,169.344925
M362.459656,186.168671
	C362.591888,187.409668 362.724152,188.650665 362.896454,190.267517
	C370.898895,189.055191 378.501617,187.903442 385.869202,186.787292
	C385.869202,178.550095 385.869202,170.954056 385.869202,163.243210
	C378.986603,164.221664 372.436340,165.296951 365.847626,166.023148
	C362.954224,166.342056 362.343811,167.700241 362.417908,170.273834
	C362.561401,175.257874 362.459778,180.248962 362.459656,186.168671
M306.459442,166.098419
	C306.544586,167.529831 306.629761,168.961227 306.736572,170.756287
	C314.778473,169.556290 322.391541,168.420288 329.841370,167.308640
	C329.841370,159.125153 329.841370,151.560196 329.841370,143.665298
	C321.836639,144.877045 314.210999,146.031418 306.459595,147.204819
	C306.459595,153.569214 306.459595,159.376999 306.459442,166.098419
M358.173401,142.640869
	C357.255371,141.753357 356.242126,140.020157 355.434265,140.111130
	C348.516937,140.889969 341.636780,141.999176 334.757355,143.007858
	C334.757355,150.969681 334.757355,158.550247 334.757355,166.613480
	C342.749084,165.434006 350.375061,164.308502 358.174866,163.157349
	C358.174866,156.243500 358.174866,149.929901 358.173401,142.640869
M306.460358,98.689568
	C306.460358,104.080841 306.460358,109.472122 306.460358,115.350044
	C314.895874,114.076736 322.500244,112.928894 329.883606,111.814400
	C329.883606,103.592346 329.883606,95.993683 329.883606,88.229691
	C323.838440,89.132187 318.120544,90.490669 312.361481,90.696541
	C307.124756,90.883751 305.675446,93.094963 306.460358,98.689568
M313.930817,197.395462
	C319.292755,196.594269 324.654724,195.793091 329.797241,195.024689
	C329.797241,186.867737 329.797241,179.318970 329.797241,171.460083
	C321.849152,172.626862 314.319366,173.732224 306.811157,174.834412
	C306.811157,182.856216 306.811157,190.399384 306.811157,198.273438
	C309.148834,198.025818 311.106476,197.818466 313.930817,197.395462
M370.242035,137.839691
	C367.687805,138.258011 365.133575,138.676346 362.764160,139.064407
	C362.764160,147.071899 362.764160,154.500916 362.764160,162.487350
	C370.767334,161.312454 378.389160,160.193542 385.805695,159.104767
	C385.805695,150.910126 385.805695,143.353943 385.805695,135.513763
	C380.634247,136.280243 375.866180,136.986938 370.242035,137.839691
M292.814941,228.213333
	C295.848694,227.761185 298.882446,227.309036 301.670654,226.893478
	C301.670654,218.631836 301.670654,211.085800 301.670654,203.374329
	C294.872559,204.324158 288.453705,205.108200 282.087860,206.200897
	C280.733398,206.433380 278.525055,207.745499 278.487305,208.635574
	C278.188995,215.669846 278.321503,222.722366 278.321503,230.231735
	C283.445587,229.547134 287.697266,228.979111 292.814941,228.213333
M368.979462,82.459579
	C366.998016,83.803299 362.837952,81.334480 362.642609,85.450089
	C362.306976,92.521225 362.549774,99.619820 362.549774,107.080994
	C370.689972,105.881859 378.182220,104.778183 385.895203,103.641983
	C385.895203,95.695419 385.895203,87.970253 385.895203,80.084465
	C380.362396,80.847862 375.111572,81.572350 368.979462,82.459579
M306.526184,134.452240
	C306.526184,137.203018 306.526184,139.953796 306.526184,143.033234
	C314.757050,141.815094 322.238281,140.707886 329.870728,139.578308
	C329.870728,131.575180 329.870728,123.875542 329.870728,116.009102
	C324.484497,116.765259 319.401794,117.460892 314.324738,118.195709
	C306.524719,119.324654 306.526398,119.336082 306.526245,127.491821
	C306.526215,129.482925 306.526062,131.474045 306.526184,134.452240
M358.160767,103.325577
	C358.160767,97.027336 358.160767,90.729088 358.160767,84.140419
	C350.882782,85.174339 344.133698,86.008720 337.449310,87.204948
	C336.332520,87.404793 334.702026,89.146294 334.661163,90.226608
	C334.404785,97.001427 334.531555,103.790749 334.531555,111.155777
	C342.279877,110.032623 349.482819,109.084236 356.625885,107.802315
	C357.325867,107.676704 357.657806,105.500381 358.160767,103.325577
M282.404755,122.966484
	C281.127106,123.707779 278.771393,124.406296 278.739990,125.197060
	C278.453613,132.412140 278.571808,139.643265 278.571808,147.160553
	C286.893768,145.904999 294.378906,144.775696 301.776764,143.659576
	C301.776764,135.500946 301.776764,127.878250 301.776764,120.065994
	C295.454559,121.024551 289.376923,121.946030 282.404755,122.966484
M284.509430,173.997604
	C290.225800,173.145157 295.942169,172.292725 301.798737,171.419388
	C301.798737,163.478882 301.798737,155.880280 301.798737,147.824600
	C293.956299,148.998474 286.343567,150.137970 278.885925,151.254242
	C278.885925,159.382050 278.885925,166.964935 278.885925,174.747269
	C280.727783,174.492966 282.188141,174.291336 284.509430,173.997604
M300.781128,199.224411
	C301.176178,198.778580 301.911133,198.336121 301.915588,197.886444
	C301.987366,190.615189 301.966339,183.342987 301.966339,175.563950
	C293.967804,176.745087 286.374847,177.866348 278.900330,178.970108
	C278.900330,187.081909 278.900330,194.604202 278.900330,202.524323
	C286.182312,201.444366 293.042542,200.426971 300.781128,199.224411
M167.343521,139.934036
	C166.694077,143.717987 166.044617,147.501923 165.317520,151.738205
	C177.606339,150.009277 188.580093,148.391037 199.575928,146.940155
	C209.700745,145.604172 210.135162,145.086334 208.297577,133.828354
	C194.945221,135.798294 181.574417,137.770966 167.343521,139.934036
z"/>
<path fill="#633CA8" opacity="1.000000" stroke="none"
	d="
M392.195282,217.710037
	C391.914520,178.444061 391.961639,138.913773 392.008575,99.383492
	C392.017853,91.576698 392.026611,83.769905 392.099274,75.500824
	C392.441986,76.458275 392.963501,77.877777 392.964844,79.297775
	C393.007599,124.212372 393.003357,169.127014 392.979828,214.041641
	C392.979218,215.176422 392.681976,216.311050 392.195282,217.710037
z"/>
<path fill="#7341CC" opacity="1.000000" stroke="none"
	d="
M477.016174,381.967804
	C466.400482,383.645599 455.796906,385.404846 445.166351,386.982483
	C428.314728,389.483429 411.438904,391.821259 394.584869,394.306366
	C379.861633,396.477295 365.164398,398.825165 350.437225,400.968109
	C335.706146,403.111572 320.946594,405.058960 306.209717,407.163635
	C290.330292,409.431519 274.457794,411.749298 258.591248,414.105896
	C242.394958,416.511505 226.209869,418.992432 210.018112,421.428772
	C209.551086,421.499054 209.064270,421.437683 208.364883,421.437683
	C208.364883,404.071075 208.364883,386.806915 208.683792,369.270142
	C209.002701,368.997498 209.065872,369.066101 209.053070,369.526672
	C209.040253,386.438812 209.040253,402.890381 209.040253,420.092896
	C217.967865,418.889496 226.263718,417.866577 234.528839,416.637115
	C251.213623,414.155090 267.869476,411.477112 284.560089,409.036163
	C301.747437,406.522583 318.972229,404.265411 336.161896,401.767273
	C355.799957,398.913422 375.418243,395.923157 395.043488,392.981384
	C409.925659,390.750580 424.797607,388.449829 439.688477,386.279053
	C452.124207,384.466187 464.580841,382.796722 477.022095,381.289673
	C477.016022,381.515656 477.016174,381.967804 477.016174,381.967804
z"/>
<path fill="#7341CC" opacity="1.000000" stroke="none"
	d="
M208.972763,368.961761
	C215.534378,367.617706 222.089066,366.070892 228.724396,365.046021
	C248.337372,362.016693 267.976471,359.154327 287.616302,356.301910
	C304.804840,353.805511 322.014496,351.454346 339.203339,348.959930
	C358.028503,346.227997 376.838593,343.392670 395.658813,340.626434
	C410.876160,338.389771 426.101562,336.207825 441.318054,333.965485
	C452.278839,332.350281 463.230865,330.675598 474.600464,329.271851
	C475.014160,329.516266 475.015137,329.967194 474.615173,330.036377
	C472.930084,330.405823 471.658844,330.800903 470.357666,330.991394
	C459.900970,332.522247 449.434631,333.987244 438.978973,335.524841
	C422.150024,337.999634 405.328766,340.526398 388.500977,343.009064
	C373.635681,345.202209 358.765686,347.363556 343.898224,349.541962
	C329.192352,351.696655 314.487091,353.855591 299.781433,356.011749
	C284.751221,358.215454 269.725250,360.448822 254.689285,362.612366
	C239.486694,364.799896 224.274094,366.917725 209.065872,369.066101
	C209.065872,369.066101 209.002701,368.997498 208.972763,368.961761
z"/>
<path fill="#683AB8" opacity="1.000000" stroke="none"
	d="
M475.015137,329.967194
	C475.015137,329.967194 475.014160,329.516266 475.022095,329.291565
	C476.481049,329.066833 477.932037,329.066833 479.633301,329.066833
	C479.633301,346.492157 479.633301,363.470428 479.316040,380.723724
	C478.998749,380.998749 478.991455,380.991455 478.992737,380.523682
	C478.995178,364.811371 478.940308,349.566437 479.045349,334.322632
	C479.066010,331.331421 478.547302,329.402893 475.015137,329.967194
z"/>
<path fill="#683AB8" opacity="1.000000" stroke="none"
	d="
M477.316528,381.960938
	C477.016174,381.967804 477.016022,381.515656 477.348572,381.264954
	C478.117889,381.006653 478.554688,380.999054 478.991455,380.991455
	C478.991455,380.991455 478.998749,380.998749 479.002472,381.003662
	C478.543091,381.323730 478.079987,381.638916 477.316528,381.960938
z"/>
<path fill="#F2E72B" opacity="1.000000" stroke="none"
	d="
M87.580414,351.059357
	C87.571297,354.996582 87.571297,358.763397 87.571297,363.056915
	C98.122498,361.527252 107.945610,360.116882 117.764023,358.674561
	C123.685005,357.804718 129.619492,356.996765 135.499329,355.900421
	C136.781769,355.661316 137.857162,354.311859 139.058258,353.129822
	C140.215378,352.581848 141.342148,352.377838 142.855484,352.103851
	C142.954834,354.054626 143.044495,355.814789 143.163162,358.144806
	C123.269287,361.074249 103.594284,363.971497 83.627335,366.911713
	C83.193443,363.957458 82.675690,361.938049 86.168228,359.973633
	C87.767143,359.074280 87.216095,354.352539 87.532707,350.976990
	C87.425316,350.589691 87.589531,350.888916 87.580414,351.059357
z"/>
<path fill="#FAF01E" opacity="1.000000" stroke="none"
	d="
M83.156860,408.999847
	C83.156891,403.852264 83.156891,399.202026 83.156891,393.860199
	C103.066437,390.922821 122.831444,388.006775 142.907166,385.044891
	C142.907166,395.073029 142.907166,404.674286 142.907166,415.010071
	C123.265511,417.906525 103.492119,420.822357 83.156822,423.821075
	C83.156822,418.747040 83.156822,414.122101 83.156860,408.999847
z"/>
<path fill="#6A3EB8" opacity="1.000000" stroke="none"
	d="
M378.140961,192.045090
	C380.876404,191.702667 383.173706,191.404556 385.817871,191.061432
	C385.817871,198.818756 385.817871,206.400345 385.817871,214.586121
	C368.955353,217.068634 351.960327,219.570648 334.406311,222.154953
	C334.406311,214.641068 334.256042,207.676834 334.577759,200.734482
	C334.622986,199.758545 336.880615,198.290009 338.277954,198.064468
	C351.399231,195.946716 364.556183,194.049988 378.140961,192.045090
z"/>
<path fill="#280F55" opacity="1.000000" stroke="none"
	d="
M275.527252,127.332382
	C275.527710,130.251862 275.527710,132.734589 275.527710,135.741516
	C254.992569,138.765045 234.697357,141.753235 214.104980,144.785187
	C214.104980,140.822708 214.104980,137.067734 214.104980,132.969376
	C229.942749,130.636536 245.691391,128.320236 261.438690,125.994751
	C265.053833,125.460876 268.683624,124.995865 272.270050,124.308167
	C274.554230,123.870178 275.867126,124.231812 275.527252,127.332382
z"/>
<path fill="#2B1257" opacity="1.000000" stroke="none"
	d="
M362.459503,120.107002
	C362.459595,116.980484 362.459595,114.334267 362.459595,111.240417
	C370.330536,110.057220 377.947632,108.912193 385.896973,107.717216
	C385.896973,115.691223 385.896973,123.269928 385.896973,131.372559
	C378.332642,132.487411 370.704285,133.611710 362.459412,134.826859
	C362.459412,129.794174 362.459412,125.190735 362.459503,120.107002
z"/>
<path fill="#FCF222" opacity="1.000000" stroke="none"
	d="
M328.130768,199.446167
	C329.045715,199.919601 329.962708,200.444199 329.969910,200.981003
	C330.065704,208.111908 330.033905,215.244507 330.033905,222.736572
	C322.189697,223.923996 314.698517,225.057968 306.350098,226.321716
	C306.350098,218.686768 306.224243,211.608276 306.508148,204.546265
	C306.543945,203.655533 308.641083,202.326859 309.941406,202.097214
	C315.833191,201.056671 321.781799,200.337723 328.130768,199.446167
z"/>
<path fill="#2B1157" opacity="1.000000" stroke="none"
	d="
M290.754517,117.706924
	C286.561829,118.258667 282.803070,118.728836 278.728760,119.238480
	C278.728760,111.363655 278.728760,103.929115 278.728760,95.806519
	C286.204407,94.683769 293.833618,93.537956 301.759705,92.347557
	C301.759705,100.269020 301.759705,107.869446 301.759705,115.901520
	C298.285797,116.468010 294.737122,117.046684 290.754517,117.706924
z"/>
<path fill="#2B1257" opacity="1.000000" stroke="none"
	d="
M334.772369,115.839935
	C342.476868,114.225983 350.000214,113.005249 357.876770,111.727203
	C357.876770,119.728752 357.876770,127.323479 357.876770,135.469513
	C350.320618,136.594269 342.674652,137.732391 334.591217,138.935638
	C334.591217,131.115128 334.591217,123.674149 334.772369,115.839935
z"/>
<path fill="#2B1257" opacity="1.000000" stroke="none"
	d="
M344.222839,169.249481
	C348.923523,168.584824 353.196167,168.015625 357.824982,167.398987
	C357.824982,175.185516 357.824982,182.887253 357.824982,190.967743
	C350.211212,192.072372 342.587555,193.178436 334.670898,194.327011
	C334.670898,186.257782 334.670898,178.819504 334.670898,170.877945
	C337.681244,170.372147 340.738007,169.858536 344.222839,169.249481
z"/>
<path fill="#2B1257" opacity="1.000000" stroke="none"
	d="
M362.459686,185.702911
	C362.459778,180.248962 362.561401,175.257874 362.417908,170.273834
	C362.343811,167.700241 362.954224,166.342056 365.847626,166.023148
	C372.436340,165.296951 378.986603,164.221664 385.869202,163.243210
	C385.869202,170.954056 385.869202,178.550095 385.869202,186.787292
	C378.501617,187.903442 370.898895,189.055191 362.896454,190.267517
	C362.724152,188.650665 362.591888,187.409668 362.459686,185.702911
z"/>
<path fill="#2B1257" opacity="1.000000" stroke="none"
	d="
M306.459534,165.641602
	C306.459595,159.376999 306.459595,153.569214 306.459595,147.204819
	C314.210999,146.031418 321.836639,144.877045 329.841370,143.665298
	C329.841370,151.560196 329.841370,159.125153 329.841370,167.308640
	C322.391541,168.420288 314.778473,169.556290 306.736572,170.756287
	C306.629761,168.961227 306.544586,167.529831 306.459534,165.641602
z"/>
<path fill="#2B1257" opacity="1.000000" stroke="none"
	d="
M358.174133,143.128586
	C358.174866,149.929901 358.174866,156.243500 358.174866,163.157349
	C350.375061,164.308502 342.749084,165.434006 334.757355,166.613480
	C334.757355,158.550247 334.757355,150.969681 334.757355,143.007858
	C341.636780,141.999176 348.516937,140.889969 355.434265,140.111130
	C356.242126,140.020157 357.255371,141.753357 358.174133,143.128586
z"/>
<path fill="#2B1157" opacity="1.000000" stroke="none"
	d="
M306.460449,98.220856
	C305.675446,93.094963 307.124756,90.883751 312.361481,90.696541
	C318.120544,90.490669 323.838440,89.132187 329.883606,88.229691
	C329.883606,95.993683 329.883606,103.592346 329.883606,111.814400
	C322.500244,112.928894 314.895874,114.076736 306.460358,115.350044
	C306.460358,109.472122 306.460358,104.080841 306.460449,98.220856
z"/>
<path fill="#2B1257" opacity="1.000000" stroke="none"
	d="
M313.497467,197.503281
	C311.106476,197.818466 309.148834,198.025818 306.811157,198.273438
	C306.811157,190.399384 306.811157,182.856216 306.811157,174.834412
	C314.319366,173.732224 321.849152,172.626862 329.797241,171.460083
	C329.797241,179.318970 329.797241,186.867737 329.797241,195.024689
	C324.654724,195.793091 319.292755,196.594269 313.497467,197.503281
z"/>
<path fill="#2B1257" opacity="1.000000" stroke="none"
	d="
M370.670105,137.766663
	C375.866180,136.986938 380.634247,136.280243 385.805695,135.513763
	C385.805695,143.353943 385.805695,150.910126 385.805695,159.104767
	C378.389160,160.193542 370.767334,161.312454 362.764160,162.487350
	C362.764160,154.500916 362.764160,147.071899 362.764160,139.064407
	C365.133575,138.676346 367.687805,138.258011 370.670105,137.766663
z"/>
<path fill="#9155FA" opacity="1.000000" stroke="none"
	d="
M292.381958,228.312195
	C287.697266,228.979111 283.445587,229.547134 278.321503,230.231735
	C278.321503,222.722366 278.188995,215.669846 278.487305,208.635574
	C278.525055,207.745499 280.733398,206.433380 282.087860,206.200897
	C288.453705,205.108200 294.872559,204.324158 301.670654,203.374329
	C301.670654,211.085800 301.670654,218.631836 301.670654,226.893478
	C298.882446,227.309036 295.848694,227.761185 292.381958,228.312195
z"/>
<path fill="#270D54" opacity="1.000000" stroke="none"
	d="
M369.420105,82.378204
	C375.111572,81.572350 380.362396,80.847862 385.895203,80.084465
	C385.895203,87.970253 385.895203,95.695419 385.895203,103.641983
	C378.182220,104.778183 370.689972,105.881859 362.549774,107.080994
	C362.549774,99.619820 362.306976,92.521225 362.642609,85.450089
	C362.837952,81.334480 366.998016,83.803299 369.420105,82.378204
z"/>
<path fill="#260C54" opacity="1.000000" stroke="none"
	d="
M306.526062,133.958694
	C306.526062,131.474045 306.526215,129.482925 306.526245,127.491821
	C306.526398,119.336082 306.524719,119.324654 314.324738,118.195709
	C319.401794,117.460892 324.484497,116.765259 329.870728,116.009102
	C329.870728,123.875542 329.870728,131.575180 329.870728,139.578308
	C322.238281,140.707886 314.757050,141.815094 306.526184,143.033234
	C306.526184,139.953796 306.526184,137.203018 306.526062,133.958694
z"/>
<path fill="#260D54" opacity="1.000000" stroke="none"
	d="
M358.160675,103.800751
	C357.657806,105.500381 357.325867,107.676704 356.625885,107.802315
	C349.482819,109.084236 342.279877,110.032623 334.531555,111.155777
	C334.531555,103.790749 334.404785,97.001427 334.661163,90.226608
	C334.702026,89.146294 336.332520,87.404793 337.449310,87.204948
	C344.133698,86.008720 350.882782,85.174339 358.160767,84.140419
	C358.160767,90.729088 358.160767,97.027336 358.160675,103.800751
z"/>
<path fill="#260C54" opacity="1.000000" stroke="none"
	d="
M282.851990,122.916992
	C289.376923,121.946030 295.454559,121.024551 301.776764,120.065994
	C301.776764,127.878250 301.776764,135.500946 301.776764,143.659576
	C294.378906,144.775696 286.893768,145.904999 278.571808,147.160553
	C278.571808,139.643265 278.453613,132.412140 278.739990,125.197060
	C278.771393,124.406296 281.127106,123.707779 282.851990,122.916992
z"/>
<path fill="#260C54" opacity="1.000000" stroke="none"
	d="
M284.078979,174.043655
	C282.188141,174.291336 280.727783,174.492966 278.885925,174.747269
	C278.885925,166.964935 278.885925,159.382050 278.885925,151.254242
	C286.343567,150.137970 293.956299,148.998474 301.798737,147.824600
	C301.798737,155.880280 301.798737,163.478882 301.798737,171.419388
	C295.942169,172.292725 290.225800,173.145157 284.078979,174.043655
z"/>
<path fill="#260C54" opacity="1.000000" stroke="none"
	d="
M300.341980,199.316986
	C293.042542,200.426971 286.182312,201.444366 278.900330,202.524323
	C278.900330,194.604202 278.900330,187.081909 278.900330,178.970108
	C286.374847,177.866348 293.967804,176.745087 301.966339,175.563950
	C301.966339,183.342987 301.987366,190.615189 301.915588,197.886444
	C301.911133,198.336121 301.176178,198.778580 300.341980,199.316986
z"/>
<path fill="#9054FA" opacity="1.000000" stroke="none"
	d="
M167.773575,139.838837
	C181.574417,137.770966 194.945221,135.798294 208.297577,133.828354
	C210.135162,145.086334 209.700745,145.604172 199.575928,146.940155
	C188.580093,148.391037 177.606339,150.009277 165.317520,151.738205
	C166.044617,147.501923 166.694077,143.717987 167.773575,139.838837
z"/>
<path fill="#8E50FA" opacity="1.000000" stroke="none"
	d="
M478.992737,380.523682
	C478.554688,380.999054 478.117889,381.006653 477.354675,381.039001
	C464.580841,382.796722 452.124207,384.466187 439.688477,386.279053
	C424.797607,388.449829 409.925659,390.750580 395.043488,392.981384
	C375.418243,395.923157 355.799957,398.913422 336.161896,401.767273
	C318.972229,404.265411 301.747437,406.522583 284.560089,409.036163
	C267.869476,411.477112 251.213623,414.155090 234.528839,416.637115
	C226.263718,417.866577 217.967865,418.889496 209.040253,420.092896
	C209.040253,402.890381 209.040253,386.438812 209.053070,369.526672
	C224.274094,366.917725 239.486694,364.799896 254.689285,362.612366
	C269.725250,360.448822 284.751221,358.215454 299.781433,356.011749
	C314.487091,353.855591 329.192352,351.696655 343.898224,349.541962
	C358.765686,347.363556 373.635681,345.202209 388.500977,343.009064
	C405.328766,340.526398 422.150024,337.999634 438.978973,335.524841
	C449.434631,333.987244 459.900970,332.522247 470.357666,330.991394
	C471.658844,330.800903 472.930084,330.405823 474.615173,330.036377
	C478.547302,329.402893 479.066010,331.331421 479.045349,334.322632
	C478.940308,349.566437 478.995178,364.811371 478.992737,380.523682
M334.054016,382.056976
	C340.065765,391.004456 351.669891,385.424225 354.779327,378.150726
	C356.640045,373.798187 356.353455,369.699158 352.785187,366.286743
	C349.847870,363.477814 346.476746,362.175110 342.390625,363.817719
	C334.487671,366.994659 331.580536,372.803680 334.054016,382.056976
z"/>
<path fill="#693CB9" opacity="1.000000" stroke="none"
	d="
M333.883545,381.692261
	C331.580536,372.803680 334.487671,366.994659 342.390625,363.817719
	C346.476746,362.175110 349.847870,363.477814 352.785187,366.286743
	C356.353455,369.699158 356.640045,373.798187 354.779327,378.150726
	C351.669891,385.424225 340.065765,391.004456 333.883545,381.692261
M343.007294,370.053253
	C343.007294,373.894257 343.007294,377.735260 343.007294,381.576263
	C343.687775,381.549500 344.368286,381.522705 345.048767,381.495941
	C345.048767,377.493713 345.064941,373.491058 344.968384,369.491180
	C344.965576,369.374878 343.771118,369.287384 343.007294,370.053253
z"/>
<path fill="#EEE9EA" opacity="1.000000" stroke="none"
	d="
M343.069794,369.619843
	C343.771118,369.287384 344.965576,369.374878 344.968384,369.491180
	C345.064941,373.491058 345.048767,377.493713 345.048767,381.495941
	C344.368286,381.522705 343.687775,381.549500 343.007294,381.576263
	C343.007294,377.735260 343.007294,373.894257 343.069794,369.619843
z"/>
</svg>
