<svg version="1.1" id="Layer_1" xmlns="http://www.w3.org/2000/svg" xmlns:xlink="http://www.w3.org/1999/xlink" x="0px" y="0px"
	 width="100%" viewBox="0 0 500 500" enable-background="new 0 0 500 500" xml:space="preserve">
<path opacity="0" stroke="none"
	d="
M322.000000,501.000000
	C214.666687,501.000000 107.833382,501.000000 1.000057,501.000000
	C1.000038,334.333405 1.000038,167.666794 1.000019,1.000147
	C167.666565,1.000098 334.333130,1.000098 500.999756,1.000049
	C500.999847,167.666519 500.999847,334.333038 500.999939,500.999786
	C441.500000,501.000000 382.000000,501.000000 322.000000,501.000000
M335.872986,284.700439
	C335.767944,284.655579 335.662872,284.610718 335.557831,284.565887
	C335.715393,284.701599 335.872925,284.837341 335.986572,285.668213
	C336.558899,286.473572 337.012756,287.406677 337.721924,288.064575
	C344.788025,294.620148 351.876312,301.152191 358.996918,307.648621
	C372.232513,319.723999 380.812042,335.225708 390.055267,350.192871
	C393.083282,355.095978 396.272949,357.920776 402.397675,356.933228
	C422.575897,353.679657 442.504700,349.340668 461.513580,341.782104
	C471.018036,338.002777 480.029694,332.931915 489.096710,328.128967
	C493.019867,326.050781 494.164948,322.807373 491.313416,318.629913
	C485.708588,310.418945 480.789520,301.699249 474.741272,293.840698
	C464.831360,280.964600 453.188171,269.888611 438.320496,262.623138
	C435.415466,261.203552 433.694122,261.280457 430.874023,263.318451
	C421.357361,270.195770 412.075104,278.001038 401.474152,282.646881
	C380.309418,291.922272 358.125427,292.811737 335.872986,284.700439
M118.357262,370.771210
	C116.364510,374.566620 117.743553,376.730713 121.679474,377.693176
	C123.453819,378.127014 125.187370,378.796631 126.983360,379.062469
	C145.548294,381.810364 164.046829,385.851929 182.710907,386.890350
	C212.099869,388.525421 241.613495,388.837738 271.052094,388.354889
	C292.316528,388.006134 313.567139,385.705231 334.781219,383.799438
	C348.180237,382.595703 361.505432,380.553253 374.853455,378.808350
	C379.033173,378.261932 380.251892,376.097137 378.095947,372.233246
	C375.666351,367.878906 373.503998,363.372314 370.997528,359.064545
	C359.424103,339.174133 347.592255,319.385529 330.190399,303.897064
	C323.230164,297.702118 315.184998,292.726166 307.348389,286.986389
	C291.498993,310.854462 270.475647,324.413666 243.331345,325.740601
	C215.283447,327.111664 195.581146,311.449860 179.492493,289.673737
	C151.533142,310.902252 132.476944,338.497406 118.357262,370.771210
M207.967102,158.428726
	C201.064774,164.282211 196.300079,171.609299 193.410568,180.117493
	C189.111267,192.776871 188.033813,205.744781 190.060318,218.980362
	C192.449219,234.582932 196.594070,249.716370 206.019943,262.527649
	C217.825638,278.573486 234.441589,285.779358 254.067322,282.665466
	C272.600311,279.724915 284.530396,267.841797 289.926575,249.919556
	C292.021881,242.960556 293.593414,235.733658 294.390106,228.516922
	C296.030975,213.653152 297.238220,198.816635 292.093048,184.128189
	C279.484009,148.131943 237.678741,134.914902 207.967102,158.428726
M317.571259,143.152115
	C310.111053,157.020004 308.643707,171.774582 310.983948,187.121475
	C314.027954,207.083893 321.883209,224.792938 336.570343,238.833633
	C351.722687,253.319031 372.573303,255.238785 388.092468,243.866791
	C398.705536,236.089874 405.145935,225.203522 407.869019,212.479797
	C409.768982,203.602051 410.862213,194.495956 411.581848,185.433578
	C412.855194,169.397751 412.785889,153.535477 403.157013,139.346008
	C393.443970,125.032455 380.197205,115.905060 362.936218,116.439644
	C343.909973,117.028893 328.127228,125.512413 317.571259,143.152115
M152.004715,235.532196
	C161.371063,227.125183 168.550903,217.251053 171.452423,204.836334
	C172.880356,198.726791 173.578613,192.435760 174.414932,186.201096
	C176.333069,171.901611 176.320511,157.636612 170.817581,144.071030
	C159.206360,115.447563 134.216141,106.607910 109.805183,116.346405
	C91.984993,123.455574 80.913406,137.518127 75.913246,156.315750
	C72.620491,168.694595 73.995483,180.808075 75.795441,193.206314
	C79.212067,216.740417 92.198715,232.721130 113.249413,242.422058
	C127.167183,248.835861 140.132355,246.478622 152.004715,235.532196
M100.422226,354.025024
	C103.694069,354.707672 105.198074,353.238159 106.115875,350.108795
	C107.373047,345.822266 108.999084,341.617676 110.787376,337.517670
	C119.802513,316.848846 134.692734,300.948608 151.965164,286.974243
	C156.345108,283.430603 160.477097,279.580444 164.723022,275.871124
	C163.320160,275.241974 162.576843,275.537323 161.806061,275.710175
	C151.161987,278.097046 140.576523,282.072205 129.853500,282.489105
	C110.699127,283.233734 93.774849,276.023315 79.987976,262.435242
	C75.901978,258.408173 72.474380,253.713028 68.634987,249.194443
	C67.529686,249.845917 66.383217,250.486801 65.270943,251.182358
	C41.637367,265.961700 26.059584,287.725830 13.269432,311.756439
	C5.883592,325.633209 7.868573,330.145172 22.773193,336.050873
	C47.470150,345.836548 73.443909,350.181610 100.422226,354.025024
M225.204712,314.384430
	C250.918793,323.097473 283.980896,307.612488 297.856995,283.739838
	C290.778290,277.474121 287.645874,277.469299 281.124908,283.532257
	C278.814453,285.680420 276.431213,287.779694 273.898590,289.654633
	C259.825958,300.072723 244.725204,303.442047 228.769562,294.561401
	C222.460709,291.049988 217.084564,285.872925 211.235199,281.519531
	C209.549255,280.264740 207.523911,278.076630 205.946625,278.308228
	C199.472610,279.258789 193.360519,281.555695 187.604050,285.293518
	C197.372345,298.901276 209.326324,308.536407 225.204712,314.384430
M340.189545,258.455231
	C336.292877,255.655334 332.133942,253.147705 328.583618,249.961838
	C325.807343,247.470551 323.855835,247.402451 321.524445,250.128357
	C320.554108,251.262848 319.461884,252.301987 318.359192,253.312622
	C315.674835,255.772995 315.740295,258.159149 318.663818,260.265533
	C324.579681,264.527954 330.323944,269.102600 336.580322,272.802063
	C347.791901,279.431580 360.385895,279.590149 372.879089,278.922211
	C389.633057,278.026550 404.671631,272.427948 416.934418,260.653778
	C425.316193,252.605957 424.722015,249.824097 414.217346,244.573624
	C413.950531,244.440262 413.589966,244.494446 413.273132,244.461166
	C406.899384,250.291840 400.420197,256.419678 392.727264,259.707245
	C375.606873,267.023529 358.054352,265.178589 340.189545,258.455231
M85.422386,255.085419
	C99.959572,269.643311 117.712700,275.521576 137.806442,272.767853
	C151.212967,270.930573 162.915558,264.363617 173.193039,255.468155
	C175.518341,253.455536 175.477325,251.639740 173.113663,249.738693
	C165.372238,243.512421 167.321335,243.558151 159.619156,248.077377
	C136.490631,261.647980 114.579018,259.754822 92.855331,242.520416
	C91.688118,241.594421 89.706207,240.845581 88.363541,241.152328
	C84.571404,242.018646 80.914711,243.477814 76.023895,245.093414
	C79.540421,248.844833 82.231094,251.715240 85.422386,255.085419
z"/>
<path fill="#683BB7" opacity="1.000000" stroke="none"
	d="
M118.538605,370.448364
	C132.476944,338.497406 151.533142,310.902252 179.492493,289.673737
	C195.581146,311.449860 215.283447,327.111664 243.331345,325.740601
	C270.475647,324.413666 291.498993,310.854462 307.348389,286.986389
	C315.184998,292.726166 323.230164,297.702118 330.190399,303.897064
	C347.592255,319.385529 359.424103,339.174133 370.997528,359.064545
	C373.503998,363.372314 375.666351,367.878906 378.095947,372.233246
	C380.251892,376.097137 379.033173,378.261932 374.853455,378.808350
	C361.505432,380.553253 348.180237,382.595703 334.781219,383.799438
	C313.567139,385.705231 292.316528,388.006134 271.052094,388.354889
	C241.613495,388.837738 212.099869,388.525421 182.710907,386.890350
	C164.046829,385.851929 145.548294,381.810364 126.983360,379.062469
	C125.187370,378.796631 123.453819,378.127014 121.679474,377.693176
	C117.743553,376.730713 116.364510,374.566620 118.538605,370.448364
z"/>
<path fill="#683BB7" opacity="1.000000" stroke="none"
	d="
M208.240570,158.199738
	C237.678741,134.914902 279.484009,148.131943 292.093048,184.128189
	C297.238220,198.816635 296.030975,213.653152 294.390106,228.516922
	C293.593414,235.733658 292.021881,242.960556 289.926575,249.919556
	C284.530396,267.841797 272.600311,279.724915 254.067322,282.665466
	C234.441589,285.779358 217.825638,278.573486 206.019943,262.527649
	C196.594070,249.716370 192.449219,234.582932 190.060318,218.980362
	C188.033813,205.744781 189.111267,192.776871 193.410568,180.117493
	C196.300079,171.609299 201.064774,164.282211 208.240570,158.199738
z"/>
<path fill="#B68DFF" opacity="1.000000" stroke="none"
	d="
M317.772644,142.845337
	C328.127228,125.512413 343.909973,117.028893 362.936218,116.439644
	C380.197205,115.905060 393.443970,125.032455 403.157013,139.346008
	C412.785889,153.535477 412.855194,169.397751 411.581848,185.433578
	C410.862213,194.495956 409.768982,203.602051 407.869019,212.479797
	C405.145935,225.203522 398.705536,236.089874 388.092468,243.866791
	C372.573303,255.238785 351.722687,253.319031 336.570343,238.833633
	C321.883209,224.792938 314.027954,207.083893 310.983948,187.121475
	C308.643707,171.774582 310.111053,157.020004 317.772644,142.845337
z"/>
<path fill="#B68DFF" opacity="1.000000" stroke="none"
	d="
M151.742447,235.772186
	C140.132355,246.478622 127.167183,248.835861 113.249413,242.422058
	C92.198715,232.721130 79.212067,216.740417 75.795441,193.206314
	C73.995483,180.808075 72.620491,168.694595 75.913246,156.315750
	C80.913406,137.518127 91.984993,123.455574 109.805183,116.346405
	C134.216141,106.607910 159.206360,115.447563 170.817581,144.071030
	C176.320511,157.636612 176.333069,171.901611 174.414932,186.201096
	C173.578613,192.435760 172.880356,198.726791 171.452423,204.836334
	C168.550903,217.251053 161.371063,227.125183 151.742447,235.772186
z"/>
<path fill="#B68EFF" opacity="1.000000" stroke="none"
	d="
M99.980324,354.013062
	C73.443909,350.181610 47.470150,345.836548 22.773193,336.050873
	C7.868573,330.145172 5.883592,325.633209 13.269432,311.756439
	C26.059584,287.725830 41.637367,265.961700 65.270943,251.182358
	C66.383217,250.486801 67.529686,249.845917 68.634987,249.194443
	C72.474380,253.713028 75.901978,258.408173 79.987976,262.435242
	C93.774849,276.023315 110.699127,283.233734 129.853500,282.489105
	C140.576523,282.072205 151.161987,278.097046 161.806061,275.710175
	C162.576843,275.537323 163.320160,275.241974 164.723022,275.871124
	C160.477097,279.580444 156.345108,283.430603 151.965164,286.974243
	C134.692734,300.948608 119.802513,316.848846 110.787376,337.517670
	C108.999084,341.617676 107.373047,345.822266 106.115875,350.108795
	C105.198074,353.238159 103.694069,354.707672 99.980324,354.013062
z"/>
<path fill="#B68EFF" opacity="1.000000" stroke="none"
	d="
M335.982635,285.023315
	C358.125427,292.811737 380.309418,291.922272 401.474152,282.646881
	C412.075104,278.001038 421.357361,270.195770 430.874023,263.318451
	C433.694122,261.280457 435.415466,261.203552 438.320496,262.623138
	C453.188171,269.888611 464.831360,280.964600 474.741272,293.840698
	C480.789520,301.699249 485.708588,310.418945 491.313416,318.629913
	C494.164948,322.807373 493.019867,326.050781 489.096710,328.128967
	C480.029694,332.931915 471.018036,338.002777 461.513580,341.782104
	C442.504700,349.340668 422.575897,353.679657 402.397675,356.933228
	C396.272949,357.920776 393.083282,355.095978 390.055267,350.192871
	C380.812042,335.225708 372.232513,319.723999 358.996918,307.648621
	C351.876312,301.152191 344.788025,294.620148 337.721924,288.064575
	C337.012756,287.406677 336.558899,286.473572 335.995483,285.332336
	C336.004425,284.996490 335.982635,285.023315 335.982635,285.023315
z"/>
<path fill="#6A3DB9" opacity="1.000000" stroke="none"
	d="
M224.831467,314.242188
	C209.326324,308.536407 197.372345,298.901276 187.604050,285.293518
	C193.360519,281.555695 199.472610,279.258789 205.946625,278.308228
	C207.523911,278.076630 209.549255,280.264740 211.235199,281.519531
	C217.084564,285.872925 222.460709,291.049988 228.769562,294.561401
	C244.725204,303.442047 259.825958,300.072723 273.898590,289.654633
	C276.431213,287.779694 278.814453,285.680420 281.124908,283.532257
	C287.645874,277.469299 290.778290,277.474121 297.856995,283.739838
	C283.980896,307.612488 250.918793,323.097473 224.831467,314.242188
z"/>
<path fill="#B78FFF" opacity="1.000000" stroke="none"
	d="
M340.527283,258.624878
	C358.054352,265.178589 375.606873,267.023529 392.727264,259.707245
	C400.420197,256.419678 406.899384,250.291840 413.273132,244.461166
	C413.589966,244.494446 413.950531,244.440262 414.217346,244.573624
	C424.722015,249.824097 425.316193,252.605957 416.934418,260.653778
	C404.671631,272.427948 389.633057,278.026550 372.879089,278.922211
	C360.385895,279.590149 347.791901,279.431580 336.580322,272.802063
	C330.323944,269.102600 324.579681,264.527954 318.663818,260.265533
	C315.740295,258.159149 315.674835,255.772995 318.359192,253.312622
	C319.461884,252.301987 320.554108,251.262848 321.524445,250.128357
	C323.855835,247.402451 325.807343,247.470551 328.583618,249.961838
	C332.133942,253.147705 336.292877,255.655334 340.527283,258.624878
z"/>
<path fill="#B78EFF" opacity="1.000000" stroke="none"
	d="
M85.172073,254.835526
	C82.231094,251.715240 79.540421,248.844833 76.023895,245.093414
	C80.914711,243.477814 84.571404,242.018646 88.363541,241.152328
	C89.706207,240.845581 91.688118,241.594421 92.855331,242.520416
	C114.579018,259.754822 136.490631,261.647980 159.619156,248.077377
	C167.321335,243.558151 165.372238,243.512421 173.113663,249.738693
	C175.477325,251.639740 175.518341,253.455536 173.193039,255.468155
	C162.915558,264.363617 151.212967,270.930573 137.806442,272.767853
	C117.712700,275.521576 99.959572,269.643311 85.172073,254.835526
z"/>
<path fill="#B68EFF" opacity="1.000000" stroke="none"
	d="
M336.017456,284.984772
	C335.872925,284.837341 335.715393,284.701599 335.557831,284.565887
	C335.662872,284.610718 335.767944,284.655579 335.927795,284.861877
	C335.982635,285.023315 336.004425,284.996490 336.017456,284.984772
z"/>
</svg>
