<svg version="1.1" id="Layer_1" xmlns="http://www.w3.org/2000/svg" xmlns:xlink="http://www.w3.org/1999/xlink" x="0px" y="0px"
	 width="100%" viewBox="0 0 500 500" enable-background="new 0 0 500 500" xml:space="preserve">
<path fill="#FFFFFF" opacity="1.000000" stroke="none" 
	d="
M328.000000,501.000000 
	C218.666687,501.000000 109.833382,501.000000 1.000058,501.000000 
	C1.000039,334.333405 1.000039,167.666794 1.000019,1.000148 
	C167.666565,1.000099 334.333130,1.000099 500.999756,1.000049 
	C500.999847,167.666519 500.999847,334.333038 500.999939,500.999786 
	C443.500000,501.000000 386.000000,501.000000 328.000000,501.000000 
M139.445084,304.549927 
	C146.264801,303.535706 153.084503,302.521515 160.033936,301.488037 
	C164.134094,307.214142 168.292404,313.021515 172.791550,319.304840 
	C178.117905,316.301605 183.434250,313.591217 188.447922,310.404633 
	C194.766159,306.388916 194.667450,306.217560 191.651550,299.547241 
	C190.486389,296.970215 189.452484,294.311981 188.046219,291.870789 
	C185.832123,288.027344 185.244156,284.863373 189.315628,281.559479 
	C191.680008,279.640930 193.437347,276.699402 194.796692,273.893097 
	C196.208801,270.977875 198.058304,270.703644 200.819641,271.229858 
	C206.662521,272.343201 212.547806,273.234070 219.147232,274.338623 
	C221.372925,265.965820 223.482178,258.030975 225.657043,249.849335 
	C219.257538,247.395966 213.630234,245.419067 208.183075,243.031235 
	C206.708374,242.384781 205.052292,240.649277 204.733566,239.147491 
	C203.736786,234.450760 203.170090,229.639450 202.812714,224.844513 
	C202.705582,223.407242 203.403259,221.358170 204.467224,220.483765 
	C208.448120,217.212219 212.675995,214.227386 216.929245,211.306885 
	C219.038086,209.858871 219.963348,208.412186 218.487122,205.991776 
	C215.203537,200.607910 212.126678,195.089645 208.620514,189.857391 
	C207.973770,188.892242 205.430695,188.302689 204.229584,188.761490 
	C199.425720,190.596497 194.879135,193.105972 190.072830,194.933090 
	C188.648163,195.474686 186.349960,195.116364 185.031693,194.268829 
	C181.555008,192.033600 178.512466,189.129868 175.070831,186.831024 
	C172.721603,185.261887 171.670013,183.741302 172.336258,180.752029 
	C173.419785,175.890457 174.186783,170.934479 174.663925,165.977585 
	C174.790451,164.663147 173.671860,162.307266 172.611847,161.949387 
	C165.590820,159.578857 158.430023,157.622360 150.965698,155.428513 
	C148.749893,161.404449 146.701889,166.473923 145.010300,171.659653 
	C143.990692,174.785431 142.860794,176.648331 138.926376,176.625183 
	C134.496918,176.599075 130.076736,178.032745 125.617516,178.373947 
	C124.061714,178.492981 121.852745,177.706512 120.889130,176.546707 
	C117.598038,172.585556 114.838402,168.186417 111.621727,164.157394 
	C110.797272,163.124725 108.576378,161.941681 107.779251,162.351013 
	C100.908997,165.878891 94.217987,169.755859 87.500549,173.513565 
	C90.572914,180.119308 93.204109,185.496078 95.532707,191.000839 
	C96.047661,192.218201 96.051979,194.294754 95.335434,195.281387 
	C91.744812,200.225433 87.836418,204.938690 84.048439,209.722031 
	C78.052284,208.773605 71.991783,207.657791 65.882698,206.979568 
	C64.641022,206.841736 62.344219,208.086029 62.019714,209.147461 
	C60.131992,215.321960 58.496689,221.594910 57.264080,227.929520 
	C57.033127,229.116409 58.697380,231.399933 60.029800,232.030472 
	C64.525848,234.158112 69.359108,235.572586 73.857903,237.695343 
	C75.242500,238.348663 76.554863,240.273193 76.884621,241.830688 
	C77.810143,246.202148 77.978638,250.733154 78.890610,255.108490 
	C79.505043,258.056335 79.247879,260.000427 76.428741,261.727936 
	C72.464577,264.157043 68.887459,267.208771 65.010414,269.792603 
	C62.769402,271.286072 62.248516,272.819916 63.653130,275.158081 
	C66.817085,280.424866 69.933189,285.721802 72.976326,291.059143 
	C74.389153,293.537109 75.993935,293.451965 78.329742,292.267059 
	C82.776047,290.011566 87.307526,287.871124 91.969002,286.124115 
	C93.408104,285.584747 95.709015,285.962524 97.050812,286.812042 
	C100.685715,289.113373 103.892998,292.087433 107.515450,294.412018 
	C109.773331,295.860901 110.760193,297.215454 110.189857,300.025330 
	C109.198456,304.909668 108.423691,309.868225 108.067894,314.832214 
	C107.966415,316.247833 109.315308,318.706085 110.529938,319.117004 
	C116.182358,321.029022 122.003494,322.460083 127.800659,323.918549 
	C130.524796,324.603882 132.393158,323.903961 133.374619,320.732574 
	C134.992813,315.503632 137.161636,310.445129 139.445084,304.549927 
M271.486542,187.048798 
	C275.091522,183.211670 278.696533,179.374557 282.428009,175.402847 
	C279.208557,171.604767 276.189697,168.473251 273.744141,164.944412 
	C272.779999,163.553177 272.620575,161.199692 272.906708,159.414536 
	C274.367615,150.300278 279.932159,146.467941 289.033539,147.357422 
	C290.457825,147.496628 291.947357,146.968079 293.771942,146.693298 
	C293.771942,140.173233 293.771942,133.774521 293.771942,127.299271 
	C291.570801,126.969803 289.729187,126.300529 287.987427,126.500511 
	C279.772064,127.443794 275.432861,123.934158 273.255310,115.930763 
	C272.292969,112.393921 271.651154,110.194023 274.251709,107.140289 
	C282.671692,97.252953 282.538330,97.135223 272.825409,88.434959 
	C271.957703,87.657730 271.136993,86.530151 270.121429,86.286560 
	C268.643341,85.932022 266.583801,85.622650 265.516052,86.364555 
	C261.713135,89.007057 258.224762,92.102280 254.826767,94.856346 
	C251.005722,93.181564 247.400208,91.850578 244.067261,90.022591 
	C242.654877,89.247955 241.147919,87.565987 240.840012,86.060028 
	C239.920227,81.561600 239.572250,76.946266 238.946579,71.941559 
	C233.499313,71.941559 228.521576,72.087120 223.557434,71.890167 
	C220.272552,71.759827 219.190750,73.201561 219.040329,76.264725 
	C218.837036,80.404419 218.297470,84.527603 217.894547,88.737610 
	C217.044495,89.068588 216.209427,89.248726 215.533432,89.678856 
	C206.687378,95.307526 198.885056,94.652611 192.109039,86.142349 
	C191.516891,85.398666 189.010895,85.070236 188.387817,85.638588 
	C184.150040,89.504166 180.179001,93.662163 176.110275,97.737312 
	C178.421921,100.616188 180.076141,102.696022 181.752136,104.758171 
	C183.518799,106.931870 185.306198,109.088707 186.739151,110.832565 
	C185.022247,115.006020 183.765656,118.817612 181.883545,122.290169 
	C181.045029,123.837265 179.089203,125.389687 177.392715,125.740097 
	C173.208206,126.604416 168.880432,126.774971 164.368896,127.249832 
	C164.026810,129.990494 163.583725,132.425156 163.440842,134.877319 
	C162.806946,145.755890 163.419006,146.468781 173.984482,147.688278 
	C175.306381,147.840866 176.689163,147.704514 177.958801,148.031647 
	C184.947525,149.832382 182.112991,157.805618 186.232483,161.539566 
	C186.722244,161.983475 186.153244,164.280792 185.437866,165.247498 
	C182.697510,168.950546 179.697128,172.461182 176.045212,176.967300 
	C180.645172,181.744644 184.987518,186.254425 189.405441,190.842697 
	C195.004669,186.261826 199.243637,182.793808 203.244019,179.520996 
	C207.567612,181.129776 211.678238,182.451859 215.575790,184.238739 
	C216.712280,184.759781 217.796844,186.536392 217.963455,187.856339 
	C219.937836,203.499832 219.890945,203.505722 235.600830,201.956512 
	C235.766556,201.940186 235.996124,201.994797 236.089203,201.905334 
	C237.332596,200.709930 239.320435,199.664948 239.635757,198.250885 
	C240.425797,194.708008 240.310196,190.972992 240.872772,187.364120 
	C241.061874,186.151077 241.932312,184.524475 242.946854,184.039246 
	C254.765762,178.386353 254.789047,178.434265 265.100372,186.595276 
	C265.622711,187.008713 266.118774,187.761719 266.656647,187.789764 
	C268.076813,187.863739 269.513245,187.625702 271.486542,187.048798 
M325.251404,408.427765 
	C333.193848,412.304688 340.938202,410.350739 344.749542,403.508240 
	C348.581451,396.628845 346.037964,389.111115 338.703094,384.290619 
	C337.332794,383.390045 336.293549,380.928772 336.281097,379.179321 
	C336.121094,356.684235 336.168884,334.187622 336.191071,311.691406 
	C336.192474,310.269562 336.417480,308.847961 336.526794,307.563354 
	C341.299042,307.563354 345.537292,307.563354 349.982697,307.563354 
	C349.982697,313.609650 350.671356,319.371857 349.845123,324.907959 
	C347.879608,338.077820 351.668121,348.266998 363.502167,354.914307 
	C372.809814,360.142578 375.503418,368.124268 374.092651,378.278564 
	C373.670776,381.314972 373.876526,383.616516 370.301300,385.303467 
	C364.774231,387.911407 362.549896,394.863953 364.299103,400.815247 
	C365.973755,406.512878 371.353210,410.497955 377.417053,410.532928 
	C383.514557,410.568115 388.889832,406.697021 390.661499,400.994659 
	C392.492401,395.101624 390.315735,388.093719 384.885803,385.382904 
	C381.554077,383.719574 380.447113,381.699615 381.045685,378.475586 
	C383.437744,365.591217 379.000732,355.879333 367.678619,349.345306 
	C358.408234,343.995453 355.377258,336.072998 356.728882,325.617401 
	C357.501221,319.643250 356.868652,313.487488 356.868652,307.394531 
	C368.806671,307.394531 379.874268,307.394531 391.131378,307.394531 
	C391.131378,312.265656 391.314117,316.770264 391.073730,321.252197 
	C390.880585,324.852997 392.102814,327.163177 395.355316,328.865326 
	C400.954651,331.795593 406.315033,335.180237 411.890747,338.158752 
	C414.370575,339.483398 415.488434,341.034821 415.446320,343.988464 
	C415.277496,355.817413 415.301910,367.650970 415.434174,379.480865 
	C415.463715,382.122803 414.691010,383.549316 412.292969,384.894043 
	C406.235657,388.290924 403.820221,394.493652 405.651550,400.569519 
	C407.530487,406.803345 412.581757,410.533905 419.046112,410.461945 
	C425.330139,410.391998 430.632935,406.427399 432.034332,400.751404 
	C433.729950,393.883636 431.467224,388.000549 425.134399,384.718750 
	C422.495758,383.351349 422.114227,381.737946 422.139587,379.233704 
	C422.230743,370.236115 421.218567,361.108612 422.405457,352.269501 
	C424.074249,339.841644 419.553772,332.805023 408.188751,327.793152 
	C397.208740,322.951080 397.508514,322.046173 398.304901,310.006989 
	C398.398743,308.588898 399.997467,306.511230 401.342682,306.058289 
	C410.042633,303.128906 415.409546,297.160828 417.419006,288.449829 
	C427.267303,245.757843 393.104797,218.813660 361.830231,224.840927 
	C359.876282,225.217514 356.947052,224.261475 355.478363,222.865891 
	C335.199036,203.596008 304.159607,207.761887 289.802246,231.682297 
	C288.755676,233.425964 286.241943,235.035736 284.214722,235.321838 
	C271.884796,237.061844 261.733032,242.398972 254.376816,252.536911 
	C245.953598,264.145355 244.760040,277.084229 248.150833,290.614624 
	C250.583313,300.321014 257.160736,305.794403 267.131287,307.224731 
	C267.131287,311.165405 266.866730,314.676636 267.206543,318.128357 
	C267.538391,321.499084 266.143555,323.208740 263.295624,324.692444 
	C257.690948,327.612274 252.337555,331.011963 246.756500,333.980621 
	C243.875763,335.512939 242.878021,337.541809 242.917374,340.778290 
	C243.075409,353.774200 243.084747,366.774933 242.855179,379.768707 
	C242.825974,381.422089 241.459473,383.668427 240.034927,384.572937 
	C234.139069,388.316711 231.416580,394.337463 233.236130,400.817413 
	C234.799026,406.383331 240.342209,410.479095 246.380692,410.529694 
	C252.618530,410.581970 258.177551,406.422577 259.765289,400.515015 
	C261.438629,394.289001 258.939331,387.941223 252.991501,384.863678 
	C250.430298,383.538483 249.951309,381.975830 249.972870,379.439301 
	C250.073380,367.608795 250.139450,355.774841 249.932327,343.947113 
	C249.879974,340.957275 251.015656,339.476288 253.450958,338.167419 
	C259.165436,335.096191 264.932892,332.060425 270.309692,328.459106 
	C272.118774,327.247406 273.612976,324.458282 273.853485,322.238678 
	C274.381470,317.366394 274.017181,312.397430 274.017181,307.173157 
	C276.197021,307.173157 277.847198,307.592834 279.111908,307.073608 
	C280.954865,306.316986 282.520447,304.884766 284.204315,303.740601 
	C282.543488,302.538635 281.005341,300.593384 279.195465,300.294708 
	C275.787720,299.732300 272.219421,300.221832 268.724792,300.090149 
	C261.685669,299.824921 257.008514,296.500763 255.145935,289.692535 
	C247.848511,263.018494 264.788971,244.296310 284.192841,242.740448 
	C290.141022,242.263504 293.809448,240.046463 296.542480,234.612381 
	C300.358917,227.024277 307.044281,222.276276 315.069611,219.545044 
	C328.660065,214.919815 345.480469,219.918442 352.101532,230.526459 
	C350.946136,231.927338 349.336426,233.163055 348.700348,234.781433 
	C346.606293,240.109055 344.675598,245.523499 343.166931,251.037247 
	C342.902924,252.002029 344.982147,253.607956 345.979156,254.917786 
	C347.245453,253.834305 348.636444,252.859222 349.718079,251.615189 
	C350.164764,251.101440 349.907532,250.004120 350.038544,249.183121 
	C351.913116,237.434586 360.552521,230.443451 372.448029,231.157974 
	C380.057281,231.615036 387.180695,233.684555 393.518341,238.067352 
	C407.241882,247.557846 412.478973,260.944702 412.044495,277.250763 
	C411.612366,293.468048 405.259003,300.113068 389.241394,300.125824 
	C363.579010,300.146240 337.916656,300.126648 312.254272,300.143372 
	C310.766113,300.144348 309.152679,299.984192 307.816467,300.484100 
	C305.165405,301.475861 304.436188,303.239166 306.011871,305.991119 
	C307.137268,307.956665 308.131378,310.261719 308.272308,312.473389 
	C308.600128,317.618317 307.798767,322.878723 308.503387,327.946533 
	C309.767761,337.040497 306.776398,343.721008 298.933441,348.280884 
	C286.877899,355.289948 281.775116,365.501801 284.359283,379.370026 
	C284.833069,381.912537 283.778839,383.384277 281.426239,384.880646 
	C278.901886,386.486206 276.517944,389.020081 275.219055,391.703735 
	C272.112762,398.121735 275.229370,405.877625 281.593445,409.072723 
	C288.123047,412.350952 296.282623,409.933258 299.845306,403.664642 
	C303.483398,397.263336 301.681793,388.917297 295.158783,385.374573 
	C291.742828,383.519318 291.510345,381.295349 291.014313,377.970764 
	C289.493713,367.779022 292.925873,360.388000 301.616516,355.005524 
	C304.556549,353.184662 306.797943,350.253326 309.699554,348.348999 
	C314.579590,345.146271 316.049561,340.906494 315.732056,335.213013 
	C315.296661,327.405273 315.603485,319.554962 315.641632,311.723114 
	C315.648529,310.307434 315.893250,308.892914 316.025635,307.504333 
	C320.591309,307.504333 324.669373,307.504333 329.124329,307.504333 
	C329.124329,332.301910 329.154694,356.772552 329.022400,381.242340 
	C329.016632,382.311493 327.739838,383.727692 326.683411,384.382141 
	C317.055420,390.346436 316.159973,400.159637 325.251404,408.427765 
M295.314209,307.297516 
	C296.628601,307.182007 298.493256,307.558075 299.134064,306.840820 
	C300.212372,305.633789 301.400574,303.418671 300.964569,302.185547 
	C299.919983,299.231201 289.901855,299.051971 288.652435,301.983551 
	C288.139496,303.187073 289.150757,305.595123 290.229767,306.734528 
	C290.998169,307.545898 293.038208,307.152985 295.314209,307.297516 
M389.352905,281.157013 
	C387.236511,283.743530 387.163849,286.611145 389.733215,288.531189 
	C391.092224,289.546753 394.201080,289.879944 395.417267,288.998932 
	C396.872406,287.944855 398.176971,284.987579 397.733368,283.344116 
	C396.655670,279.351715 393.506653,278.777405 389.352905,281.157013 
M372.109497,289.585144 
	C375.546082,290.587646 378.335052,289.467743 378.834290,285.990356 
	C379.090607,284.204834 377.688171,280.966339 376.289429,280.464813 
	C374.531067,279.834351 371.289581,280.661499 369.978119,282.065063 
	C367.780365,284.417206 368.734619,287.248108 372.109497,289.585144 
M393.362885,274.435394 
	C397.818085,272.646942 399.562988,269.717468 397.363190,266.836151 
	C396.284576,265.423370 393.567810,264.001740 392.151123,264.430450 
	C390.441254,264.947876 387.999847,267.684723 388.257385,268.991394 
	C388.653809,271.002991 391.077637,272.615051 393.362885,274.435394 
z"/>
<path fill="#683CB8" opacity="1.000000" stroke="none" 
	d="
M139.271729,304.932373 
	C137.161636,310.445129 134.992813,315.503632 133.374619,320.732574 
	C132.393158,323.903961 130.524796,324.603882 127.800659,323.918549 
	C122.003494,322.460083 116.182358,321.029022 110.529938,319.117004 
	C109.315308,318.706085 107.966415,316.247833 108.067894,314.832214 
	C108.423691,309.868225 109.198456,304.909668 110.189857,300.025330 
	C110.760193,297.215454 109.773331,295.860901 107.515450,294.412018 
	C103.892998,292.087433 100.685715,289.113373 97.050812,286.812042 
	C95.709015,285.962524 93.408104,285.584747 91.969002,286.124115 
	C87.307526,287.871124 82.776047,290.011566 78.329742,292.267059 
	C75.993935,293.451965 74.389153,293.537109 72.976326,291.059143 
	C69.933189,285.721802 66.817085,280.424866 63.653130,275.158081 
	C62.248516,272.819916 62.769402,271.286072 65.010414,269.792603 
	C68.887459,267.208771 72.464577,264.157043 76.428741,261.727936 
	C79.247879,260.000427 79.505043,258.056335 78.890610,255.108490 
	C77.978638,250.733154 77.810143,246.202148 76.884621,241.830688 
	C76.554863,240.273193 75.242500,238.348663 73.857903,237.695343 
	C69.359108,235.572586 64.525848,234.158112 60.029800,232.030472 
	C58.697380,231.399933 57.033127,229.116409 57.264080,227.929520 
	C58.496689,221.594910 60.131992,215.321960 62.019714,209.147461 
	C62.344219,208.086029 64.641022,206.841736 65.882698,206.979568 
	C71.991783,207.657791 78.052284,208.773605 84.048439,209.722031 
	C87.836418,204.938690 91.744812,200.225433 95.335434,195.281387 
	C96.051979,194.294754 96.047661,192.218201 95.532707,191.000839 
	C93.204109,185.496078 90.572914,180.119308 87.500549,173.513565 
	C94.217987,169.755859 100.908997,165.878891 107.779251,162.351013 
	C108.576378,161.941681 110.797272,163.124725 111.621727,164.157394 
	C114.838402,168.186417 117.598038,172.585556 120.889130,176.546707 
	C121.852745,177.706512 124.061714,178.492981 125.617516,178.373947 
	C130.076736,178.032745 134.496918,176.599075 138.926376,176.625183 
	C142.860794,176.648331 143.990692,174.785431 145.010300,171.659653 
	C146.701889,166.473923 148.749893,161.404449 150.965698,155.428513 
	C158.430023,157.622360 165.590820,159.578857 172.611847,161.949387 
	C173.671860,162.307266 174.790451,164.663147 174.663925,165.977585 
	C174.186783,170.934479 173.419785,175.890457 172.336258,180.752029 
	C171.670013,183.741302 172.721603,185.261887 175.070831,186.831024 
	C178.512466,189.129868 181.555008,192.033600 185.031693,194.268829 
	C186.349960,195.116364 188.648163,195.474686 190.072830,194.933090 
	C194.879135,193.105972 199.425720,190.596497 204.229584,188.761490 
	C205.430695,188.302689 207.973770,188.892242 208.620514,189.857391 
	C212.126678,195.089645 215.203537,200.607910 218.487122,205.991776 
	C219.963348,208.412186 219.038086,209.858871 216.929245,211.306885 
	C212.675995,214.227386 208.448120,217.212219 204.467224,220.483765 
	C203.403259,221.358170 202.705582,223.407242 202.812714,224.844513 
	C203.170090,229.639450 203.736786,234.450760 204.733566,239.147491 
	C205.052292,240.649277 206.708374,242.384781 208.183075,243.031235 
	C213.630234,245.419067 219.257538,247.395966 225.657043,249.849335 
	C223.482178,258.030975 221.372925,265.965820 219.147232,274.338623 
	C212.547806,273.234070 206.662521,272.343201 200.819641,271.229858 
	C198.058304,270.703644 196.208801,270.977875 194.796692,273.893097 
	C193.437347,276.699402 191.680008,279.640930 189.315628,281.559479 
	C185.244156,284.863373 185.832123,288.027344 188.046219,291.870789 
	C189.452484,294.311981 190.486389,296.970215 191.651550,299.547241 
	C194.667450,306.217560 194.766159,306.388916 188.447922,310.404633 
	C183.434250,313.591217 178.117905,316.301605 172.791550,319.304840 
	C168.292404,313.021515 164.134094,307.214142 160.033936,301.488037 
	C153.084503,302.521515 146.264801,303.535706 139.271729,304.932373 
M170.194992,251.573685 
	C171.001282,247.358292 172.619156,243.114410 172.472336,238.932480 
	C171.860641,221.510147 157.826233,208.677719 140.331009,208.978058 
	C123.856064,209.260895 110.450539,222.973083 110.071419,239.929871 
	C109.759972,253.860107 119.863289,266.648071 133.822693,269.992371 
	C149.005234,273.629700 163.037521,266.763428 170.194992,251.573685 
z"/>
<path fill="#683CB8" opacity="1.000000" stroke="none" 
	d="
M271.214874,187.280334 
	C269.513245,187.625702 268.076813,187.863739 266.656647,187.789764 
	C266.118774,187.761719 265.622711,187.008713 265.100372,186.595276 
	C254.789047,178.434265 254.765762,178.386353 242.946854,184.039246 
	C241.932312,184.524475 241.061874,186.151077 240.872772,187.364120 
	C240.310196,190.972992 240.425797,194.708008 239.635757,198.250885 
	C239.320435,199.664948 237.332596,200.709930 236.089203,201.905334 
	C235.996124,201.994797 235.766556,201.940186 235.600830,201.956512 
	C219.890945,203.505722 219.937836,203.499832 217.963455,187.856339 
	C217.796844,186.536392 216.712280,184.759781 215.575790,184.238739 
	C211.678238,182.451859 207.567612,181.129776 203.244019,179.520996 
	C199.243637,182.793808 195.004669,186.261826 189.405441,190.842697 
	C184.987518,186.254425 180.645172,181.744644 176.045212,176.967300 
	C179.697128,172.461182 182.697510,168.950546 185.437866,165.247498 
	C186.153244,164.280792 186.722244,161.983475 186.232483,161.539566 
	C182.112991,157.805618 184.947525,149.832382 177.958801,148.031647 
	C176.689163,147.704514 175.306381,147.840866 173.984482,147.688278 
	C163.419006,146.468781 162.806946,145.755890 163.440842,134.877319 
	C163.583725,132.425156 164.026810,129.990494 164.368896,127.249832 
	C168.880432,126.774971 173.208206,126.604416 177.392715,125.740097 
	C179.089203,125.389687 181.045029,123.837265 181.883545,122.290169 
	C183.765656,118.817612 185.022247,115.006020 186.739151,110.832565 
	C185.306198,109.088707 183.518799,106.931870 181.752136,104.758171 
	C180.076141,102.696022 178.421921,100.616188 176.110275,97.737312 
	C180.179001,93.662163 184.150040,89.504166 188.387817,85.638588 
	C189.010895,85.070236 191.516891,85.398666 192.109039,86.142349 
	C198.885056,94.652611 206.687378,95.307526 215.533432,89.678856 
	C216.209427,89.248726 217.044495,89.068588 217.894547,88.737610 
	C218.297470,84.527603 218.837036,80.404419 219.040329,76.264725 
	C219.190750,73.201561 220.272552,71.759827 223.557434,71.890167 
	C228.521576,72.087120 233.499313,71.941559 238.946579,71.941559 
	C239.572250,76.946266 239.920227,81.561600 240.840012,86.060028 
	C241.147919,87.565987 242.654877,89.247955 244.067261,90.022591 
	C247.400208,91.850578 251.005722,93.181564 254.826767,94.856346 
	C258.224762,92.102280 261.713135,89.007057 265.516052,86.364555 
	C266.583801,85.622650 268.643341,85.932022 270.121429,86.286560 
	C271.136993,86.530151 271.957703,87.657730 272.825409,88.434959 
	C282.538330,97.135223 282.671692,97.252953 274.251709,107.140289 
	C271.651154,110.194023 272.292969,112.393921 273.255310,115.930763 
	C275.432861,123.934158 279.772064,127.443794 287.987427,126.500511 
	C289.729187,126.300529 291.570801,126.969803 293.771942,127.299271 
	C293.771942,133.774521 293.771942,140.173233 293.771942,146.693298 
	C291.947357,146.968079 290.457825,147.496628 289.033539,147.357422 
	C279.932159,146.467941 274.367615,150.300278 272.906708,159.414536 
	C272.620575,161.199692 272.779999,163.553177 273.744141,164.944412 
	C276.189697,168.473251 279.208557,171.604767 282.428009,175.402847 
	C278.696533,179.374557 275.091522,183.211670 271.214874,187.280334 
M232.216263,112.857727 
	C228.924271,113.122459 225.501678,112.899399 222.363708,113.739471 
	C211.019592,116.776466 203.643753,128.720322 205.608124,140.309937 
	C207.690002,152.592682 218.132278,161.386078 230.023514,160.870041 
	C242.345947,160.335297 252.506271,150.732330 253.178543,138.985245 
	C253.953857,125.437653 246.106400,115.250809 232.216263,112.857727 
z"/>
<path fill="#6D41BA" opacity="1.000000" stroke="none" 
	d="
M324.942444,408.216217 
	C316.159973,400.159637 317.055420,390.346436 326.683411,384.382141 
	C327.739838,383.727692 329.016632,382.311493 329.022400,381.242340 
	C329.154694,356.772552 329.124329,332.301910 329.124329,307.504333 
	C324.669373,307.504333 320.591309,307.504333 316.025635,307.504333 
	C315.893250,308.892914 315.648529,310.307434 315.641632,311.723114 
	C315.603485,319.554962 315.296661,327.405273 315.732056,335.213013 
	C316.049561,340.906494 314.579590,345.146271 309.699554,348.348999 
	C306.797943,350.253326 304.556549,353.184662 301.616516,355.005524 
	C292.925873,360.388000 289.493713,367.779022 291.014313,377.970764 
	C291.510345,381.295349 291.742828,383.519318 295.158783,385.374573 
	C301.681793,388.917297 303.483398,397.263336 299.845306,403.664642 
	C296.282623,409.933258 288.123047,412.350952 281.593445,409.072723 
	C275.229370,405.877625 272.112762,398.121735 275.219055,391.703735 
	C276.517944,389.020081 278.901886,386.486206 281.426239,384.880646 
	C283.778839,383.384277 284.833069,381.912537 284.359283,379.370026 
	C281.775116,365.501801 286.877899,355.289948 298.933441,348.280884 
	C306.776398,343.721008 309.767761,337.040497 308.503387,327.946533 
	C307.798767,322.878723 308.600128,317.618317 308.272308,312.473389 
	C308.131378,310.261719 307.137268,307.956665 306.011871,305.991119 
	C304.436188,303.239166 305.165405,301.475861 307.816467,300.484100 
	C309.152679,299.984192 310.766113,300.144348 312.254272,300.143372 
	C337.916656,300.126648 363.579010,300.146240 389.241394,300.125824 
	C405.259003,300.113068 411.612366,293.468048 412.044495,277.250763 
	C412.478973,260.944702 407.241882,247.557846 393.518341,238.067352 
	C387.180695,233.684555 380.057281,231.615036 372.448029,231.157974 
	C360.552521,230.443451 351.913116,237.434586 350.038544,249.183121 
	C349.907532,250.004120 350.164764,251.101440 349.718079,251.615189 
	C348.636444,252.859222 347.245453,253.834305 345.979126,254.917786 
	C344.982147,253.607956 342.902924,252.002029 343.166931,251.037247 
	C344.675598,245.523499 346.606293,240.109055 348.700348,234.781433 
	C349.336426,233.163055 350.946136,231.927338 352.101532,230.526459 
	C345.480469,219.918442 328.660065,214.919815 315.069611,219.545044 
	C307.044281,222.276276 300.358917,227.024277 296.542480,234.612381 
	C293.809448,240.046463 290.141022,242.263504 284.192841,242.740448 
	C264.788971,244.296310 247.848511,263.018494 255.145935,289.692535 
	C257.008514,296.500763 261.685669,299.824921 268.724792,300.090149 
	C272.219421,300.221832 275.787720,299.732300 279.195465,300.294708 
	C281.005341,300.593384 282.543488,302.538635 284.204315,303.740601 
	C282.520447,304.884766 280.954865,306.316986 279.111908,307.073608 
	C277.847198,307.592834 276.197021,307.173157 274.017181,307.173157 
	C274.017181,312.397430 274.381470,317.366394 273.853485,322.238678 
	C273.612976,324.458282 272.118774,327.247406 270.309692,328.459106 
	C264.932892,332.060425 259.165436,335.096191 253.450958,338.167419 
	C251.015656,339.476288 249.879974,340.957275 249.932327,343.947113 
	C250.139450,355.774841 250.073380,367.608795 249.972870,379.439301 
	C249.951309,381.975830 250.430298,383.538483 252.991501,384.863678 
	C258.939331,387.941223 261.438629,394.289001 259.765289,400.515015 
	C258.177551,406.422577 252.618530,410.581970 246.380692,410.529694 
	C240.342209,410.479095 234.799026,406.383331 233.236130,400.817413 
	C231.416580,394.337463 234.139069,388.316711 240.034927,384.572937 
	C241.459473,383.668427 242.825974,381.422089 242.855179,379.768707 
	C243.084747,366.774933 243.075409,353.774200 242.917374,340.778290 
	C242.878021,337.541809 243.875763,335.512939 246.756500,333.980621 
	C252.337555,331.011963 257.690948,327.612274 263.295624,324.692444 
	C266.143555,323.208740 267.538391,321.499084 267.206543,318.128357 
	C266.866730,314.676636 267.131287,311.165405 267.131287,307.224731 
	C257.160736,305.794403 250.583313,300.321014 248.150833,290.614624 
	C244.760040,277.084229 245.953598,264.145355 254.376816,252.536911 
	C261.733032,242.398972 271.884796,237.061844 284.214722,235.321838 
	C286.241943,235.035736 288.755676,233.425964 289.802246,231.682297 
	C304.159607,207.761887 335.199036,203.596008 355.478363,222.865891 
	C356.947052,224.261475 359.876282,225.217514 361.830231,224.840927 
	C393.104797,218.813660 427.267303,245.757843 417.419006,288.449829 
	C415.409546,297.160828 410.042633,303.128906 401.342682,306.058289 
	C399.997467,306.511230 398.398743,308.588898 398.304901,310.006989 
	C397.508514,322.046173 397.208740,322.951080 408.188751,327.793152 
	C419.553772,332.805023 424.074249,339.841644 422.405457,352.269501 
	C421.218567,361.108612 422.230743,370.236115 422.139587,379.233704 
	C422.114227,381.737946 422.495758,383.351349 425.134399,384.718750 
	C431.467224,388.000549 433.729950,393.883636 432.034332,400.751404 
	C430.632935,406.427399 425.330139,410.391998 419.046112,410.461945 
	C412.581757,410.533905 407.530487,406.803345 405.651550,400.569519 
	C403.820221,394.493652 406.235657,388.290924 412.292969,384.894043 
	C414.691010,383.549316 415.463715,382.122803 415.434174,379.480865 
	C415.301910,367.650970 415.277496,355.817413 415.446320,343.988464 
	C415.488434,341.034821 414.370575,339.483398 411.890747,338.158752 
	C406.315033,335.180237 400.954651,331.795593 395.355316,328.865326 
	C392.102814,327.163177 390.880585,324.852997 391.073730,321.252197 
	C391.314117,316.770264 391.131378,312.265656 391.131378,307.394531 
	C379.874268,307.394531 368.806671,307.394531 356.868652,307.394531 
	C356.868652,313.487488 357.501221,319.643250 356.728882,325.617401 
	C355.377258,336.072998 358.408234,343.995453 367.678619,349.345306 
	C379.000732,355.879333 383.437744,365.591217 381.045685,378.475586 
	C380.447113,381.699615 381.554077,383.719574 384.885803,385.382904 
	C390.315735,388.093719 392.492401,395.101624 390.661499,400.994659 
	C388.889832,406.697021 383.514557,410.568115 377.417053,410.532928 
	C371.353210,410.497955 365.973755,406.512878 364.299103,400.815247 
	C362.549896,394.863953 364.774231,387.911407 370.301300,385.303467 
	C373.876526,383.616516 373.670776,381.314972 374.092651,378.278564 
	C375.503418,368.124268 372.809814,360.142578 363.502167,354.914307 
	C351.668121,348.266998 347.879608,338.077820 349.845123,324.907959 
	C350.671356,319.371857 349.982697,313.609650 349.982697,307.563354 
	C345.537292,307.563354 341.299042,307.563354 336.526794,307.563354 
	C336.417480,308.847961 336.192474,310.269562 336.191071,311.691406 
	C336.168884,334.187622 336.121094,356.684235 336.281097,379.179321 
	C336.293549,380.928772 337.332794,383.390045 338.703094,384.290619 
	C346.037964,389.111115 348.581451,396.628845 344.749542,403.508240 
	C340.938202,410.350739 333.193848,412.304688 324.942444,408.216217 
M281.881592,393.626678 
	C282.316223,396.340118 282.091583,399.460876 283.424988,401.619019 
	C284.266998,402.981842 287.933289,403.949371 289.444183,403.229401 
	C291.649811,402.178497 294.278870,399.555481 294.460815,397.410400 
	C294.642761,395.265015 292.535339,392.172272 290.536621,390.772766 
	C287.580994,388.703186 284.522491,390.222229 281.881592,393.626678 
M339.372040,398.077301 
	C338.975006,391.386932 333.557190,387.600983 329.106293,391.257843 
	C327.319427,392.725952 325.857025,396.292664 326.370728,398.382050 
	C326.893097,400.506470 329.787292,402.933655 332.081543,403.524414 
	C335.350220,404.366028 338.058655,402.266876 339.372040,398.077301 
M422.275635,390.955933 
	C417.297028,389.348663 413.510132,390.870667 412.243042,394.988129 
	C411.163788,398.495239 413.423065,402.991119 417.239258,403.276764 
	C419.611572,403.454346 422.876953,402.250885 424.429047,400.502319 
	C427.136871,397.451660 425.948853,394.014160 422.275635,390.955933 
M248.689301,403.229980 
	C254.038879,399.944000 254.905899,393.474304 249.977859,391.225433 
	C247.868057,390.262665 244.049911,390.428925 242.408997,391.781647 
	C240.737030,393.160004 239.833069,396.820343 240.303345,399.133789 
	C241.027679,402.696808 244.170807,404.220581 248.689301,403.229980 
M383.802551,394.189392 
	C382.222198,390.983521 379.468689,389.105957 376.190826,390.307709 
	C374.086639,391.079193 371.621948,393.458496 371.201508,395.504028 
	C370.779358,397.557800 372.092865,400.816040 373.762085,402.196777 
	C375.226257,403.407867 378.463104,403.436096 380.514771,402.762268 
	C384.009186,401.614502 384.616913,398.387177 383.802551,394.189392 
z"/>
<path fill="#7046BB" opacity="1.000000" stroke="none" 
	d="
M294.912476,307.297516 
	C293.038208,307.152985 290.998169,307.545898 290.229767,306.734528 
	C289.150757,305.595123 288.139496,303.187073 288.652435,301.983551 
	C289.901855,299.051971 299.919983,299.231201 300.964569,302.185547 
	C301.400574,303.418671 300.212372,305.633789 299.134064,306.840820 
	C298.493256,307.558075 296.628601,307.182007 294.912476,307.297516 
z"/>
<path fill="#7045BB" opacity="1.000000" stroke="none" 
	d="
M389.644257,280.919006 
	C393.506653,278.777405 396.655670,279.351715 397.733368,283.344116 
	C398.176971,284.987579 396.872406,287.944855 395.417267,288.998932 
	C394.201080,289.879944 391.092224,289.546753 389.733215,288.531189 
	C387.163849,286.611145 387.236511,283.743530 389.644257,280.919006 
z"/>
<path fill="#6F45BB" opacity="1.000000" stroke="none" 
	d="
M371.773132,289.389191 
	C368.734619,287.248108 367.780365,284.417206 369.978119,282.065063 
	C371.289581,280.661499 374.531067,279.834351 376.289429,280.464813 
	C377.688171,280.966339 379.090607,284.204834 378.834290,285.990356 
	C378.335052,289.467743 375.546082,290.587646 371.773132,289.389191 
z"/>
<path fill="#7147BC" opacity="1.000000" stroke="none" 
	d="
M393.002136,274.416016 
	C391.077637,272.615051 388.653809,271.002991 388.257385,268.991394 
	C387.999847,267.684723 390.441254,264.947876 392.151123,264.430450 
	C393.567810,264.001740 396.284576,265.423370 397.363190,266.836151 
	C399.562988,269.717468 397.818085,272.646942 393.002136,274.416016 
z"/>
<path fill="#F6F4FB" opacity="1.000000" stroke="none" 
	d="
M170.076981,251.941940 
	C163.037521,266.763428 149.005234,273.629700 133.822693,269.992371 
	C119.863289,266.648071 109.759972,253.860107 110.071419,239.929871 
	C110.450539,222.973083 123.856064,209.260895 140.331009,208.978058 
	C157.826233,208.677719 171.860641,221.510147 172.472336,238.932480 
	C172.619156,243.114410 171.001282,247.358292 170.076981,251.941940 
M135.756699,214.015610 
	C134.803970,214.301270 133.837799,214.548691 132.900528,214.878296 
	C118.912598,219.797226 111.361893,235.566864 116.452599,249.210129 
	C121.663528,263.175598 137.864273,270.241791 151.719971,264.592529 
	C164.060226,259.561157 170.809738,246.217209 167.360580,233.670822 
	C163.483551,219.568115 151.526993,211.890533 135.756699,214.015610 
z"/>
<path fill="#F4F1FA" opacity="1.000000" stroke="none" 
	d="
M232.662842,112.895554 
	C246.106400,115.250809 253.953857,125.437653 253.178543,138.985245 
	C252.506271,150.732330 242.345947,160.335297 230.023514,160.870041 
	C218.132278,161.386078 207.690002,152.592682 205.608124,140.309937 
	C203.643753,128.720322 211.019592,116.776466 222.363708,113.739471 
	C225.501678,112.899399 228.924271,113.122459 232.662842,112.895554 
M239.452347,118.833969 
	C238.407181,118.329521 237.403564,117.698112 236.310379,117.340439 
	C226.315536,114.070229 216.010513,118.203857 211.283234,127.333031 
	C206.688950,136.205353 209.208038,146.802750 217.419937,153.149063 
	C225.201157,159.162537 235.911301,158.597321 243.429337,151.642334 
	C252.998108,142.790207 252.364426,126.682892 239.452347,118.833969 
z"/>
<path fill="#F9F7FC" opacity="1.000000" stroke="none" 
	d="
M282.077301,393.287964 
	C284.522491,390.222229 287.580994,388.703186 290.536621,390.772766 
	C292.535339,392.172272 294.642761,395.265015 294.460815,397.410400 
	C294.278870,399.555481 291.649811,402.178497 289.444183,403.229401 
	C287.933289,403.949371 284.266998,402.981842 283.424988,401.619019 
	C282.091583,399.460876 282.316223,396.340118 282.077301,393.287964 
z"/>
<path fill="#F9F7FC" opacity="1.000000" stroke="none" 
	d="
M339.277649,398.434479 
	C338.058655,402.266876 335.350220,404.366028 332.081543,403.524414 
	C329.787292,402.933655 326.893097,400.506470 326.370728,398.382050 
	C325.857025,396.292664 327.319427,392.725952 329.106293,391.257843 
	C333.557190,387.600983 338.975006,391.386932 339.277649,398.434479 
z"/>
<path fill="#F9F7FC" opacity="1.000000" stroke="none" 
	d="
M422.608704,391.153931 
	C425.948853,394.014160 427.136871,397.451660 424.429047,400.502319 
	C422.876953,402.250885 419.611572,403.454346 417.239258,403.276764 
	C413.423065,402.991119 411.163788,398.495239 412.243042,394.988129 
	C413.510132,390.870667 417.297028,389.348663 422.608704,391.153931 
z"/>
<path fill="#FAF9FD" opacity="1.000000" stroke="none" 
	d="
M248.336487,403.379822 
	C244.170807,404.220581 241.027679,402.696808 240.303345,399.133789 
	C239.833069,396.820343 240.737030,393.160004 242.408997,391.781647 
	C244.049911,390.428925 247.868057,390.262665 249.977859,391.225433 
	C254.905899,393.474304 254.038879,399.944000 248.336487,403.379822 
z"/>
<path fill="#FAF9FD" opacity="1.000000" stroke="none" 
	d="
M383.910492,394.585083 
	C384.616913,398.387177 384.009186,401.614502 380.514771,402.762268 
	C378.463104,403.436096 375.226257,403.407867 373.762085,402.196777 
	C372.092865,400.816040 370.779358,397.557800 371.201508,395.504028 
	C371.621948,393.458496 374.086639,391.079193 376.190826,390.307709 
	C379.468689,389.105957 382.222198,390.983521 383.910492,394.585083 
z"/>
<path fill="#6D42BA" opacity="1.000000" stroke="none" 
	d="
M136.160492,213.955704 
	C151.526993,211.890533 163.483551,219.568115 167.360580,233.670822 
	C170.809738,246.217209 164.060226,259.561157 151.719971,264.592529 
	C137.864273,270.241791 121.663528,263.175598 116.452599,249.210129 
	C111.361893,235.566864 118.912598,219.797226 132.900528,214.878296 
	C133.837799,214.548691 134.803970,214.301270 136.160492,213.955704 
M131.582153,257.155243 
	C146.461731,265.417847 159.715118,253.763916 161.147430,243.409622 
	C162.537827,233.358429 157.050797,224.238922 147.616272,221.205032 
	C138.288834,218.205566 128.195572,222.504623 123.699715,231.391937 
	C119.282219,240.124359 122.218506,250.458878 131.582153,257.155243 
z"/>
<path fill="#6E44BB" opacity="1.000000" stroke="none" 
	d="
M239.791565,118.994766 
	C252.364426,126.682892 252.998108,142.790207 243.429337,151.642334 
	C235.911301,158.597321 225.201157,159.162537 217.419937,153.149063 
	C209.208038,146.802750 206.688950,136.205353 211.283234,127.333031 
	C216.010513,118.203857 226.315536,114.070229 236.310379,117.340439 
	C237.403564,117.698112 238.407181,118.329521 239.791565,118.994766 
M239.405396,124.976059 
	C231.759567,120.002800 223.440262,120.520393 218.213516,126.294533 
	C213.155289,131.882523 212.938461,140.684402 217.719162,146.362610 
	C223.479218,153.204041 232.706406,154.024948 239.362289,148.288132 
	C246.485580,142.148468 246.732132,133.216507 239.405396,124.976059 
z"/>
<path fill="#FEFDFE" opacity="1.000000" stroke="none" 
	d="
M131.250366,256.977295 
	C122.218506,250.458878 119.282219,240.124359 123.699715,231.391937 
	C128.195572,222.504623 138.288834,218.205566 147.616272,221.205032 
	C157.050797,224.238922 162.537827,233.358429 161.147430,243.409622 
	C159.715118,253.763916 146.461731,265.417847 131.250366,256.977295 
z"/>
<path fill="#FDFDFE" opacity="1.000000" stroke="none" 
	d="
M239.699066,125.213272 
	C246.732132,133.216507 246.485580,142.148468 239.362289,148.288132 
	C232.706406,154.024948 223.479218,153.204041 217.719162,146.362610 
	C212.938461,140.684402 213.155289,131.882523 218.213516,126.294533 
	C223.440262,120.520393 231.759567,120.002800 239.699066,125.213272 
z"/>
</svg>